{"glyphs":{"0":{"ha":903,"x_min":97,"x_max":1003,"o":"m 231 0 q 128 25 160 0 q 97 101 97 50 q 106 164 97 128 l 235 776 q 296 900 253 860 q 429 940 339 940 l 871 940 q 972 915 942 940 q 1003 838 1003 890 q 1001 809 1003 824 q 996 776 999 794 l 867 164 q 806 40 849 81 q 672 0 763 0 l 231 0 m 782 703 q 784 715 783 710 q 785 726 785 721 q 774 751 785 744 q 738 758 764 758 l 478 758 q 438 747 450 758 q 418 704 425 735 l 318 235 q 315 215 315 221 q 356 188 315 188 l 615 188 q 663 199 649 188 q 682 235 676 210 l 782 703 z "},"1":{"ha":432,"x_min":158,"x_max":556,"o":"m 158 0 l 319 761 l 192 761 l 229 940 l 556 940 l 357 0 l 158 0 z "},"2":{"ha":901,"x_min":78,"x_max":997,"o":"m 78 0 l 154 361 q 179 442 164 408 q 219 498 194 476 q 278 529 243 519 q 363 539 314 539 l 697 539 q 738 551 726 539 q 757 593 750 564 l 783 718 q 788 744 788 732 q 744 772 788 772 l 479 772 q 438 761 451 772 q 417 718 424 750 l 403 650 l 213 650 l 240 781 q 303 901 257 861 q 438 940 350 940 l 865 940 q 967 915 936 940 q 997 839 997 890 q 990 776 997 815 l 940 538 q 882 423 925 461 q 760 385 839 385 l 404 385 q 365 373 376 385 q 344 324 353 361 l 313 176 l 863 176 l 826 0 l 78 0 z "},"3":{"ha":878,"x_min":81,"x_max":971,"o":"m 214 0 q 112 25 143 0 q 81 103 81 50 q 88 160 81 125 l 118 306 l 311 306 l 294 224 q 292 212 293 217 q 292 203 292 207 q 333 174 292 174 l 599 174 q 640 185 626 174 q 660 224 653 196 l 690 371 q 692 386 692 376 q 649 411 692 411 l 443 411 l 474 550 l 679 550 q 718 560 707 550 q 735 593 729 569 l 763 724 q 765 735 764 731 q 765 746 765 740 q 725 772 765 772 l 463 772 q 422 762 435 772 q 403 724 408 751 l 388 650 l 197 650 l 225 781 q 288 901 242 861 q 424 940 335 940 l 833 940 q 939 914 907 940 q 971 835 971 888 q 965 781 971 807 l 928 604 q 881 519 915 546 q 797 486 847 492 q 863 465 838 482 q 889 411 889 449 q 888 397 889 404 q 886 383 888 390 l 839 160 q 779 40 822 79 q 646 0 736 0 l 214 0 z "},"4":{"ha":863,"x_min":82,"x_max":893,"o":"m 511 0 l 549 182 l 82 182 l 117 344 l 626 940 l 893 940 l 767 343 l 892 343 l 857 182 l 732 182 l 694 0 l 511 0 m 674 767 l 304 343 l 583 343 l 674 767 z "},"5":{"ha":903,"x_min":104,"x_max":1000,"o":"m 236 0 q 135 25 165 0 q 104 103 104 50 q 111 160 104 125 l 142 306 l 336 306 l 318 221 q 316 208 317 214 q 315 197 315 203 q 323 178 315 183 q 351 174 331 174 l 615 174 q 658 183 647 174 q 675 221 668 193 l 708 378 q 710 390 710 385 q 711 399 711 394 q 675 424 711 424 l 167 424 l 276 940 l 1000 940 l 963 761 l 438 761 l 399 579 l 818 579 q 901 555 875 579 q 926 486 926 531 q 922 446 926 467 l 863 164 q 801 40 844 81 q 668 0 758 0 l 236 0 z "},"6":{"ha":892,"x_min":97,"x_max":990,"o":"m 231 0 q 128 24 158 0 q 97 101 97 49 q 106 164 97 128 l 235 776 q 296 900 253 860 q 429 940 339 940 l 854 940 q 958 914 926 940 q 990 835 990 888 q 985 781 990 807 l 957 650 l 768 650 l 782 718 q 784 731 783 725 q 785 742 785 736 q 774 765 785 758 q 738 771 764 771 l 472 771 q 431 760 443 771 q 413 718 419 750 l 378 554 l 806 554 q 888 531 863 554 q 914 464 914 507 q 913 442 914 453 q 908 421 911 432 l 854 164 q 794 40 836 81 q 660 0 751 0 l 231 0 m 711 364 q 713 382 713 371 q 674 410 713 410 l 347 410 l 311 236 q 307 206 307 217 q 317 181 307 188 q 346 175 326 175 l 621 175 q 664 188 650 175 q 685 236 678 200 l 711 364 z "},"7":{"ha":764,"x_min":111,"x_max":911,"o":"m 111 0 l 657 761 l 200 761 l 238 940 l 911 940 l 882 799 l 328 0 l 111 0 z "},"8":{"ha":894,"x_min":97,"x_max":988,"o":"m 231 0 q 128 25 160 0 q 97 103 97 50 q 104 160 97 125 l 151 383 q 199 459 163 436 q 285 486 236 482 q 222 509 244 490 q 200 568 200 528 q 204 604 200 583 l 242 781 q 305 901 258 861 q 440 940 351 940 l 850 940 q 956 914 924 940 q 988 835 988 888 q 982 781 988 807 l 944 604 q 898 519 932 546 q 814 486 864 492 q 880 465 854 482 q 906 411 906 449 q 905 397 906 404 q 903 383 904 390 l 856 160 q 796 40 839 79 q 663 0 753 0 l 231 0 m 779 724 q 781 735 781 731 q 782 743 782 739 q 740 771 782 771 l 478 771 q 438 761 450 771 q 419 724 425 751 l 392 590 q 390 581 390 585 q 389 572 389 576 q 429 547 389 547 l 694 547 q 734 557 722 547 q 751 590 746 567 l 779 724 m 707 372 q 708 388 708 378 q 699 408 708 403 q 667 414 690 414 l 401 414 q 360 405 374 414 q 342 372 346 396 l 311 224 q 309 212 310 217 q 308 203 308 207 q 350 174 308 174 l 615 174 q 657 185 643 174 q 676 224 671 196 l 707 372 z "},"9":{"ha":900,"x_min":101,"x_max":996,"o":"m 238 0 q 133 26 165 0 q 101 104 101 51 q 103 131 101 117 q 108 160 106 144 l 139 301 l 331 301 l 314 226 q 311 213 311 219 q 311 201 311 207 q 322 179 311 185 q 358 174 332 174 l 622 174 q 663 184 651 174 q 682 226 675 194 l 715 383 l 288 383 q 205 407 231 383 q 179 474 179 431 q 185 517 179 496 l 239 776 q 300 900 257 860 q 433 940 343 940 l 864 940 q 965 915 935 940 q 996 839 996 890 q 989 776 996 815 l 860 164 q 799 40 842 81 q 665 0 756 0 l 238 0 m 783 706 q 788 736 788 724 q 778 760 788 754 q 749 767 768 767 l 472 767 q 430 754 443 767 q 410 706 417 742 l 382 574 q 379 554 379 560 q 419 528 379 528 l 746 528 l 783 706 z "},"\u0017":{"ha":383,"x_min":0,"x_max":0,"o":""}," ":{"ha":383,"x_min":0,"x_max":0,"o":""},"!":{"ha":361,"x_min":92,"x_max":468,"o":"m 92 0 l 136 210 l 314 210 l 269 0 l 92 0 m 153 293 l 290 940 l 468 940 l 331 293 l 153 293 z "},"\"":{"ha":551,"x_min":196,"x_max":685,"o":"m 196 568 m 196 568 l 288 997 l 428 997 l 336 568 l 196 568 m 453 568 l 544 997 l 685 997 l 593 568 l 453 568 z "},"#":{"ha":747,"x_min":100,"x_max":843,"o":"m 450 0 l 504 256 l 350 256 l 296 0 l 182 0 l 236 256 l 100 256 l 121 356 l 257 356 l 306 585 l 169 585 l 190 685 l 326 685 l 381 940 l 494 940 l 440 685 l 594 685 l 649 940 l 763 940 l 708 685 l 843 685 l 822 585 l 688 585 l 639 356 l 774 356 l 753 256 l 618 256 l 564 0 l 450 0 m 574 585 l 419 585 l 371 356 l 525 356 l 574 585 z "},"$":{"ha":740,"x_min":103,"x_max":843,"o":"m 331 0 l 357 129 l 103 129 l 132 267 l 514 267 q 554 276 543 267 q 571 308 565 285 l 590 401 q 592 415 592 407 q 563 438 592 438 l 278 438 q 208 456 229 438 q 186 507 186 475 q 190 538 186 521 l 226 710 q 274 802 239 772 q 383 832 310 832 l 507 832 l 529 940 l 667 940 l 644 832 l 843 832 l 817 707 l 432 707 q 397 698 408 707 q 382 667 386 689 l 364 585 q 362 576 363 579 q 361 568 361 572 q 368 552 361 557 q 394 547 375 547 l 679 547 q 749 528 728 547 q 769 476 769 508 q 769 463 769 469 q 767 449 768 456 l 725 251 q 676 159 711 189 q 569 129 642 129 l 494 129 l 468 0 l 331 0 z "},"%":{"ha":1083,"x_min":181,"x_max":1101,"o":"m 181 0 m 249 485 q 197 497 213 485 q 181 535 181 510 q 185 567 181 547 l 250 872 q 280 934 258 914 q 349 954 301 954 l 572 954 q 624 942 608 954 q 640 901 640 929 q 640 888 640 894 q 638 872 639 881 l 572 567 q 540 505 563 525 q 472 485 518 485 l 249 485 m 504 821 l 504 829 q 485 844 504 844 l 386 844 q 361 822 365 844 l 318 619 q 317 611 317 617 q 335 599 317 599 l 433 599 q 461 619 457 599 l 504 821 m 204 0 l 969 940 l 1081 940 l 315 0 l 204 0 m 710 -14 q 658 -1 674 -14 q 642 36 642 11 q 646 68 642 49 l 711 374 q 741 435 719 415 q 810 456 763 456 l 1033 456 q 1085 443 1069 456 q 1101 403 1101 431 q 1101 389 1101 396 q 1099 374 1100 382 l 1033 68 q 1001 6 1024 26 q 933 -14 979 -14 l 710 -14 m 965 322 l 965 331 q 946 346 965 346 l 847 346 q 822 324 826 346 l 779 121 q 778 113 778 118 q 796 100 778 100 l 894 100 q 922 121 918 100 l 965 322 z "},"&":{"ha":926,"x_min":97,"x_max":1008,"o":"m 758 0 q 649 13 690 0 q 597 64 607 26 q 541 14 576 28 q 463 0 506 0 l 229 0 q 128 25 158 0 q 97 103 97 50 q 104 160 97 125 l 154 396 q 202 472 165 449 q 288 499 239 494 q 225 522 247 503 q 203 581 203 540 q 207 617 203 596 l 242 781 q 305 901 258 861 q 439 940 351 940 l 885 940 l 850 776 l 481 776 q 442 765 454 776 q 424 722 431 753 l 396 593 q 394 583 394 588 q 393 575 393 579 q 402 555 393 560 q 432 550 411 550 l 663 550 l 683 649 l 850 649 l 829 550 l 1008 550 l 978 408 l 799 408 l 761 231 q 757 206 757 215 q 768 184 757 189 q 803 179 779 179 l 921 179 l 883 0 l 758 0 m 632 408 l 401 408 q 363 398 375 408 q 346 363 351 388 l 318 233 q 315 220 315 226 q 315 210 315 214 q 354 179 315 179 l 583 179 l 632 408 z "},"'":{"ha":294,"x_min":196,"x_max":428,"o":"m 196 568 l 288 997 l 428 997 l 336 568 l 196 568 z "},"(":{"ha":526,"x_min":151,"x_max":719,"o":"m 435 -201 q 226 -144 301 -199 q 151 32 151 -90 q 164 139 151 78 l 303 796 q 358 950 321 886 q 449 1055 396 1014 q 571 1115 503 1096 q 719 1138 639 1135 l 697 1033 q 594 1015 639 1029 q 517 974 550 1001 q 463 903 485 946 q 428 796 442 860 l 289 139 q 281 91 283 113 q 278 50 278 69 q 322 -58 278 -26 q 457 -97 365 -90 l 435 -201 z "},")":{"ha":528,"x_min":4,"x_max":571,"o":"m 26 -97 q 128 -79 85 -93 q 205 -38 172 -65 q 259 32 238 -11 q 294 139 281 75 l 433 796 q 444 885 444 849 q 401 994 444 961 q 267 1033 357 1026 l 289 1138 q 497 1080 424 1135 q 571 903 571 1025 q 567 850 571 878 q 557 790 564 822 l 421 144 q 365 -12 401 53 q 274 -118 328 -76 q 153 -180 221 -160 q 4 -201 85 -200 l 26 -97 z "},"*":{"ha":749,"x_min":161,"x_max":849,"o":"m 665 342 l 506 574 l 346 340 l 260 406 l 431 626 l 161 706 l 194 810 l 460 714 l 450 996 l 558 996 l 550 715 l 815 810 l 849 707 l 581 628 l 753 406 l 665 342 z "},"+":{"ha":878,"x_min":167,"x_max":917,"o":"m 403 122 l 468 425 l 167 425 l 192 546 l 493 546 l 557 847 l 679 847 l 615 546 l 917 546 l 892 425 l 590 425 l 525 122 l 403 122 z "},",":{"ha":360,"x_min":14,"x_max":325,"o":"m 14 -136 l 147 210 l 325 210 l 169 -136 l 14 -136 z "},"-":{"ha":535,"x_min":132,"x_max":604,"o":"m 132 419 l 157 536 l 604 536 l 579 419 l 132 419 z "},".":{"ha":332,"x_min":78,"x_max":300,"o":"m 78 0 l 122 210 l 300 210 l 256 0 l 78 0 z "},"/":{"ha":574,"x_min":35,"x_max":740,"o":"m 35 -40 l 613 997 l 740 997 l 163 -40 l 35 -40 z "},":":{"ha":350,"x_min":86,"x_max":413,"o":"m 86 0 l 131 210 l 308 210 l 264 0 l 86 0 m 190 494 l 235 704 l 413 704 l 368 494 l 190 494 z "},";":{"ha":365,"x_min":10,"x_max":425,"o":"m 203 494 l 247 704 l 425 704 l 381 494 l 203 494 m 10 -136 l 143 210 l 321 210 l 165 -136 l 10 -136 z "},"<":{"ha":878,"x_min":164,"x_max":974,"o":"m 164 415 l 183 504 l 974 815 l 946 683 l 371 460 l 851 236 l 824 106 l 164 415 z "},"=":{"ha":878,"x_min":131,"x_max":951,"o":"m 131 260 l 157 381 l 882 381 l 856 260 l 131 260 m 201 589 l 226 711 l 951 711 l 926 589 l 201 589 z "},">":{"ha":878,"x_min":99,"x_max":908,"o":"m 99 106 l 126 236 l 701 460 l 221 683 l 249 815 l 908 504 l 889 415 l 99 106 z "},"?":{"ha":871,"x_min":197,"x_max":989,"o":"m 596 399 q 565 391 574 399 q 551 360 557 383 l 536 293 l 361 293 l 389 422 q 438 513 401 481 q 539 544 475 544 l 688 544 q 731 554 719 544 q 749 594 742 564 l 775 715 q 777 728 776 722 q 778 740 778 735 q 767 764 778 757 q 732 771 757 771 l 461 771 q 421 759 433 771 q 401 718 408 747 l 388 650 l 197 650 l 225 781 q 288 901 242 861 q 422 940 335 940 l 856 940 q 958 915 928 940 q 989 839 989 890 q 982 776 989 815 l 936 557 q 881 438 919 478 q 763 399 842 399 l 596 399 m 299 0 l 343 210 l 521 210 l 476 0 l 299 0 z "},"@":{"ha":858,"x_min":40,"x_max":942,"o":"m 140 -237 q 63 -219 86 -237 q 40 -161 40 -201 q 46 -111 40 -137 l 219 706 q 266 802 233 772 q 368 832 299 832 l 843 832 q 919 814 896 832 q 942 757 942 796 q 935 706 942 738 l 824 182 q 778 85 810 115 q 678 56 747 56 l 464 56 q 386 74 410 56 q 363 133 363 93 q 364 156 363 144 q 368 182 365 168 l 424 440 q 474 538 439 508 q 572 567 510 567 l 713 567 l 689 457 l 588 457 q 557 448 567 457 q 542 415 547 439 l 499 211 q 494 188 494 196 q 525 165 494 165 l 657 165 q 691 175 681 165 q 707 210 701 185 l 806 678 q 808 690 807 685 q 808 699 808 694 q 779 721 808 721 l 393 721 q 360 711 369 721 q 346 678 351 701 l 190 -54 q 188 -67 189 -61 q 188 -76 188 -72 q 194 -94 188 -89 q 221 -99 201 -99 l 751 -99 l 722 -237 l 140 -237 z "},"A":{"ha":883,"x_min":22,"x_max":860,"o":"m 647 0 l 638 146 l 299 146 l 226 0 l 22 0 l 511 940 l 788 940 l 860 0 l 647 0 m 601 751 l 374 301 l 631 301 l 601 751 z "},"B":{"ha":922,"x_min":78,"x_max":1011,"o":"m 78 0 l 225 699 l 436 699 l 404 547 l 699 547 q 741 557 729 547 q 758 590 753 567 l 782 704 q 786 729 786 718 q 776 752 786 746 q 743 758 767 758 l 239 758 l 276 940 l 875 940 q 979 915 947 940 q 1011 836 1011 889 q 1009 810 1011 824 q 1004 781 1007 796 l 967 604 q 922 519 954 546 q 842 486 890 492 q 908 465 882 482 q 933 411 933 449 q 933 397 933 404 q 931 383 932 390 l 883 160 q 823 40 867 79 q 690 0 779 0 l 78 0 m 717 363 q 719 375 718 369 q 719 385 719 381 q 708 408 719 403 q 674 414 697 414 l 376 414 l 328 185 l 625 185 q 670 195 657 185 q 690 239 683 206 l 717 363 z "},"C":{"ha":814,"x_min":97,"x_max":957,"o":"m 229 0 q 128 25 158 0 q 97 103 97 50 q 99 131 97 117 q 104 164 100 146 l 233 776 q 295 900 251 860 q 428 940 339 940 l 957 940 l 918 753 l 493 753 q 448 742 460 753 q 429 700 436 732 l 331 242 q 328 230 329 235 q 328 219 328 225 q 338 197 328 204 q 374 190 347 190 l 801 190 l 761 0 l 229 0 z "},"D":{"ha":939,"x_min":78,"x_max":1025,"o":"m 78 0 l 224 686 l 432 686 l 325 183 l 621 183 q 714 274 694 183 l 797 665 q 801 697 801 682 q 742 756 801 756 l 238 756 l 276 940 l 819 940 q 1025 774 1025 940 q 1017 700 1025 739 l 918 240 q 819 61 893 122 q 621 0 746 0 l 78 0 z "},"E":{"ha":846,"x_min":71,"x_max":967,"o":"m 71 0 l 217 688 l 435 688 l 401 535 l 747 535 l 715 385 l 369 385 l 328 188 l 807 188 l 768 0 l 71 0 m 231 757 l 269 940 l 967 940 l 928 757 l 231 757 z "},"F":{"ha":824,"x_min":76,"x_max":971,"o":"m 374 374 l 294 0 l 76 0 l 222 686 l 440 686 l 407 531 l 761 531 l 728 374 l 374 374 m 236 756 l 275 940 l 971 940 l 932 756 l 236 756 z "},"G":{"ha":896,"x_min":97,"x_max":1010,"o":"m 231 0 q 128 25 160 0 q 97 101 97 50 q 106 164 97 128 l 235 776 q 296 900 253 860 q 429 940 339 940 l 1010 940 l 971 753 l 482 753 q 444 743 454 753 q 426 701 433 733 l 325 222 q 322 204 322 208 q 331 185 322 190 q 360 181 339 181 l 661 181 l 707 394 l 521 394 l 553 546 l 936 546 l 821 0 l 231 0 z "},"H":{"ha":946,"x_min":76,"x_max":1065,"o":"m 867 0 l 656 0 l 738 389 l 369 389 l 288 0 l 76 0 l 275 940 l 486 940 l 407 565 l 775 565 l 854 940 l 1065 940 l 867 0 z "},"I":{"ha":375,"x_min":81,"x_max":490,"o":"m 81 0 l 279 940 l 490 940 l 292 0 l 81 0 z "},"J":{"ha":757,"x_min":39,"x_max":878,"o":"m 39 0 l 79 190 l 458 190 q 501 201 490 190 q 518 240 511 211 l 628 757 l 464 757 l 503 940 l 878 940 l 714 164 q 653 40 696 81 q 521 0 610 0 l 39 0 z "},"K":{"ha":981,"x_min":76,"x_max":1090,"o":"m 694 0 l 765 335 q 769 368 769 356 q 758 394 769 388 q 715 400 746 400 l 407 400 l 426 496 l 860 940 l 1090 940 l 706 556 l 856 556 q 996 432 996 556 q 988 364 996 401 l 911 0 l 694 0 m 76 0 l 275 940 l 486 940 l 288 0 l 76 0 z "},"L":{"ha":749,"x_min":75,"x_max":746,"o":"m 706 0 l 75 0 l 274 940 l 485 940 l 326 190 l 746 190 l 706 0 z "},"M":{"ha":1125,"x_min":74,"x_max":1247,"o":"m 875 0 l 996 571 l 647 0 l 482 0 l 369 571 l 249 0 l 74 0 l 272 940 l 500 940 l 622 286 l 1028 940 l 1247 940 l 1049 0 l 875 0 z "},"N":{"ha":976,"x_min":75,"x_max":1096,"o":"m 757 0 l 401 617 l 271 0 l 75 0 l 274 940 l 472 940 l 781 379 l 899 940 l 1096 940 l 897 0 l 757 0 z "},"O":{"ha":928,"x_min":97,"x_max":1029,"o":"m 231 0 q 128 25 160 0 q 97 101 97 50 q 106 164 97 128 l 235 776 q 296 900 253 860 q 429 940 339 940 l 897 940 q 999 915 968 940 q 1029 838 1029 890 q 1027 808 1029 824 q 1022 776 1025 793 l 893 164 q 831 40 875 81 q 699 0 788 0 l 231 0 m 796 703 q 798 715 797 710 q 799 725 799 721 q 750 757 799 757 l 488 757 q 448 746 460 757 q 429 703 436 735 l 329 235 q 326 217 326 221 q 367 188 326 188 l 629 188 q 676 199 663 188 q 696 235 690 210 l 796 703 z "},"P":{"ha":882,"x_min":78,"x_max":997,"o":"m 353 303 l 289 0 l 78 0 l 224 688 l 435 688 l 389 474 l 679 474 q 716 485 706 474 q 733 528 726 496 l 774 713 q 776 732 776 726 q 767 752 776 747 q 739 757 758 757 l 238 757 l 276 940 l 865 940 q 967 915 936 940 q 997 838 997 890 q 995 809 997 824 q 990 776 993 794 l 925 467 q 864 343 907 383 q 731 303 821 303 l 353 303 z "},"Q":{"ha":935,"x_min":108,"x_max":1029,"o":"m 619 -133 l 797 706 q 799 718 799 713 q 800 728 800 724 q 790 749 800 743 q 756 756 781 756 l 482 756 q 447 745 458 756 q 429 706 436 735 l 340 286 q 338 275 339 279 q 338 267 338 271 q 372 242 338 242 l 629 242 l 590 56 l 242 56 q 140 81 171 56 q 108 157 108 106 q 117 219 108 183 l 235 776 q 296 900 253 860 q 429 940 339 940 l 897 940 q 999 915 968 940 q 1029 838 1029 890 q 1027 808 1029 824 q 1022 776 1025 793 l 829 -133 l 619 -133 z "},"R":{"ha":921,"x_min":76,"x_max":1008,"o":"m 638 0 l 701 307 q 703 319 703 314 q 704 328 704 324 q 665 350 704 350 l 361 350 l 288 0 l 76 0 l 222 688 l 433 688 l 394 506 l 683 506 q 724 515 714 506 q 742 554 735 525 l 775 707 q 777 719 776 714 q 778 729 778 725 q 768 751 778 746 q 735 757 758 757 l 236 757 l 275 940 l 872 940 q 976 915 944 940 q 1008 836 1008 889 q 1006 810 1008 824 q 1001 781 1004 796 l 958 576 q 903 474 943 504 q 814 439 863 444 q 889 419 858 436 q 919 357 919 401 q 919 342 919 350 q 917 326 919 335 l 849 0 l 638 0 z "},"S":{"ha":897,"x_min":72,"x_max":1017,"o":"m 72 0 l 111 183 l 613 183 q 649 193 638 183 q 667 229 661 203 l 694 360 q 696 375 696 365 q 660 400 696 400 l 289 400 q 206 424 232 400 q 181 493 181 449 q 185 533 181 510 l 236 776 q 297 900 254 860 q 432 940 340 940 l 1017 940 l 979 761 l 481 761 q 449 751 458 761 q 433 717 439 742 l 407 593 q 405 583 406 588 q 404 575 404 579 q 435 554 404 554 l 811 554 q 895 529 869 554 q 921 460 921 504 q 917 421 921 442 l 863 164 q 801 40 844 81 q 668 0 758 0 l 72 0 z "},"T":{"ha":740,"x_min":194,"x_max":901,"o":"m 474 0 l 263 0 l 422 756 l 194 756 l 233 940 l 901 940 l 863 756 l 633 756 l 474 0 z "},"U":{"ha":938,"x_min":101,"x_max":1061,"o":"m 235 0 q 132 25 163 0 q 101 103 101 50 q 103 132 101 117 q 108 164 104 147 l 272 940 l 483 940 l 335 238 q 331 213 331 221 q 340 192 331 197 q 372 188 350 188 l 650 188 q 690 197 678 188 q 710 238 703 206 l 858 940 l 1061 940 l 897 164 q 835 40 879 81 q 703 0 792 0 l 235 0 z "},"V":{"ha":883,"x_min":221,"x_max":1058,"o":"m 313 0 l 221 940 l 439 940 l 492 254 l 849 940 l 1058 940 l 550 0 l 313 0 z "},"W":{"ha":1386,"x_min":221,"x_max":1561,"o":"m 869 0 l 835 671 l 493 0 l 257 0 l 221 940 l 438 940 l 453 251 l 793 940 l 1004 940 l 1033 253 l 1354 940 l 1561 940 l 1107 0 l 869 0 z "},"X":{"ha":919,"x_min":15,"x_max":1093,"o":"m 671 0 l 538 381 l 240 0 l 15 0 l 421 500 l 238 940 l 467 940 l 597 593 l 875 940 l 1093 940 l 715 483 l 904 0 l 671 0 z "},"Y":{"ha":857,"x_min":217,"x_max":1036,"o":"m 322 0 l 404 388 l 217 940 l 438 940 l 553 569 l 825 940 l 1036 940 l 615 388 l 533 0 l 322 0 z "},"Z":{"ha":836,"x_min":68,"x_max":967,"o":"m 68 0 l 104 171 l 674 756 l 238 756 l 276 940 l 967 940 l 933 778 l 372 188 l 807 188 l 768 0 l 68 0 z "},"[":{"ha":431,"x_min":61,"x_max":624,"o":"m 61 -201 l 346 1138 l 624 1138 l 601 1038 l 449 1038 l 207 -99 l 360 -99 l 339 -201 l 61 -201 z "},"\\":{"ha":574,"x_min":256,"x_max":519,"o":"m 392 -40 l 256 997 l 383 997 l 519 -40 l 392 -40 z "},"]":{"ha":431,"x_min":6,"x_max":568,"o":"m 6 -201 l 26 -99 l 182 -99 l 424 1038 l 268 1038 l 290 1138 l 568 1138 l 283 -201 l 6 -201 z "},"^":{"ha":682,"x_min":143,"x_max":703,"o":"m 571 394 l 499 747 l 275 394 l 143 394 l 494 940 l 583 940 l 703 394 l 571 394 z "},"_":{"ha":853,"x_min":-36,"x_max":819,"o":"m -36 -222 l -11 -107 l 819 -107 l 794 -222 l -36 -222 z "},"`":{"ha":517,"x_min":304,"x_max":607,"o":"m 483 790 l 304 1074 l 461 1074 l 607 790 l 483 790 z "},"a":{"ha":875,"x_min":92,"x_max":931,"o":"m 192 0 q 115 20 139 0 q 92 81 92 40 q 99 132 92 100 l 133 299 q 153 364 142 338 q 181 406 164 390 q 221 427 197 421 q 278 433 244 433 l 635 433 l 610 314 l 354 314 q 326 307 335 314 q 314 278 318 300 l 299 204 q 297 193 297 197 q 296 185 296 189 q 322 167 296 167 l 647 167 l 721 511 q 722 526 722 517 q 715 544 722 538 q 689 550 708 550 l 213 550 l 244 703 l 819 703 q 906 683 881 703 q 931 619 931 663 q 924 565 931 600 l 804 0 l 192 0 z "},"b":{"ha":869,"x_min":72,"x_max":926,"o":"m 72 0 l 283 997 l 478 997 l 303 172 l 606 172 q 635 181 626 172 q 650 211 644 189 l 710 496 q 713 514 713 510 q 705 531 713 526 q 682 535 697 535 l 449 535 l 485 703 l 815 703 q 926 610 926 703 q 925 589 926 600 q 921 565 924 578 l 831 138 q 778 33 815 67 q 667 0 742 0 l 72 0 z "},"c":{"ha":753,"x_min":90,"x_max":844,"o":"m 200 0 q 116 20 142 0 q 90 83 90 40 q 97 138 90 103 l 188 565 q 238 669 203 636 q 349 703 274 703 l 844 703 l 808 532 l 413 532 q 381 525 389 532 q 367 494 372 518 l 307 214 q 305 204 306 208 q 304 196 304 200 q 336 175 304 175 l 732 175 l 696 0 l 200 0 z "},"d":{"ha":872,"x_min":90,"x_max":1008,"o":"m 200 0 q 116 20 142 0 q 90 83 90 40 q 97 138 90 103 l 188 565 q 242 669 203 636 q 349 703 282 703 l 681 703 l 644 535 l 413 535 q 381 527 390 535 q 367 496 372 519 l 307 211 q 304 193 304 197 q 336 172 304 172 l 638 172 l 813 997 l 1008 997 l 797 0 l 200 0 z "},"e":{"ha":858,"x_min":83,"x_max":917,"o":"m 194 0 q 109 20 135 0 q 83 83 83 40 q 90 138 83 103 l 181 565 q 231 669 196 636 q 343 703 267 703 l 818 703 q 894 683 871 703 q 917 622 917 663 q 911 571 917 597 l 853 294 l 385 294 l 408 411 l 692 411 l 713 506 q 714 524 714 513 q 708 539 714 535 q 685 543 701 543 l 406 543 q 374 535 382 543 q 360 504 365 528 l 294 201 q 292 190 293 194 q 292 181 292 185 q 299 164 292 168 q 324 160 306 160 l 797 160 l 764 0 l 194 0 z "},"f":{"ha":482,"x_min":74,"x_max":658,"o":"m 74 0 l 250 836 q 309 961 269 925 q 417 997 349 997 l 658 997 l 626 846 l 481 846 q 439 810 446 846 l 417 703 l 590 703 l 558 550 l 385 550 l 268 0 l 74 0 z "},"g":{"ha":851,"x_min":22,"x_max":938,"o":"m 22 -294 l 58 -126 l 528 -126 q 560 -118 551 -126 q 575 -86 569 -110 l 707 535 l 404 535 q 372 526 381 535 q 358 496 363 518 l 294 196 q 293 181 293 189 q 325 158 293 158 l 558 158 l 525 0 l 192 0 q 108 20 133 0 q 82 83 82 40 q 89 138 82 103 l 179 565 q 230 669 194 636 q 340 703 265 703 l 938 703 l 754 -157 q 703 -261 739 -228 q 592 -294 668 -294 l 22 -294 z "},"h":{"ha":904,"x_min":75,"x_max":956,"o":"m 638 0 l 742 496 q 744 513 744 510 q 710 535 744 535 l 419 535 q 389 527 399 535 q 374 496 379 519 l 269 0 l 75 0 l 286 997 l 481 997 l 401 626 q 462 685 429 667 q 539 703 494 703 l 847 703 q 930 683 904 703 q 956 618 956 664 q 950 565 956 592 l 831 0 l 638 0 z "},"i":{"ha":351,"x_min":78,"x_max":485,"o":"m 78 0 l 226 703 l 421 703 l 272 0 l 78 0 m 244 786 l 289 997 l 485 997 l 440 786 l 244 786 z "},"j":{"ha":371,"x_min":-165,"x_max":499,"o":"m -165 -294 l -129 -126 l 29 -126 q 60 -118 51 -126 q 74 -90 69 -110 l 242 703 l 436 703 l 253 -157 q 202 -261 238 -228 q 92 -294 167 -294 l -165 -294 m 258 786 l 303 997 l 499 997 l 454 786 l 258 786 z "},"k":{"ha":897,"x_min":74,"x_max":960,"o":"m 74 0 l 285 997 l 481 997 l 269 0 l 74 0 m 635 0 l 683 233 q 685 247 685 240 q 686 258 686 253 q 676 282 686 275 q 643 289 667 289 l 365 289 l 381 360 l 746 703 l 960 703 l 651 421 l 786 421 q 892 324 892 421 q 886 272 892 299 l 829 0 l 635 0 z "},"l":{"ha":344,"x_min":75,"x_max":481,"o":"m 75 0 l 286 997 l 481 997 l 269 0 l 75 0 z "},"m":{"ha":1300,"x_min":71,"x_max":1353,"o":"m 1033 0 l 1138 496 q 1140 506 1139 501 q 1140 514 1140 510 q 1106 535 1140 535 l 897 535 q 865 527 875 535 q 851 500 856 519 l 746 0 l 551 0 l 656 496 q 658 506 657 501 q 658 514 658 510 q 625 535 658 535 l 415 535 q 385 527 394 535 q 369 496 375 519 l 265 0 l 71 0 l 219 703 l 407 703 l 390 626 q 528 703 440 703 l 763 703 q 842 685 815 703 q 869 626 868 667 q 933 685 901 667 q 1010 703 965 703 l 1244 703 q 1326 683 1300 703 q 1353 617 1353 663 q 1347 565 1353 592 l 1228 0 l 1033 0 z "},"n":{"ha":901,"x_min":71,"x_max":951,"o":"m 633 0 l 738 496 q 740 513 740 510 q 706 535 740 535 l 415 535 q 385 527 394 535 q 369 496 375 519 l 265 0 l 71 0 l 219 703 l 407 703 l 390 626 q 528 703 440 703 l 843 703 q 926 683 900 703 q 951 618 951 664 q 946 565 951 592 l 826 0 l 633 0 z "},"o":{"ha":879,"x_min":90,"x_max":938,"o":"m 200 0 q 116 20 142 0 q 90 83 90 40 q 97 138 90 103 l 188 565 q 238 669 203 636 q 349 703 274 703 l 826 703 q 913 683 888 703 q 938 619 938 663 q 931 565 938 600 l 840 138 q 790 33 825 67 q 678 0 754 0 l 200 0 m 721 496 q 724 513 724 510 q 686 535 724 535 l 411 535 q 380 527 389 535 q 367 496 371 519 l 307 210 q 305 200 306 204 q 304 192 304 196 q 335 172 304 172 l 610 172 q 646 181 635 172 q 661 210 657 189 l 721 496 z "},"p":{"ha":867,"x_min":8,"x_max":926,"o":"m 336 0 l 371 167 l 604 167 q 634 174 625 167 q 649 206 643 182 l 710 490 q 711 508 711 497 q 705 526 711 521 q 682 531 699 531 l 379 531 l 203 -294 l 8 -294 l 221 703 l 815 703 q 901 682 876 703 q 926 618 926 661 q 921 565 926 592 l 831 138 q 774 33 815 65 q 667 0 733 0 l 336 0 z "},"q":{"ha":869,"x_min":92,"x_max":946,"o":"m 538 -294 l 714 531 l 413 531 q 381 522 389 531 q 367 490 372 514 l 306 206 q 303 188 303 192 q 310 171 303 175 q 335 167 318 167 l 567 167 l 532 0 l 200 0 q 92 90 92 0 q 97 138 92 114 l 188 565 q 238 669 203 636 q 349 703 274 703 l 946 703 l 733 -294 l 538 -294 z "},"r":{"ha":626,"x_min":71,"x_max":733,"o":"m 71 0 l 219 703 l 408 703 l 392 626 q 451 685 418 667 q 529 703 483 703 l 733 703 l 697 535 l 417 535 q 385 527 396 535 q 369 496 375 519 l 265 0 l 71 0 z "},"s":{"ha":863,"x_min":72,"x_max":931,"o":"m 72 0 l 106 161 l 588 161 q 617 168 610 161 q 629 194 625 175 l 644 264 q 646 275 646 268 q 618 293 646 293 l 242 293 q 173 312 194 293 q 151 363 151 331 q 156 393 151 376 l 194 581 q 242 673 207 643 q 350 703 276 703 l 931 703 l 897 546 l 418 546 q 386 538 396 546 q 372 508 376 529 l 360 450 q 358 438 358 446 q 388 415 358 415 l 768 415 q 838 396 817 415 q 860 344 860 376 q 859 331 860 338 q 857 317 858 324 l 815 122 q 767 30 801 60 q 658 0 732 0 l 72 0 z "},"t":{"ha":475,"x_min":93,"x_max":583,"o":"m 203 0 q 119 20 144 0 q 93 83 93 40 q 100 138 93 103 l 261 899 l 456 899 l 414 703 l 583 703 l 551 550 l 382 550 l 306 190 q 303 172 303 176 q 333 153 303 153 l 461 153 l 429 0 l 203 0 z "},"u":{"ha":889,"x_min":93,"x_max":965,"o":"m 629 0 l 644 75 q 585 17 618 35 q 508 0 553 0 l 203 0 q 120 19 147 0 q 93 85 93 39 q 100 138 93 106 l 219 703 l 414 703 l 308 207 q 306 189 306 193 q 339 167 306 167 l 618 167 q 650 175 640 167 q 665 207 660 183 l 771 703 l 965 703 l 817 0 l 629 0 z "},"v":{"ha":838,"x_min":168,"x_max":967,"o":"m 293 0 l 168 703 l 378 703 l 458 192 l 767 703 l 967 703 l 526 0 l 293 0 z "},"w":{"ha":1251,"x_min":168,"x_max":1381,"o":"m 768 0 l 725 488 l 458 0 l 217 0 l 168 703 l 382 703 l 400 200 l 664 703 l 893 703 l 931 201 l 1175 703 l 1381 703 l 1014 0 l 768 0 z "},"x":{"ha":850,"x_min":13,"x_max":978,"o":"m 600 0 l 478 269 l 238 0 l 13 0 l 349 375 l 183 703 l 414 703 l 535 451 l 758 703 l 978 703 l 665 363 l 838 0 l 600 0 z "},"y":{"ha":847,"x_min":21,"x_max":935,"o":"m 21 -294 l 57 -126 l 524 -126 q 556 -118 547 -126 q 571 -86 565 -110 l 590 0 l 190 0 q 106 20 132 0 q 81 83 81 40 q 88 138 81 103 l 207 703 l 401 703 l 294 199 q 292 189 293 193 q 292 181 292 185 q 325 158 292 158 l 624 158 l 739 703 l 935 703 l 751 -157 q 700 -261 736 -228 q 588 -294 664 -294 l 21 -294 z "},"z":{"ha":793,"x_min":65,"x_max":875,"o":"m 65 0 l 97 154 l 581 539 l 181 539 l 215 703 l 875 703 l 846 564 l 368 167 l 761 167 l 726 0 l 65 0 z "},"{":{"ha":506,"x_min":154,"x_max":697,"o":"m 413 -201 q 218 -150 282 -199 q 154 0 154 -101 q 156 46 154 22 q 165 96 158 69 l 221 354 q 223 367 222 361 q 224 378 224 372 q 175 426 224 426 l 156 426 l 172 508 l 192 508 q 241 529 219 508 q 269 582 263 550 l 324 840 q 447 1063 356 992 q 697 1138 538 1135 l 675 1033 q 522 983 578 1031 q 447 840 467 935 l 393 582 q 359 503 382 528 q 300 468 336 479 q 337 445 324 461 q 350 399 350 429 q 344 354 350 376 l 289 96 q 283 63 285 78 q 282 33 282 47 q 435 -97 282 -93 l 413 -201 z "},"|":{"ha":340,"x_min":64,"x_max":474,"o":"m 64 -201 l 349 1138 l 474 1138 l 189 -201 l 64 -201 z "},"}":{"ha":508,"x_min":6,"x_max":546,"o":"m 28 -97 q 254 94 214 -92 l 297 296 q 337 410 313 364 q 401 468 361 456 q 354 539 354 482 q 357 572 354 554 q 364 610 360 589 l 413 839 q 417 871 415 856 q 419 901 419 886 q 268 1033 419 1028 l 290 1138 q 485 1085 425 1135 q 544 932 544 1035 q 531 811 544 875 l 482 582 q 479 569 479 575 q 479 557 479 563 q 526 508 479 508 l 546 508 l 529 426 l 510 426 q 460 407 482 426 q 432 353 439 388 l 383 124 q 338 -19 367 42 q 263 -119 308 -79 q 154 -180 218 -160 q 6 -201 90 -200 l 28 -97 z "},"~":{"ha":875,"x_min":161,"x_max":918,"o":"m 889 438 q 843 413 868 424 q 791 397 818 403 q 737 388 764 390 q 688 385 710 385 q 601 397 640 385 q 525 423 561 408 q 452 449 489 438 q 375 461 415 461 q 274 447 326 461 q 161 400 221 433 l 189 533 q 235 558 210 547 q 288 575 261 568 q 340 585 314 582 q 389 588 367 588 q 474 575 435 588 q 549 548 513 563 q 624 522 586 533 q 704 510 661 510 q 806 524 753 510 q 918 571 858 538 l 889 438 z "}," ":{"ha":383,"x_min":0,"x_max":0,"o":""},"¡":{"ha":361,"x_min":92,"x_max":468,"o":"m 92 0 m 468 940 l 424 731 l 246 731 l 290 940 l 468 940 m 407 647 l 269 0 l 92 0 l 229 647 l 407 647 z "},"¢":{"ha":683,"x_min":119,"x_max":797,"o":"m 490 131 l 464 0 l 325 0 l 351 131 l 229 131 q 145 151 171 131 q 119 214 119 171 q 126 268 119 233 l 217 696 q 268 800 232 767 q 379 833 304 833 l 501 833 l 524 940 l 663 940 l 640 833 l 797 833 l 764 676 l 428 676 q 379 638 388 676 l 315 335 q 313 318 313 321 q 346 293 313 293 l 682 293 l 647 131 l 490 131 z "},"£":{"ha":876,"x_min":140,"x_max":911,"o":"m 147 0 l 233 408 l 140 408 l 168 536 l 261 536 l 317 803 q 367 907 332 874 q 478 940 403 940 l 911 940 l 874 761 l 550 761 q 519 753 529 761 q 506 724 510 744 l 467 536 l 772 536 l 744 408 l 439 408 l 392 183 l 849 183 l 810 0 l 147 0 z "},"¤":{"ha":778,"x_min":111,"x_max":864,"o":"m 567 293 l 328 293 l 161 151 l 111 215 l 281 356 l 331 594 l 222 732 l 299 797 l 406 657 l 644 657 l 813 797 l 864 732 l 693 594 l 643 356 l 753 215 l 675 151 l 567 293 m 607 575 l 408 575 l 367 374 l 565 374 l 607 575 z "},"¥":{"ha":800,"x_min":50,"x_max":975,"o":"m 525 126 l 499 0 l 300 0 l 326 126 l 50 126 l 71 222 l 347 222 l 367 315 l 90 315 l 111 413 l 386 413 l 390 438 l 221 940 l 419 940 l 524 575 l 788 940 l 975 940 l 590 438 l 586 413 l 864 413 l 843 315 l 565 315 l 546 222 l 824 222 l 803 126 l 525 126 z "},"¦":{"ha":351,"x_min":61,"x_max":486,"o":"m 229 594 l 346 1138 l 486 1138 l 369 594 l 229 594 m 61 -201 l 176 342 l 317 342 l 201 -201 l 61 -201 z "},"§":{"ha":829,"x_min":14,"x_max":944,"o":"m 14 -356 l 44 -210 l 504 -210 q 539 -201 529 -210 q 556 -165 549 -193 l 592 0 l 210 0 q 126 20 151 0 q 100 83 100 40 q 102 109 100 96 q 107 138 104 122 l 247 803 q 298 907 263 874 q 408 940 333 940 l 944 940 l 915 801 l 446 801 q 413 792 422 801 q 399 760 403 782 l 364 597 l 744 597 q 829 576 804 597 q 854 513 854 556 q 849 460 854 486 l 704 -218 q 653 -322 689 -289 q 542 -356 617 -356 l 14 -356 m 681 424 q 682 438 682 429 q 650 457 682 457 l 333 457 l 276 186 q 274 174 275 179 q 274 167 274 169 q 281 151 274 156 q 307 146 288 146 l 622 146 l 681 424 z "},"¨":{"ha":729,"x_min":244,"x_max":863,"o":"m 643 786 l 688 997 l 863 997 l 818 786 l 643 786 m 244 786 l 289 997 l 464 997 l 419 786 l 244 786 z "},"©":{"ha":950,"x_min":92,"x_max":1053,"o":"m 263 0 q 133 28 174 0 q 92 124 92 57 q 100 196 92 154 l 217 744 q 247 835 228 799 q 296 896 267 872 q 366 930 325 919 q 461 940 407 940 l 883 940 q 1012 912 971 940 q 1053 817 1053 883 q 1044 744 1053 786 l 928 196 q 898 105 917 142 q 850 44 879 68 q 780 10 821 21 q 685 0 739 0 l 263 0 m 925 760 q 927 774 926 767 q 928 788 928 781 q 913 824 928 814 q 869 835 899 835 l 432 835 q 373 818 393 835 q 344 760 353 801 l 221 181 q 218 165 218 172 q 218 151 218 158 q 276 104 218 104 l 714 104 q 771 122 750 104 q 801 181 792 139 l 925 760 m 478 290 q 426 303 442 290 q 411 342 411 315 q 411 356 411 349 q 414 369 411 363 l 460 583 q 491 643 468 624 q 557 663 514 663 l 740 663 l 718 561 l 596 561 q 567 535 572 561 l 543 419 q 542 410 542 415 q 561 396 542 396 l 685 396 l 663 290 l 478 290 z "},"ª":{"ha":564,"x_min":178,"x_max":646,"o":"m 233 417 q 190 428 203 417 q 178 461 178 439 q 178 474 178 468 q 181 489 178 481 l 201 582 q 226 642 211 626 q 282 657 242 657 l 461 657 l 446 588 l 338 588 q 324 584 326 588 q 318 569 321 581 l 313 544 q 311 535 311 540 q 325 526 311 526 l 472 526 l 507 688 q 508 692 507 690 q 508 694 508 693 q 493 707 508 707 l 242 707 l 261 803 l 583 803 q 631 792 617 803 q 646 757 646 781 q 642 728 646 744 l 575 417 l 233 417 z "},"«":{"ha":742,"x_min":117,"x_max":856,"o":"m 117 117 m 117 357 l 153 524 l 485 757 l 453 606 l 204 438 l 381 264 l 349 117 l 117 357 m 488 357 l 524 524 l 856 757 l 824 606 l 575 438 l 751 264 l 719 117 l 488 357 z "},"¬":{"ha":878,"x_min":157,"x_max":931,"o":"m 668 104 l 738 425 l 157 425 l 190 585 l 931 585 l 828 104 l 668 104 z "},"®":{"ha":950,"x_min":92,"x_max":1053,"o":"m 263 0 q 133 28 174 0 q 92 124 92 57 q 100 196 92 154 l 217 744 q 247 835 228 799 q 296 896 267 872 q 366 930 325 919 q 461 940 407 940 l 883 940 q 1012 912 971 940 q 1053 817 1053 883 q 1044 744 1053 786 l 928 196 q 898 105 917 142 q 850 44 879 68 q 780 10 821 21 q 685 0 739 0 l 263 0 m 925 760 q 927 774 926 767 q 928 788 928 781 q 913 824 928 814 q 869 835 899 835 l 432 835 q 373 818 393 835 q 344 760 353 801 l 221 181 q 218 165 218 172 q 218 151 218 158 q 276 104 218 104 l 714 104 q 771 122 750 104 q 801 181 792 139 l 925 760 m 593 290 l 614 389 l 614 394 q 590 408 614 408 l 497 408 l 472 290 l 365 290 l 417 535 l 524 535 l 515 492 l 601 492 q 625 498 619 492 q 633 515 631 504 l 642 553 q 643 563 643 556 q 625 575 643 575 l 425 575 l 444 663 l 707 663 q 760 621 760 663 q 757 600 760 614 l 740 518 q 717 473 733 486 q 681 457 700 460 q 713 447 700 454 q 725 422 725 439 q 724 410 725 414 l 699 290 l 593 290 z "},"¯":{"ha":793,"x_min":263,"x_max":929,"o":"m 263 881 l 289 1004 l 929 1004 l 903 881 l 263 881 z "},"°":{"ha":524,"x_min":221,"x_max":646,"o":"m 290 640 q 237 652 253 640 q 221 692 221 664 q 225 725 221 706 l 265 913 q 297 977 275 957 q 367 997 319 997 l 574 997 q 629 985 613 997 q 646 944 646 972 q 642 913 646 931 l 601 725 q 569 660 592 681 q 497 640 546 640 l 290 640 m 543 890 q 544 895 543 893 q 544 900 544 897 q 522 917 544 917 l 383 917 q 353 890 358 917 l 322 751 q 322 747 322 749 q 321 742 321 744 q 342 725 321 725 l 481 725 q 503 731 496 725 q 513 751 510 738 l 543 890 z "},"±":{"ha":878,"x_min":60,"x_max":917,"o":"m 60 0 m 403 122 l 468 425 l 167 425 l 192 546 l 493 546 l 557 847 l 679 847 l 615 546 l 917 546 l 892 425 l 590 425 l 525 122 l 403 122 m 60 -69 l 89 69 l 819 69 l 790 -69 l 60 -69 z "},"²":{"ha":493,"x_min":158,"x_max":625,"o":"m 158 485 m 158 485 l 197 668 q 231 738 208 717 q 303 760 253 760 l 457 760 q 482 781 476 760 l 493 836 q 494 847 494 840 q 478 858 494 858 l 376 858 q 349 836 354 858 l 343 810 l 226 810 l 240 875 q 272 935 249 915 q 340 954 296 954 l 557 954 q 609 942 593 954 q 625 901 625 929 q 624 888 625 894 q 622 872 624 881 l 596 747 q 566 690 588 708 q 504 671 544 671 l 340 671 q 315 647 321 671 l 303 588 l 561 588 l 539 485 l 158 485 z "},"³":{"ha":481,"x_min":158,"x_max":611,"o":"m 158 485 m 226 485 q 174 497 190 485 q 158 536 158 510 q 163 564 158 547 l 179 638 l 299 638 l 292 606 q 290 597 290 603 q 308 585 290 585 l 410 585 q 435 606 431 585 l 449 669 l 449 675 q 431 686 449 686 l 343 686 l 360 761 l 447 761 q 471 779 469 761 l 483 838 q 485 847 485 840 q 467 858 485 858 l 368 858 q 342 838 347 858 l 336 810 l 218 810 l 232 875 q 264 935 240 915 q 332 954 288 954 l 542 954 q 611 901 611 954 q 610 888 611 894 q 608 875 610 882 l 589 786 q 566 744 582 757 q 525 728 550 731 q 558 717 544 725 q 571 689 571 708 q 569 676 571 681 l 544 564 q 513 504 535 524 q 447 485 492 485 l 226 485 z "},"´":{"ha":517,"x_min":243,"x_max":668,"o":"m 243 790 l 511 1074 l 668 1074 l 367 790 l 243 790 z "},"µ":{"ha":813,"x_min":11,"x_max":885,"o":"m 11 0 m 11 -294 l 224 703 l 417 703 l 304 171 l 546 171 q 577 181 568 171 q 592 215 586 192 l 696 703 l 885 703 l 765 138 q 715 33 750 67 q 603 0 679 0 l 268 0 l 204 -294 l 11 -294 z "},"¶":{"ha":1007,"x_min":157,"x_max":1164,"o":"m 667 -237 l 892 819 l 699 819 l 474 -237 l 324 -237 l 549 819 l 415 819 q 382 812 392 819 q 367 776 372 804 l 318 549 q 316 538 317 542 q 315 529 315 533 q 349 506 315 506 l 424 506 l 396 378 l 269 378 q 184 401 211 378 q 157 471 157 424 q 163 521 157 497 l 222 797 q 275 906 238 871 q 392 940 313 940 l 1164 940 l 1139 819 l 1040 819 l 815 -237 l 667 -237 z "},"·":{"ha":332,"x_min":149,"x_max":371,"o":"m 149 339 m 149 339 l 193 549 l 371 549 l 326 339 l 149 339 z "},"¸":{"ha":350,"x_min":-15,"x_max":256,"o":"m -15 -356 l 99 -83 l 256 -83 l 119 -356 l -15 -356 z "},"¹":{"ha":265,"x_min":189,"x_max":411,"o":"m 189 485 m 189 485 l 267 849 l 213 849 l 235 954 l 411 954 l 311 485 l 189 485 z "},"º":{"ha":568,"x_min":176,"x_max":649,"o":"m 238 417 q 190 427 204 417 q 176 461 176 438 q 181 492 176 475 l 231 728 q 258 785 239 767 q 319 803 276 803 l 588 803 q 635 791 621 803 q 649 756 649 779 q 649 742 649 749 q 646 728 649 736 l 596 492 q 567 435 588 453 q 506 417 547 417 l 238 417 m 506 674 q 506 678 506 676 q 507 682 507 679 q 490 693 507 693 l 369 693 q 349 674 353 693 l 322 550 q 321 542 321 547 q 335 531 321 531 l 456 531 q 479 550 475 531 l 506 674 z "},"»":{"ha":742,"x_min":65,"x_max":804,"o":"m 65 117 m 65 117 l 99 268 l 346 435 l 171 608 l 201 757 l 433 515 l 399 349 l 65 117 m 436 117 l 469 268 l 717 435 l 542 608 l 572 757 l 804 515 l 769 349 l 436 117 z "},"¼":{"ha":915,"x_min":71,"x_max":947,"o":"m 71 0 m 226 485 l 304 849 l 250 849 l 272 954 l 449 954 l 349 485 l 226 485 m 71 0 l 836 940 l 947 940 l 182 0 l 71 0 m 676 -14 l 696 72 l 474 72 l 493 169 l 721 456 l 889 456 l 828 169 l 886 169 l 867 72 l 808 72 l 789 -14 l 676 -14 m 754 351 l 604 169 l 715 169 l 754 351 z "},"½":{"ha":961,"x_min":71,"x_max":979,"o":"m 71 0 m 240 485 l 318 849 l 264 849 l 286 954 l 463 954 l 363 485 l 240 485 m 71 0 l 836 940 l 947 940 l 182 0 l 71 0 m 513 -14 l 551 169 q 585 240 563 218 q 657 261 607 261 l 811 261 q 836 282 831 261 l 847 338 q 849 349 849 342 q 832 360 849 360 l 731 360 q 703 338 708 360 l 697 311 l 581 311 l 594 376 q 626 436 603 417 q 694 456 650 456 l 911 456 q 963 443 947 456 q 979 403 979 431 q 978 389 979 396 q 976 374 978 382 l 950 249 q 920 191 942 210 q 858 172 899 172 l 694 172 q 669 149 675 172 l 657 89 l 915 89 l 893 -14 l 513 -14 z "},"¾":{"ha":1003,"x_min":179,"x_max":1063,"o":"m 179 0 m 247 485 q 195 497 211 485 q 179 536 179 510 q 183 564 179 547 l 200 638 l 319 638 l 313 606 q 311 597 311 603 q 329 585 311 585 l 431 585 q 456 606 451 585 l 469 669 l 469 675 q 451 686 469 686 l 364 686 l 381 761 l 468 761 q 492 779 490 761 l 504 838 q 506 847 506 840 q 488 858 506 858 l 389 858 q 363 838 368 858 l 357 810 l 239 810 l 253 875 q 285 935 261 915 q 353 954 308 954 l 563 954 q 632 901 632 954 q 631 888 632 894 q 629 875 631 882 l 610 786 q 587 744 603 757 q 546 728 571 731 q 578 717 565 725 q 592 689 592 708 q 590 676 592 681 l 565 564 q 534 504 556 524 q 468 485 513 485 l 247 485 m 186 0 l 951 940 l 1063 940 l 297 0 l 186 0 m 764 -14 l 783 72 l 561 72 l 581 169 l 808 456 l 976 456 l 915 169 l 974 169 l 954 72 l 896 72 l 876 -14 l 764 -14 m 842 351 l 692 169 l 803 169 l 842 351 z "},"¿":{"ha":871,"x_min":88,"x_max":879,"o":"m 88 0 m 481 542 q 511 549 503 542 q 525 581 519 557 l 540 647 l 715 647 l 688 518 q 638 428 675 460 q 538 396 601 396 l 389 396 q 346 386 357 396 q 328 346 335 376 l 301 225 q 299 212 300 218 q 299 200 299 206 q 309 176 299 183 q 344 169 319 169 l 615 169 q 656 181 643 169 q 675 222 668 193 l 689 290 l 879 290 l 851 160 q 788 40 835 79 q 654 0 742 0 l 221 0 q 118 25 149 0 q 88 101 88 50 q 95 164 88 125 l 140 383 q 196 502 157 463 q 314 542 235 542 l 481 542 m 778 940 l 733 731 l 556 731 l 600 940 l 778 940 z "},"À":{"ha":883,"x_min":22,"x_max":860,"o":"m 22 0 m 647 0 l 638 146 l 299 146 l 226 0 l 22 0 l 511 940 l 788 940 l 860 0 l 647 0 m 601 751 l 374 301 l 631 301 l 601 751 m 675 1028 l 496 1311 l 653 1311 l 799 1028 l 675 1028 z "},"Á":{"ha":883,"x_min":22,"x_max":943,"o":"m 22 0 m 647 0 l 638 146 l 299 146 l 226 0 l 22 0 l 511 940 l 788 940 l 860 0 l 647 0 m 601 751 l 374 301 l 631 301 l 601 751 m 518 1028 l 786 1311 l 943 1311 l 642 1028 l 518 1028 z "},"Â":{"ha":883,"x_min":22,"x_max":979,"o":"m 22 0 m 647 0 l 638 146 l 299 146 l 226 0 l 22 0 l 511 940 l 788 940 l 860 0 l 647 0 m 601 751 l 374 301 l 631 301 l 601 751 m 840 1028 l 707 1251 l 472 1028 l 338 1028 l 640 1311 l 806 1311 l 979 1028 l 840 1028 z "},"Ã":{"ha":883,"x_min":22,"x_max":1003,"o":"m 22 0 m 647 0 l 638 146 l 299 146 l 226 0 l 22 0 l 511 940 l 788 940 l 860 0 l 647 0 m 601 751 l 374 301 l 631 301 l 601 751 m 975 1139 q 894 1101 940 1113 q 811 1090 847 1090 q 736 1101 769 1090 q 673 1124 703 1111 q 615 1148 643 1138 q 557 1158 588 1158 q 470 1147 515 1158 q 381 1104 425 1135 l 407 1229 q 490 1267 443 1256 q 572 1278 536 1278 q 641 1267 608 1278 q 704 1243 674 1256 q 765 1219 735 1231 q 825 1208 794 1208 q 913 1220 871 1208 q 1003 1264 956 1232 l 975 1139 z "},"Ä":{"ha":883,"x_min":22,"x_max":989,"o":"m 22 0 m 647 0 l 638 146 l 299 146 l 226 0 l 22 0 l 511 940 l 788 940 l 860 0 l 647 0 m 601 751 l 374 301 l 631 301 l 601 751 m 769 1024 l 814 1235 l 989 1235 l 944 1024 l 769 1024 m 371 1024 l 415 1235 l 590 1235 l 546 1024 l 371 1024 z "},"Å":{"ha":883,"x_min":22,"x_max":869,"o":"m 22 0 m 647 0 l 638 146 l 299 146 l 226 0 l 22 0 l 511 940 l 788 940 l 860 0 l 647 0 m 601 751 l 374 301 l 631 301 l 601 751 m 571 996 q 519 1008 535 996 q 503 1046 503 1019 q 507 1081 503 1061 l 538 1226 q 569 1291 547 1271 q 638 1311 592 1311 l 800 1311 q 853 1299 838 1311 q 869 1260 869 1288 q 865 1226 869 1244 l 835 1081 q 803 1016 825 1036 q 733 996 781 996 l 571 996 m 792 1219 q 793 1232 793 1224 q 768 1249 793 1249 l 640 1249 q 617 1242 624 1249 q 607 1219 610 1236 l 579 1093 q 578 1081 578 1089 q 583 1066 578 1069 q 601 1063 589 1063 l 729 1063 q 754 1068 749 1063 q 764 1093 760 1074 l 792 1219 z "},"Æ":{"ha":1368,"x_min":22,"x_max":1489,"o":"m 593 0 l 624 146 l 300 146 l 226 0 l 22 0 l 513 940 l 1489 940 l 1450 757 l 611 757 l 369 303 l 657 303 l 739 688 l 957 688 l 924 535 l 1269 535 l 1238 385 l 892 385 l 850 188 l 1329 188 l 1290 0 l 593 0 z "},"Ç":{"ha":814,"x_min":97,"x_max":957,"o":"m 97 0 m 229 0 q 128 25 158 0 q 97 103 97 50 q 99 131 97 117 q 104 164 100 146 l 233 776 q 295 900 251 860 q 428 940 339 940 l 957 940 l 918 753 l 493 753 q 448 742 460 753 q 429 700 436 732 l 331 242 q 328 230 329 235 q 328 219 328 225 q 338 197 328 204 q 374 190 347 190 l 801 190 l 761 0 l 229 0 m 225 -356 l 339 -83 l 496 -83 l 360 -356 l 225 -356 z "},"È":{"ha":846,"x_min":71,"x_max":967,"o":"m 71 0 m 71 0 l 217 688 l 435 688 l 401 535 l 747 535 l 715 385 l 369 385 l 328 188 l 807 188 l 768 0 l 71 0 m 231 757 l 269 940 l 967 940 l 928 757 l 231 757 m 656 1028 l 476 1311 l 633 1311 l 779 1028 l 656 1028 z "},"É":{"ha":846,"x_min":71,"x_max":967,"o":"m 71 0 m 71 0 l 217 688 l 435 688 l 401 535 l 747 535 l 715 385 l 369 385 l 328 188 l 807 188 l 768 0 l 71 0 m 231 757 l 269 940 l 967 940 l 928 757 l 231 757 m 499 1028 l 767 1311 l 924 1311 l 622 1028 l 499 1028 z "},"Ê":{"ha":846,"x_min":71,"x_max":967,"o":"m 71 0 m 71 0 l 217 688 l 435 688 l 401 535 l 747 535 l 715 385 l 369 385 l 328 188 l 807 188 l 768 0 l 71 0 m 231 757 l 269 940 l 967 940 l 928 757 l 231 757 m 821 1028 l 688 1251 l 453 1028 l 318 1028 l 621 1311 l 786 1311 l 960 1028 l 821 1028 z "},"Ë":{"ha":846,"x_min":71,"x_max":971,"o":"m 71 0 m 71 0 l 217 688 l 435 688 l 401 535 l 747 535 l 715 385 l 369 385 l 328 188 l 807 188 l 768 0 l 71 0 m 231 757 l 269 940 l 967 940 l 928 757 l 231 757 m 751 1024 l 796 1235 l 971 1235 l 926 1024 l 751 1024 m 353 1024 l 397 1235 l 572 1235 l 528 1024 l 353 1024 z "},"Ì":{"ha":375,"x_min":81,"x_max":547,"o":"m 81 0 m 81 0 l 279 940 l 490 940 l 292 0 l 81 0 m 424 1028 l 244 1311 l 401 1311 l 547 1028 l 424 1028 z "},"Í":{"ha":375,"x_min":81,"x_max":689,"o":"m 81 0 m 81 0 l 279 940 l 490 940 l 292 0 l 81 0 m 264 1028 l 532 1311 l 689 1311 l 388 1028 l 264 1028 z "},"Î":{"ha":375,"x_min":81,"x_max":728,"o":"m 81 0 m 81 0 l 279 940 l 490 940 l 292 0 l 81 0 m 589 1028 l 456 1251 l 221 1028 l 86 1028 l 389 1311 l 554 1311 l 728 1028 l 589 1028 z "},"Ï":{"ha":375,"x_min":81,"x_max":739,"o":"m 81 0 m 81 0 l 279 940 l 490 940 l 292 0 l 81 0 m 519 1024 l 564 1235 l 739 1235 l 694 1024 l 519 1024 m 121 1024 l 165 1235 l 340 1235 l 296 1024 l 121 1024 z "},"Ð":{"ha":938,"x_min":75,"x_max":1024,"o":"m 75 0 l 158 394 l 104 394 l 131 521 l 185 521 l 221 688 l 429 688 l 393 521 l 621 521 l 594 394 l 367 394 l 322 183 l 619 183 q 713 274 693 183 l 797 667 q 799 682 799 675 q 800 696 800 689 q 740 757 800 757 l 235 757 l 274 940 l 818 940 q 1024 774 1024 940 q 1015 700 1024 739 l 917 240 q 818 61 892 122 q 619 0 744 0 l 75 0 z "},"Ñ":{"ha":976,"x_min":75,"x_max":1096,"o":"m 75 0 m 757 0 l 401 617 l 271 0 l 75 0 l 274 940 l 472 940 l 781 379 l 899 940 l 1096 940 l 897 0 l 757 0 m 1022 1139 q 941 1101 988 1113 q 858 1090 894 1090 q 783 1101 817 1090 q 720 1124 750 1111 q 663 1148 690 1138 q 604 1158 635 1158 q 517 1147 563 1158 q 428 1104 472 1135 l 454 1229 q 537 1267 490 1256 q 619 1278 583 1278 q 688 1267 656 1278 q 751 1243 721 1256 q 812 1219 782 1231 q 872 1208 842 1208 q 960 1220 918 1208 q 1050 1264 1003 1232 l 1022 1139 z "},"Ò":{"ha":928,"x_min":97,"x_max":1029,"o":"m 97 0 m 231 0 q 128 25 160 0 q 97 101 97 50 q 106 164 97 128 l 235 776 q 296 900 253 860 q 429 940 339 940 l 897 940 q 999 915 968 940 q 1029 838 1029 890 q 1027 808 1029 824 q 1022 776 1025 793 l 893 164 q 831 40 875 81 q 699 0 788 0 l 231 0 m 796 703 q 798 715 797 710 q 799 725 799 721 q 750 757 799 757 l 488 757 q 448 746 460 757 q 429 703 436 735 l 329 235 q 326 217 326 221 q 367 188 326 188 l 629 188 q 676 199 663 188 q 696 235 690 210 l 796 703 m 697 1028 l 518 1311 l 675 1311 l 821 1028 l 697 1028 z "},"Ó":{"ha":928,"x_min":97,"x_max":1029,"o":"m 97 0 m 231 0 q 128 25 160 0 q 97 101 97 50 q 106 164 97 128 l 235 776 q 296 900 253 860 q 429 940 339 940 l 897 940 q 999 915 968 940 q 1029 838 1029 890 q 1027 808 1029 824 q 1022 776 1025 793 l 893 164 q 831 40 875 81 q 699 0 788 0 l 231 0 m 796 703 q 798 715 797 710 q 799 725 799 721 q 750 757 799 757 l 488 757 q 448 746 460 757 q 429 703 436 735 l 329 235 q 326 217 326 221 q 367 188 326 188 l 629 188 q 676 199 663 188 q 696 235 690 210 l 796 703 m 540 1028 l 808 1311 l 965 1311 l 664 1028 l 540 1028 z "},"Ô":{"ha":928,"x_min":97,"x_max":1029,"o":"m 97 0 m 231 0 q 128 25 160 0 q 97 101 97 50 q 106 164 97 128 l 235 776 q 296 900 253 860 q 429 940 339 940 l 897 940 q 999 915 968 940 q 1029 838 1029 890 q 1027 808 1029 824 q 1022 776 1025 793 l 893 164 q 831 40 875 81 q 699 0 788 0 l 231 0 m 796 703 q 798 715 797 710 q 799 725 799 721 q 750 757 799 757 l 488 757 q 448 746 460 757 q 429 703 436 735 l 329 235 q 326 217 326 221 q 367 188 326 188 l 629 188 q 676 199 663 188 q 696 235 690 210 l 796 703 m 863 1028 l 729 1251 l 494 1028 l 360 1028 l 663 1311 l 828 1311 l 1001 1028 l 863 1028 z "},"Õ":{"ha":928,"x_min":97,"x_max":1029,"o":"m 97 0 m 231 0 q 128 25 160 0 q 97 101 97 50 q 106 164 97 128 l 235 776 q 296 900 253 860 q 429 940 339 940 l 897 940 q 999 915 968 940 q 1029 838 1029 890 q 1027 808 1029 824 q 1022 776 1025 793 l 893 164 q 831 40 875 81 q 699 0 788 0 l 231 0 m 796 703 q 798 715 797 710 q 799 725 799 721 q 750 757 799 757 l 488 757 q 448 746 460 757 q 429 703 436 735 l 329 235 q 326 217 326 221 q 367 188 326 188 l 629 188 q 676 199 663 188 q 696 235 690 210 l 796 703 m 997 1139 q 916 1101 963 1113 q 833 1090 869 1090 q 758 1101 792 1090 q 695 1124 725 1111 q 638 1148 665 1138 q 579 1158 610 1158 q 492 1147 538 1158 q 403 1104 447 1135 l 429 1229 q 512 1267 465 1256 q 594 1278 558 1278 q 663 1267 631 1278 q 726 1243 696 1256 q 787 1219 757 1231 q 847 1208 817 1208 q 935 1220 893 1208 q 1025 1264 978 1232 l 997 1139 z "},"Ö":{"ha":928,"x_min":97,"x_max":1029,"o":"m 97 0 m 231 0 q 128 25 160 0 q 97 101 97 50 q 106 164 97 128 l 235 776 q 296 900 253 860 q 429 940 339 940 l 897 940 q 999 915 968 940 q 1029 838 1029 890 q 1027 808 1029 824 q 1022 776 1025 793 l 893 164 q 831 40 875 81 q 699 0 788 0 l 231 0 m 796 703 q 798 715 797 710 q 799 725 799 721 q 750 757 799 757 l 488 757 q 448 746 460 757 q 429 703 436 735 l 329 235 q 326 217 326 221 q 367 188 326 188 l 629 188 q 676 199 663 188 q 696 235 690 210 l 796 703 m 792 1024 l 836 1235 l 1011 1235 l 967 1024 l 792 1024 m 393 1024 l 438 1235 l 613 1235 l 568 1024 l 393 1024 z "},"×":{"ha":840,"x_min":169,"x_max":874,"o":"m 665 176 l 501 388 l 246 176 l 169 275 l 424 485 l 260 694 l 379 793 l 543 583 l 796 793 l 874 694 l 621 485 l 785 274 l 665 176 z "},"Ø":{"ha":928,"x_min":49,"x_max":1078,"o":"m 239 0 l 158 -99 l 49 -99 l 142 15 q 108 47 118 26 q 97 99 97 68 q 106 164 97 126 l 235 776 q 296 900 253 860 q 429 940 339 940 l 888 940 l 969 1040 l 1078 1040 l 983 925 q 1029 838 1029 901 q 1027 808 1029 824 q 1022 776 1025 793 l 893 164 q 831 40 875 81 q 699 0 788 0 l 239 0 m 333 254 l 739 757 l 488 757 q 448 746 460 757 q 429 703 436 735 l 333 254 m 793 688 l 389 188 l 629 188 q 676 199 663 188 q 696 235 690 210 l 793 688 z "},"Ù":{"ha":938,"x_min":101,"x_max":1061,"o":"m 101 0 m 235 0 q 132 25 163 0 q 101 103 101 50 q 103 132 101 117 q 108 164 104 147 l 272 940 l 483 940 l 335 238 q 331 213 331 221 q 340 192 331 197 q 372 188 350 188 l 650 188 q 690 197 678 188 q 710 238 703 206 l 858 940 l 1061 940 l 897 164 q 835 40 879 81 q 703 0 792 0 l 235 0 m 701 1028 l 522 1311 l 679 1311 l 825 1028 l 701 1028 z "},"Ú":{"ha":938,"x_min":101,"x_max":1061,"o":"m 101 0 m 235 0 q 132 25 163 0 q 101 103 101 50 q 103 132 101 117 q 108 164 104 147 l 272 940 l 483 940 l 335 238 q 331 213 331 221 q 340 192 331 197 q 372 188 350 188 l 650 188 q 690 197 678 188 q 710 238 703 206 l 858 940 l 1061 940 l 897 164 q 835 40 879 81 q 703 0 792 0 l 235 0 m 544 1028 l 813 1311 l 969 1311 l 668 1028 l 544 1028 z "},"Û":{"ha":938,"x_min":101,"x_max":1061,"o":"m 101 0 m 235 0 q 132 25 163 0 q 101 103 101 50 q 103 132 101 117 q 108 164 104 147 l 272 940 l 483 940 l 335 238 q 331 213 331 221 q 340 192 331 197 q 372 188 350 188 l 650 188 q 690 197 678 188 q 710 238 703 206 l 858 940 l 1061 940 l 897 164 q 835 40 879 81 q 703 0 792 0 l 235 0 m 867 1028 l 733 1251 l 499 1028 l 364 1028 l 667 1311 l 832 1311 l 1006 1028 l 867 1028 z "},"Ü":{"ha":938,"x_min":101,"x_max":1061,"o":"m 101 0 m 235 0 q 132 25 163 0 q 101 103 101 50 q 103 132 101 117 q 108 164 104 147 l 272 940 l 483 940 l 335 238 q 331 213 331 221 q 340 192 331 197 q 372 188 350 188 l 650 188 q 690 197 678 188 q 710 238 703 206 l 858 940 l 1061 940 l 897 164 q 835 40 879 81 q 703 0 792 0 l 235 0 m 797 1024 l 842 1235 l 1017 1235 l 972 1024 l 797 1024 m 399 1024 l 443 1235 l 618 1235 l 574 1024 l 399 1024 z "},"Ý":{"ha":857,"x_min":217,"x_max":1036,"o":"m 217 0 m 322 0 l 404 388 l 217 940 l 438 940 l 553 569 l 825 940 l 1036 940 l 615 388 l 533 0 l 322 0 m 504 1028 l 772 1311 l 929 1311 l 628 1028 l 504 1028 z "},"Þ":{"ha":924,"x_min":76,"x_max":1015,"o":"m 315 133 l 288 0 l 76 0 l 275 940 l 486 940 l 353 310 l 672 310 q 740 367 729 310 l 792 610 q 794 622 793 617 q 794 632 794 626 q 749 669 794 669 l 499 669 l 532 828 l 883 828 q 985 803 954 828 q 1015 725 1015 778 q 1013 697 1015 711 q 1008 664 1011 682 l 931 297 q 869 174 913 214 q 736 133 826 133 l 315 133 z "},"ß":{"ha":1014,"x_min":72,"x_max":1051,"o":"m 418 0 l 451 157 l 740 157 q 770 165 761 157 q 783 194 779 174 l 831 417 q 832 429 832 421 q 807 446 832 446 l 667 446 q 600 463 621 446 q 579 511 579 479 q 583 544 579 525 l 640 813 q 642 826 642 818 q 615 846 642 846 l 475 846 q 450 839 457 846 q 439 813 443 832 l 267 0 l 72 0 l 254 860 q 305 964 269 931 q 415 997 340 997 l 719 997 q 806 976 779 997 q 832 913 832 956 q 825 860 832 892 l 772 611 q 771 599 771 606 q 794 583 771 583 l 960 583 q 1030 564 1008 583 q 1051 513 1051 544 q 1051 499 1051 506 q 1049 485 1050 492 l 971 122 q 923 30 957 60 q 815 0 889 0 l 418 0 z "},"à":{"ha":875,"x_min":92,"x_max":931,"o":"m 92 0 m 192 0 q 115 20 139 0 q 92 81 92 40 q 99 132 92 100 l 133 299 q 153 364 142 338 q 181 406 164 390 q 221 427 197 421 q 278 433 244 433 l 635 433 l 610 314 l 354 314 q 326 307 335 314 q 314 278 318 300 l 299 204 q 297 193 297 197 q 296 185 296 189 q 322 167 296 167 l 647 167 l 721 511 q 722 526 722 517 q 715 544 722 538 q 689 550 708 550 l 213 550 l 244 703 l 819 703 q 906 683 881 703 q 931 619 931 663 q 924 565 931 600 l 804 0 l 192 0 m 635 790 l 456 1074 l 613 1074 l 758 790 l 635 790 z "},"á":{"ha":875,"x_min":92,"x_max":931,"o":"m 92 0 m 192 0 q 115 20 139 0 q 92 81 92 40 q 99 132 92 100 l 133 299 q 153 364 142 338 q 181 406 164 390 q 221 427 197 421 q 278 433 244 433 l 635 433 l 610 314 l 354 314 q 326 307 335 314 q 314 278 318 300 l 299 204 q 297 193 297 197 q 296 185 296 189 q 322 167 296 167 l 647 167 l 721 511 q 722 526 722 517 q 715 544 722 538 q 689 550 708 550 l 213 550 l 244 703 l 819 703 q 906 683 881 703 q 931 619 931 663 q 924 565 931 600 l 804 0 l 192 0 m 464 790 l 732 1074 l 889 1074 l 588 790 l 464 790 z "},"â":{"ha":875,"x_min":92,"x_max":932,"o":"m 92 0 m 192 0 q 115 20 139 0 q 92 81 92 40 q 99 132 92 100 l 133 299 q 153 364 142 338 q 181 406 164 390 q 221 427 197 421 q 278 433 244 433 l 635 433 l 610 314 l 354 314 q 326 307 335 314 q 314 278 318 300 l 299 204 q 297 193 297 197 q 296 185 296 189 q 322 167 296 167 l 647 167 l 721 511 q 722 526 722 517 q 715 544 722 538 q 689 550 708 550 l 213 550 l 244 703 l 819 703 q 906 683 881 703 q 931 619 931 663 q 924 565 931 600 l 804 0 l 192 0 m 793 790 l 660 1014 l 425 790 l 290 790 l 593 1074 l 758 1074 l 932 790 l 793 790 z "},"ã":{"ha":875,"x_min":92,"x_max":958,"o":"m 92 0 m 192 0 q 115 20 139 0 q 92 81 92 40 q 99 132 92 100 l 133 299 q 153 364 142 338 q 181 406 164 390 q 221 427 197 421 q 278 433 244 433 l 635 433 l 610 314 l 354 314 q 326 307 335 314 q 314 278 318 300 l 299 204 q 297 193 297 197 q 296 185 296 189 q 322 167 296 167 l 647 167 l 721 511 q 722 526 722 517 q 715 544 722 538 q 689 550 708 550 l 213 550 l 244 703 l 819 703 q 906 683 881 703 q 931 619 931 663 q 924 565 931 600 l 804 0 l 192 0 m 931 901 q 849 864 896 875 q 767 853 803 853 q 692 863 725 853 q 628 887 658 874 q 571 910 599 900 q 513 921 543 921 q 426 909 471 921 q 336 867 381 897 l 363 992 q 445 1029 399 1018 q 528 1040 492 1040 q 597 1029 564 1040 q 660 1006 629 1018 q 720 982 690 993 q 781 971 750 971 q 869 983 826 971 q 958 1026 911 994 l 931 901 z "},"ä":{"ha":875,"x_min":92,"x_max":935,"o":"m 92 0 m 192 0 q 115 20 139 0 q 92 81 92 40 q 99 132 92 100 l 133 299 q 153 364 142 338 q 181 406 164 390 q 221 427 197 421 q 278 433 244 433 l 635 433 l 610 314 l 354 314 q 326 307 335 314 q 314 278 318 300 l 299 204 q 297 193 297 197 q 296 185 296 189 q 322 167 296 167 l 647 167 l 721 511 q 722 526 722 517 q 715 544 722 538 q 689 550 708 550 l 213 550 l 244 703 l 819 703 q 906 683 881 703 q 931 619 931 663 q 924 565 931 600 l 804 0 l 192 0 m 715 786 l 760 997 l 935 997 l 890 786 l 715 786 m 317 786 l 361 997 l 536 997 l 492 786 l 317 786 z "},"å":{"ha":875,"x_min":92,"x_max":931,"o":"m 92 0 m 192 0 q 115 20 139 0 q 92 81 92 40 q 99 132 92 100 l 133 299 q 153 364 142 338 q 181 406 164 390 q 221 427 197 421 q 278 433 244 433 l 635 433 l 610 314 l 354 314 q 326 307 335 314 q 314 278 318 300 l 299 204 q 297 193 297 197 q 296 185 296 189 q 322 167 296 167 l 647 167 l 721 511 q 722 526 722 517 q 715 544 722 538 q 689 550 708 550 l 213 550 l 244 703 l 819 703 q 906 683 881 703 q 931 619 931 663 q 924 565 931 600 l 804 0 l 192 0 m 517 758 q 465 770 481 758 q 449 808 449 782 q 453 843 449 824 l 483 989 q 515 1053 493 1033 q 583 1074 538 1074 l 746 1074 q 799 1062 783 1074 q 815 1022 815 1050 q 811 989 815 1007 l 781 843 q 749 778 771 799 q 679 758 726 758 l 517 758 m 738 982 q 739 994 739 986 q 714 1011 739 1011 l 586 1011 q 563 1005 569 1011 q 553 982 556 999 l 525 856 q 524 843 524 851 q 529 828 524 832 q 547 825 535 825 l 675 825 q 700 831 694 825 q 710 856 706 836 l 738 982 z "},"æ":{"ha":1368,"x_min":93,"x_max":1422,"o":"m 194 0 q 117 20 140 0 q 93 81 93 40 q 100 132 93 100 l 135 299 q 154 364 143 338 q 182 406 165 390 q 223 427 199 421 q 281 433 247 433 l 608 433 l 583 314 l 357 314 q 328 307 336 314 q 315 278 319 300 l 299 197 q 297 186 297 190 q 296 178 296 182 q 324 160 296 160 l 619 160 l 703 550 l 214 550 l 246 703 l 1325 703 q 1400 683 1378 703 q 1422 622 1422 663 q 1417 571 1422 597 l 1358 294 l 910 294 l 933 411 l 1197 411 l 1219 511 q 1221 529 1221 518 q 1215 545 1221 540 q 1192 550 1208 550 l 894 550 l 811 160 l 1303 160 l 1269 0 l 194 0 z "},"ç":{"ha":753,"x_min":90,"x_max":844,"o":"m 90 0 m 200 0 q 116 20 142 0 q 90 83 90 40 q 97 138 90 103 l 188 565 q 238 669 203 636 q 349 703 274 703 l 844 703 l 808 532 l 413 532 q 381 525 389 532 q 367 494 372 518 l 307 214 q 305 204 306 208 q 304 196 304 200 q 336 175 304 175 l 732 175 l 696 0 l 200 0 m 194 -356 l 308 -83 l 465 -83 l 329 -356 l 194 -356 z "},"è":{"ha":858,"x_min":83,"x_max":917,"o":"m 83 0 m 194 0 q 109 20 135 0 q 83 83 83 40 q 90 138 83 103 l 181 565 q 231 669 196 636 q 343 703 267 703 l 818 703 q 894 683 871 703 q 917 622 917 663 q 911 571 917 597 l 853 294 l 385 294 l 408 411 l 692 411 l 713 506 q 714 524 714 513 q 708 539 714 535 q 685 543 701 543 l 406 543 q 374 535 382 543 q 360 504 365 528 l 294 201 q 292 190 293 194 q 292 181 292 185 q 299 164 292 168 q 324 160 306 160 l 797 160 l 764 0 l 194 0 m 613 790 l 433 1074 l 590 1074 l 736 790 l 613 790 z "},"é":{"ha":858,"x_min":83,"x_max":917,"o":"m 83 0 m 194 0 q 109 20 135 0 q 83 83 83 40 q 90 138 83 103 l 181 565 q 231 669 196 636 q 343 703 267 703 l 818 703 q 894 683 871 703 q 917 622 917 663 q 911 571 917 597 l 853 294 l 385 294 l 408 411 l 692 411 l 713 506 q 714 524 714 513 q 708 539 714 535 q 685 543 701 543 l 406 543 q 374 535 382 543 q 360 504 365 528 l 294 201 q 292 190 293 194 q 292 181 292 185 q 299 164 292 168 q 324 160 306 160 l 797 160 l 764 0 l 194 0 m 456 790 l 724 1074 l 881 1074 l 579 790 l 456 790 z "},"ê":{"ha":858,"x_min":83,"x_max":917,"o":"m 83 0 m 194 0 q 109 20 135 0 q 83 83 83 40 q 90 138 83 103 l 181 565 q 231 669 196 636 q 343 703 267 703 l 818 703 q 894 683 871 703 q 917 622 917 663 q 911 571 917 597 l 853 294 l 385 294 l 408 411 l 692 411 l 713 506 q 714 524 714 513 q 708 539 714 535 q 685 543 701 543 l 406 543 q 374 535 382 543 q 360 504 365 528 l 294 201 q 292 190 293 194 q 292 181 292 185 q 299 164 292 168 q 324 160 306 160 l 797 160 l 764 0 l 194 0 m 778 790 l 644 1014 l 410 790 l 275 790 l 578 1074 l 743 1074 l 917 790 l 778 790 z "},"ë":{"ha":858,"x_min":83,"x_max":926,"o":"m 83 0 m 194 0 q 109 20 135 0 q 83 83 83 40 q 90 138 83 103 l 181 565 q 231 669 196 636 q 343 703 267 703 l 818 703 q 894 683 871 703 q 917 622 917 663 q 911 571 917 597 l 853 294 l 385 294 l 408 411 l 692 411 l 713 506 q 714 524 714 513 q 708 539 714 535 q 685 543 701 543 l 406 543 q 374 535 382 543 q 360 504 365 528 l 294 201 q 292 190 293 194 q 292 181 292 185 q 299 164 292 168 q 324 160 306 160 l 797 160 l 764 0 l 194 0 m 707 786 l 751 997 l 926 997 l 882 786 l 707 786 m 308 786 l 353 997 l 528 997 l 483 786 l 308 786 z "},"ì":{"ha":403,"x_min":129,"x_max":536,"o":"m 129 0 m 129 0 l 278 703 l 472 703 l 324 0 l 129 0 m 413 790 l 233 1074 l 390 1074 l 536 790 l 413 790 z "},"í":{"ha":406,"x_min":78,"x_max":629,"o":"m 78 0 m 78 0 l 226 703 l 421 703 l 272 0 l 78 0 m 204 790 l 472 1074 l 629 1074 l 328 790 l 204 790 z "},"î":{"ha":560,"x_min":129,"x_max":771,"o":"m 129 0 m 183 0 l 332 703 l 526 703 l 378 0 l 183 0 m 632 790 l 499 1014 l 264 790 l 129 790 l 432 1074 l 597 1074 l 771 790 l 632 790 z "},"ï":{"ha":500,"x_min":133,"x_max":751,"o":"m 133 0 m 154 0 l 303 703 l 497 703 l 349 0 l 154 0 m 532 786 l 576 997 l 751 997 l 707 786 l 532 786 m 133 786 l 178 997 l 353 997 l 308 786 l 133 786 z "},"ð":{"ha":846,"x_min":89,"x_max":988,"o":"m 200 0 q 115 20 140 0 q 89 83 89 40 q 91 109 89 96 q 96 138 93 122 l 167 475 q 222 581 182 550 q 329 613 263 613 l 632 613 l 597 447 l 399 447 q 347 401 357 447 l 308 219 q 306 208 307 213 q 306 199 306 203 q 339 172 306 172 l 536 172 q 571 183 560 172 q 588 218 582 194 l 676 636 q 685 696 685 674 q 681 725 685 711 q 669 754 676 739 l 649 794 l 368 703 l 388 796 l 611 871 l 547 997 l 763 997 l 796 932 l 988 997 l 967 901 l 835 857 l 864 804 q 885 728 883 768 q 880 681 885 707 q 868 617 875 654 l 767 138 q 715 33 751 65 q 603 0 678 0 l 200 0 z "},"ñ":{"ha":901,"x_min":71,"x_max":976,"o":"m 71 0 m 633 0 l 738 496 q 740 513 740 510 q 706 535 740 535 l 415 535 q 385 527 394 535 q 369 496 375 519 l 265 0 l 71 0 l 219 703 l 407 703 l 390 626 q 528 703 440 703 l 843 703 q 926 683 900 703 q 951 618 951 664 q 946 565 951 592 l 826 0 l 633 0 m 949 901 q 867 864 914 875 q 785 853 821 853 q 710 863 743 853 q 647 887 676 874 q 589 910 617 900 q 531 921 561 921 q 444 909 489 921 q 354 867 399 897 l 381 992 q 463 1029 417 1018 q 546 1040 510 1040 q 615 1029 582 1040 q 678 1006 647 1018 q 738 982 708 993 q 799 971 768 971 q 887 983 844 971 q 976 1026 929 994 l 949 901 z "},"ò":{"ha":879,"x_min":90,"x_max":938,"o":"m 90 0 m 200 0 q 116 20 142 0 q 90 83 90 40 q 97 138 90 103 l 188 565 q 238 669 203 636 q 349 703 274 703 l 826 703 q 913 683 888 703 q 938 619 938 663 q 931 565 938 600 l 840 138 q 790 33 825 67 q 678 0 754 0 l 200 0 m 721 496 q 724 513 724 510 q 686 535 724 535 l 411 535 q 380 527 389 535 q 367 496 371 519 l 307 210 q 305 200 306 204 q 304 192 304 196 q 335 172 304 172 l 610 172 q 646 181 635 172 q 661 210 657 189 l 721 496 m 622 790 l 443 1074 l 600 1074 l 746 790 l 622 790 z "},"ó":{"ha":879,"x_min":90,"x_max":938,"o":"m 90 0 m 200 0 q 116 20 142 0 q 90 83 90 40 q 97 138 90 103 l 188 565 q 238 669 203 636 q 349 703 274 703 l 826 703 q 913 683 888 703 q 938 619 938 663 q 931 565 938 600 l 840 138 q 790 33 825 67 q 678 0 754 0 l 200 0 m 721 496 q 724 513 724 510 q 686 535 724 535 l 411 535 q 380 527 389 535 q 367 496 371 519 l 307 210 q 305 200 306 204 q 304 192 304 196 q 335 172 304 172 l 610 172 q 646 181 635 172 q 661 210 657 189 l 721 496 m 465 790 l 733 1074 l 890 1074 l 589 790 l 465 790 z "},"ô":{"ha":879,"x_min":90,"x_max":938,"o":"m 90 0 m 200 0 q 116 20 142 0 q 90 83 90 40 q 97 138 90 103 l 188 565 q 238 669 203 636 q 349 703 274 703 l 826 703 q 913 683 888 703 q 938 619 938 663 q 931 565 938 600 l 840 138 q 790 33 825 67 q 678 0 754 0 l 200 0 m 721 496 q 724 513 724 510 q 686 535 724 535 l 411 535 q 380 527 389 535 q 367 496 371 519 l 307 210 q 305 200 306 204 q 304 192 304 196 q 335 172 304 172 l 610 172 q 646 181 635 172 q 661 210 657 189 l 721 496 m 788 790 l 654 1014 l 419 790 l 285 790 l 588 1074 l 753 1074 l 926 790 l 788 790 z "},"õ":{"ha":879,"x_min":90,"x_max":951,"o":"m 90 0 m 200 0 q 116 20 142 0 q 90 83 90 40 q 97 138 90 103 l 188 565 q 238 669 203 636 q 349 703 274 703 l 826 703 q 913 683 888 703 q 938 619 938 663 q 931 565 938 600 l 840 138 q 790 33 825 67 q 678 0 754 0 l 200 0 m 721 496 q 724 513 724 510 q 686 535 724 535 l 411 535 q 380 527 389 535 q 367 496 371 519 l 307 210 q 305 200 306 204 q 304 192 304 196 q 335 172 304 172 l 610 172 q 646 181 635 172 q 661 210 657 189 l 721 496 m 924 901 q 842 864 889 875 q 760 853 796 853 q 685 863 718 853 q 622 887 651 874 q 564 910 592 900 q 506 921 536 921 q 419 909 464 921 q 329 867 374 897 l 356 992 q 438 1029 392 1018 q 521 1040 485 1040 q 590 1029 557 1040 q 653 1006 622 1018 q 713 982 683 993 q 774 971 743 971 q 862 983 819 971 q 951 1026 904 994 l 924 901 z "},"ö":{"ha":879,"x_min":90,"x_max":938,"o":"m 90 0 m 200 0 q 116 20 142 0 q 90 83 90 40 q 97 138 90 103 l 188 565 q 238 669 203 636 q 349 703 274 703 l 826 703 q 913 683 888 703 q 938 619 938 663 q 931 565 938 600 l 840 138 q 790 33 825 67 q 678 0 754 0 l 200 0 m 721 496 q 724 513 724 510 q 686 535 724 535 l 411 535 q 380 527 389 535 q 367 496 371 519 l 307 210 q 305 200 306 204 q 304 192 304 196 q 335 172 304 172 l 610 172 q 646 181 635 172 q 661 210 657 189 l 721 496 m 718 786 l 763 997 l 938 997 l 893 786 l 718 786 m 319 786 l 364 997 l 539 997 l 494 786 l 319 786 z "},"÷":{"ha":879,"x_min":161,"x_max":921,"o":"m 161 94 m 161 415 l 190 554 l 921 554 l 892 415 l 161 415 m 490 665 l 535 875 l 713 875 l 668 665 l 490 665 m 369 94 l 414 304 l 592 304 l 547 94 l 369 94 z "},"ø":{"ha":879,"x_min":46,"x_max":978,"o":"m 249 0 l 157 -99 l 46 -99 l 144 7 q 90 83 90 24 q 97 138 90 103 l 188 565 q 238 669 203 636 q 349 703 274 703 l 783 703 l 867 792 l 978 792 l 888 694 q 938 618 938 676 q 931 565 938 597 l 840 138 q 790 33 825 67 q 678 0 754 0 l 249 0 m 307 210 q 304 193 304 196 q 307 183 304 189 l 629 535 l 411 535 q 380 527 389 535 q 367 496 371 519 l 307 210 m 721 496 q 722 510 722 500 l 722 514 l 407 172 l 610 172 q 646 181 635 172 q 661 210 657 189 l 721 496 z "},"ù":{"ha":889,"x_min":93,"x_max":965,"o":"m 93 0 m 629 0 l 644 75 q 585 17 618 35 q 508 0 553 0 l 203 0 q 120 19 147 0 q 93 85 93 39 q 100 138 93 106 l 219 703 l 414 703 l 308 207 q 306 189 306 193 q 339 167 306 167 l 618 167 q 650 175 640 167 q 665 207 660 183 l 771 703 l 965 703 l 817 0 l 629 0 m 628 790 l 449 1074 l 606 1074 l 751 790 l 628 790 z "},"ú":{"ha":889,"x_min":93,"x_max":965,"o":"m 93 0 m 629 0 l 644 75 q 585 17 618 35 q 508 0 553 0 l 203 0 q 120 19 147 0 q 93 85 93 39 q 100 138 93 106 l 219 703 l 414 703 l 308 207 q 306 189 306 193 q 339 167 306 167 l 618 167 q 650 175 640 167 q 665 207 660 183 l 771 703 l 965 703 l 817 0 l 629 0 m 471 790 l 739 1074 l 896 1074 l 594 790 l 471 790 z "},"û":{"ha":889,"x_min":93,"x_max":965,"o":"m 93 0 m 629 0 l 644 75 q 585 17 618 35 q 508 0 553 0 l 203 0 q 120 19 147 0 q 93 85 93 39 q 100 138 93 106 l 219 703 l 414 703 l 308 207 q 306 189 306 193 q 339 167 306 167 l 618 167 q 650 175 640 167 q 665 207 660 183 l 771 703 l 965 703 l 817 0 l 629 0 m 793 790 l 660 1014 l 425 790 l 290 790 l 593 1074 l 758 1074 l 932 790 l 793 790 z "},"ü":{"ha":889,"x_min":93,"x_max":965,"o":"m 93 0 m 629 0 l 644 75 q 585 17 618 35 q 508 0 553 0 l 203 0 q 120 19 147 0 q 93 85 93 39 q 100 138 93 106 l 219 703 l 414 703 l 308 207 q 306 189 306 193 q 339 167 306 167 l 618 167 q 650 175 640 167 q 665 207 660 183 l 771 703 l 965 703 l 817 0 l 629 0 m 722 786 l 767 997 l 942 997 l 897 786 l 722 786 m 324 786 l 368 997 l 543 997 l 499 786 l 324 786 z "},"ý":{"ha":847,"x_min":21,"x_max":935,"o":"m 21 0 m 21 -294 l 57 -126 l 524 -126 q 556 -118 547 -126 q 571 -86 565 -110 l 590 0 l 190 0 q 106 20 132 0 q 81 83 81 40 q 88 138 81 103 l 207 703 l 401 703 l 294 199 q 292 189 293 193 q 292 181 292 185 q 325 158 292 158 l 624 158 l 739 703 l 935 703 l 751 -157 q 700 -261 736 -228 q 588 -294 664 -294 l 21 -294 m 450 790 l 718 1074 l 875 1074 l 574 790 l 450 790 z "},"þ":{"ha":872,"x_min":11,"x_max":926,"o":"m 268 0 l 204 -296 l 11 -296 l 286 997 l 479 997 l 304 172 l 601 172 q 654 218 644 172 l 711 488 q 713 506 713 494 q 678 535 713 535 l 450 535 l 486 703 l 818 703 q 926 610 926 703 q 925 589 926 600 q 921 565 924 578 l 831 138 q 780 33 815 67 q 669 0 744 0 l 268 0 z "},"ÿ":{"ha":847,"x_min":21,"x_max":935,"o":"m 21 0 m 21 -294 l 57 -126 l 524 -126 q 556 -118 547 -126 q 571 -86 565 -110 l 590 0 l 190 0 q 106 20 132 0 q 81 83 81 40 q 88 138 81 103 l 207 703 l 401 703 l 294 199 q 292 189 293 193 q 292 181 292 185 q 325 158 292 158 l 624 158 l 739 703 l 935 703 l 751 -157 q 700 -261 736 -228 q 588 -294 664 -294 l 21 -294 m 701 786 l 746 997 l 921 997 l 876 786 l 701 786 m 303 786 l 347 997 l 522 997 l 478 786 l 303 786 z "},"Ā":{"ha":883,"x_min":22,"x_max":1024,"o":"m 22 0 m 647 0 l 638 146 l 299 146 l 226 0 l 22 0 l 511 940 l 788 940 l 860 0 l 647 0 m 601 751 l 374 301 l 631 301 l 601 751 m 357 1118 l 383 1242 l 1024 1242 l 997 1118 l 357 1118 z "},"ā":{"ha":875,"x_min":92,"x_max":976,"o":"m 92 0 m 192 0 q 115 20 139 0 q 92 81 92 40 q 99 132 92 100 l 133 299 q 153 364 142 338 q 181 406 164 390 q 221 427 197 421 q 278 433 244 433 l 635 433 l 610 314 l 354 314 q 326 307 335 314 q 314 278 318 300 l 299 204 q 297 193 297 197 q 296 185 296 189 q 322 167 296 167 l 647 167 l 721 511 q 722 526 722 517 q 715 544 722 538 q 689 550 708 550 l 213 550 l 244 703 l 819 703 q 906 683 881 703 q 931 619 931 663 q 924 565 931 600 l 804 0 l 192 0 m 310 881 l 336 1004 l 976 1004 l 950 881 l 310 881 z "},"Ă":{"ha":883,"x_min":22,"x_max":1004,"o":"m 22 0 m 647 0 l 638 146 l 299 146 l 226 0 l 22 0 l 511 940 l 788 940 l 860 0 l 647 0 m 601 751 l 374 301 l 631 301 l 601 751 m 1004 1311 q 968 1194 990 1247 q 906 1103 946 1142 q 807 1044 867 1065 q 658 1024 747 1024 q 544 1036 590 1024 q 471 1072 499 1049 q 431 1127 443 1094 q 419 1201 419 1160 q 423 1253 419 1226 q 433 1311 426 1281 l 519 1311 q 513 1272 515 1290 q 510 1236 510 1253 q 546 1147 510 1178 q 678 1115 582 1115 q 779 1128 738 1115 q 848 1167 821 1142 q 891 1229 875 1193 q 918 1311 907 1265 l 1004 1311 z "},"ă":{"ha":875,"x_min":92,"x_max":960,"o":"m 92 0 m 192 0 q 115 20 139 0 q 92 81 92 40 q 99 132 92 100 l 133 299 q 153 364 142 338 q 181 406 164 390 q 221 427 197 421 q 278 433 244 433 l 635 433 l 610 314 l 354 314 q 326 307 335 314 q 314 278 318 300 l 299 204 q 297 193 297 197 q 296 185 296 189 q 322 167 296 167 l 647 167 l 721 511 q 722 526 722 517 q 715 544 722 538 q 689 550 708 550 l 213 550 l 244 703 l 819 703 q 906 683 881 703 q 931 619 931 663 q 924 565 931 600 l 804 0 l 192 0 m 960 1074 q 924 957 946 1010 q 862 866 901 904 q 763 807 822 828 q 614 786 703 786 q 500 799 546 786 q 426 834 454 811 q 387 890 399 857 q 375 964 375 922 q 378 1016 375 989 q 389 1074 382 1043 l 475 1074 q 468 1034 471 1053 q 465 999 465 1015 q 501 909 465 940 q 633 878 538 878 q 735 891 693 878 q 803 930 776 904 q 847 992 831 956 q 874 1074 863 1028 l 960 1074 z "},"Ą":{"ha":883,"x_min":22,"x_max":860,"o":"m 536 -356 q 489 -342 507 -356 q 471 -296 471 -328 q 475 -265 471 -282 l 490 -194 q 502 -153 496 -171 q 518 -122 508 -136 q 542 -98 528 -108 q 579 -76 557 -87 l 738 0 l 647 0 l 638 146 l 299 146 l 226 0 l 22 0 l 511 940 l 788 940 l 860 0 l 671 -97 q 649 -114 654 -106 q 639 -142 643 -122 l 629 -185 q 628 -197 628 -189 q 649 -214 628 -214 l 814 -214 l 783 -356 l 536 -356 m 601 751 l 374 301 l 631 301 l 601 751 z "},"ą":{"ha":875,"x_min":92,"x_max":931,"o":"m 481 -356 q 433 -342 451 -356 q 415 -296 415 -328 q 419 -265 415 -282 l 435 -194 q 447 -153 440 -171 q 463 -122 453 -136 q 487 -98 472 -108 q 524 -76 501 -87 l 682 0 l 192 0 q 115 20 139 0 q 92 81 92 40 q 99 132 92 100 l 133 299 q 153 364 142 338 q 181 406 164 390 q 221 427 197 421 q 278 433 244 433 l 635 433 l 610 314 l 354 314 q 326 307 335 314 q 314 278 318 300 l 299 204 q 297 193 297 197 q 296 185 296 189 q 322 167 296 167 l 647 167 l 721 511 q 722 526 722 517 q 715 544 722 538 q 689 550 708 550 l 213 550 l 244 703 l 819 703 q 906 683 881 703 q 931 619 931 663 q 924 565 931 600 l 804 0 l 615 -97 q 593 -114 599 -106 q 583 -142 588 -122 l 574 -185 q 572 -197 572 -189 q 593 -214 572 -214 l 758 -214 l 728 -356 l 481 -356 z "},"Ć":{"ha":814,"x_min":97,"x_max":957,"o":"m 97 0 m 229 0 q 128 25 158 0 q 97 103 97 50 q 99 131 97 117 q 104 164 100 146 l 233 776 q 295 900 251 860 q 428 940 339 940 l 957 940 l 918 753 l 493 753 q 448 742 460 753 q 429 700 436 732 l 331 242 q 328 230 329 235 q 328 219 328 225 q 338 197 328 204 q 374 190 347 190 l 801 190 l 761 0 l 229 0 m 483 1028 l 751 1311 l 908 1311 l 607 1028 l 483 1028 z "},"ć":{"ha":753,"x_min":90,"x_max":844,"o":"m 90 0 m 200 0 q 116 20 142 0 q 90 83 90 40 q 97 138 90 103 l 188 565 q 238 669 203 636 q 349 703 274 703 l 844 703 l 808 532 l 413 532 q 381 525 389 532 q 367 494 372 518 l 307 214 q 305 204 306 208 q 304 196 304 200 q 336 175 304 175 l 732 175 l 696 0 l 200 0 m 403 790 l 671 1074 l 828 1074 l 526 790 l 403 790 z "},"Ċ":{"ha":814,"x_min":97,"x_max":957,"o":"m 97 0 m 229 0 q 128 25 158 0 q 97 103 97 50 q 99 131 97 117 q 104 164 100 146 l 233 776 q 295 900 251 860 q 428 940 339 940 l 957 940 l 918 753 l 493 753 q 448 742 460 753 q 429 700 436 732 l 331 242 q 328 230 329 235 q 328 219 328 225 q 338 197 328 204 q 374 190 347 190 l 801 190 l 761 0 l 229 0 m 558 1024 l 603 1235 l 778 1235 l 733 1024 l 558 1024 z "},"ċ":{"ha":753,"x_min":90,"x_max":844,"o":"m 90 0 m 200 0 q 116 20 142 0 q 90 83 90 40 q 97 138 90 103 l 188 565 q 238 669 203 636 q 349 703 274 703 l 844 703 l 808 532 l 413 532 q 381 525 389 532 q 367 494 372 518 l 307 214 q 305 204 306 208 q 304 196 304 200 q 336 175 304 175 l 732 175 l 696 0 l 200 0 m 476 786 l 521 997 l 696 997 l 651 786 l 476 786 z "},"Č":{"ha":814,"x_min":97,"x_max":1033,"o":"m 97 0 m 229 0 q 128 25 158 0 q 97 103 97 50 q 99 131 97 117 q 104 164 100 146 l 233 776 q 295 900 251 860 q 428 940 339 940 l 957 940 l 918 753 l 493 753 q 448 742 460 753 q 429 700 436 732 l 331 242 q 328 230 329 235 q 328 219 328 225 q 338 197 328 204 q 374 190 347 190 l 801 190 l 761 0 l 229 0 m 564 1028 q 526 1090 549 1051 q 478 1169 503 1128 q 430 1249 453 1211 q 392 1311 407 1288 l 531 1311 l 664 1088 l 897 1311 l 1033 1311 l 729 1028 l 564 1028 z "},"č":{"ha":753,"x_min":90,"x_max":940,"o":"m 90 0 m 200 0 q 116 20 142 0 q 90 83 90 40 q 97 138 90 103 l 188 565 q 238 669 203 636 q 349 703 274 703 l 844 703 l 808 532 l 413 532 q 381 525 389 532 q 367 494 372 518 l 307 214 q 305 204 306 208 q 304 196 304 200 q 336 175 304 175 l 732 175 l 696 0 l 200 0 m 471 790 q 433 852 456 814 q 385 932 410 890 q 337 1012 360 974 q 299 1074 314 1050 l 438 1074 l 571 850 l 804 1074 l 940 1074 l 636 790 l 471 790 z "},"Ď":{"ha":939,"x_min":78,"x_max":1047,"o":"m 78 0 m 78 0 l 224 686 l 432 686 l 325 183 l 621 183 q 714 274 694 183 l 797 665 q 801 697 801 682 q 742 756 801 756 l 238 756 l 276 940 l 819 940 q 1025 774 1025 940 q 1017 700 1025 739 l 918 240 q 819 61 893 122 q 621 0 746 0 l 78 0 m 578 1028 q 540 1090 563 1051 q 492 1169 517 1128 q 444 1249 467 1211 q 406 1311 421 1288 l 544 1311 l 678 1088 l 911 1311 l 1047 1311 l 743 1028 l 578 1028 z "},"ď":{"ha":1058,"x_min":90,"x_max":1269,"o":"m 90 0 m 200 0 q 116 20 142 0 q 90 83 90 40 q 97 138 90 103 l 188 565 q 242 669 203 636 q 349 703 282 703 l 681 703 l 644 535 l 413 535 q 381 527 390 535 q 367 496 372 519 l 307 211 q 304 193 304 197 q 336 172 304 172 l 638 172 l 813 997 l 1008 997 l 797 0 l 200 0 m 958 651 l 1092 997 l 1269 997 l 1114 651 l 958 651 z "},"Đ":{"ha":938,"x_min":75,"x_max":1024,"o":"m 75 0 m 75 0 l 158 394 l 104 394 l 131 521 l 185 521 l 221 688 l 429 688 l 393 521 l 621 521 l 594 394 l 367 394 l 322 183 l 619 183 q 713 274 693 183 l 797 667 q 799 682 799 675 q 800 696 800 689 q 740 757 800 757 l 235 757 l 274 940 l 818 940 q 1024 774 1024 940 q 1015 700 1024 739 l 917 240 q 818 61 892 122 q 619 0 744 0 l 75 0 z "},"đ":{"ha":872,"x_min":90,"x_max":1058,"o":"m 200 0 q 116 20 142 0 q 90 83 90 40 q 97 138 90 103 l 188 565 q 242 669 203 636 q 349 703 282 703 l 681 703 l 644 535 l 413 535 q 381 527 390 535 q 367 496 372 519 l 307 211 q 304 193 304 197 q 336 172 304 172 l 638 172 l 767 783 l 392 783 l 418 907 l 793 907 l 813 997 l 1008 997 l 989 907 l 1058 907 l 1032 783 l 963 783 l 797 0 l 200 0 z "},"Ē":{"ha":846,"x_min":71,"x_max":1006,"o":"m 71 0 m 71 0 l 217 688 l 435 688 l 401 535 l 747 535 l 715 385 l 369 385 l 328 188 l 807 188 l 768 0 l 71 0 m 231 757 l 269 940 l 967 940 l 928 757 l 231 757 m 339 1118 l 365 1242 l 1006 1242 l 979 1118 l 339 1118 z "},"ē":{"ha":858,"x_min":83,"x_max":961,"o":"m 83 0 m 194 0 q 109 20 135 0 q 83 83 83 40 q 90 138 83 103 l 181 565 q 231 669 196 636 q 343 703 267 703 l 818 703 q 894 683 871 703 q 917 622 917 663 q 911 571 917 597 l 853 294 l 385 294 l 408 411 l 692 411 l 713 506 q 714 524 714 513 q 708 539 714 535 q 685 543 701 543 l 406 543 q 374 535 382 543 q 360 504 365 528 l 294 201 q 292 190 293 194 q 292 181 292 185 q 299 164 292 168 q 324 160 306 160 l 797 160 l 764 0 l 194 0 m 294 881 l 321 1004 l 961 1004 l 935 881 l 294 881 z "},"Ĕ":{"ha":846,"x_min":71,"x_max":986,"o":"m 71 0 m 71 0 l 217 688 l 435 688 l 401 535 l 747 535 l 715 385 l 369 385 l 328 188 l 807 188 l 768 0 l 71 0 m 231 757 l 269 940 l 967 940 l 928 757 l 231 757 m 986 1311 q 950 1194 972 1247 q 888 1103 928 1142 q 789 1044 849 1065 q 640 1024 729 1024 q 526 1036 572 1024 q 453 1072 481 1049 q 413 1127 425 1094 q 401 1201 401 1160 q 405 1253 401 1226 q 415 1311 408 1281 l 501 1311 q 494 1272 497 1290 q 492 1236 492 1253 q 528 1147 492 1178 q 660 1115 564 1115 q 761 1128 719 1115 q 830 1167 803 1142 q 873 1229 857 1193 q 900 1311 889 1265 l 986 1311 z "},"ĕ":{"ha":858,"x_min":83,"x_max":942,"o":"m 83 0 m 194 0 q 109 20 135 0 q 83 83 83 40 q 90 138 83 103 l 181 565 q 231 669 196 636 q 343 703 267 703 l 818 703 q 894 683 871 703 q 917 622 917 663 q 911 571 917 597 l 853 294 l 385 294 l 408 411 l 692 411 l 713 506 q 714 524 714 513 q 708 539 714 535 q 685 543 701 543 l 406 543 q 374 535 382 543 q 360 504 365 528 l 294 201 q 292 190 293 194 q 292 181 292 185 q 299 164 292 168 q 324 160 306 160 l 797 160 l 764 0 l 194 0 m 942 1074 q 906 957 928 1010 q 844 866 883 904 q 744 807 804 828 q 596 786 685 786 q 482 799 528 786 q 408 834 436 811 q 369 890 381 857 q 357 964 357 922 q 360 1016 357 989 q 371 1074 364 1043 l 457 1074 q 450 1034 453 1053 q 447 999 447 1015 q 483 909 447 940 q 615 878 519 878 q 717 891 675 878 q 785 930 758 904 q 828 992 813 956 q 856 1074 844 1028 l 942 1074 z "},"Ė":{"ha":846,"x_min":71,"x_max":967,"o":"m 71 0 m 71 0 l 217 688 l 435 688 l 401 535 l 747 535 l 715 385 l 369 385 l 328 188 l 807 188 l 768 0 l 71 0 m 231 757 l 269 940 l 967 940 l 928 757 l 231 757 m 551 1024 l 596 1235 l 771 1235 l 726 1024 l 551 1024 z "},"ė":{"ha":858,"x_min":83,"x_max":917,"o":"m 83 0 m 194 0 q 109 20 135 0 q 83 83 83 40 q 90 138 83 103 l 181 565 q 231 669 196 636 q 343 703 267 703 l 818 703 q 894 683 871 703 q 917 622 917 663 q 911 571 917 597 l 853 294 l 385 294 l 408 411 l 692 411 l 713 506 q 714 524 714 513 q 708 539 714 535 q 685 543 701 543 l 406 543 q 374 535 382 543 q 360 504 365 528 l 294 201 q 292 190 293 194 q 292 181 292 185 q 299 164 292 168 q 324 160 306 160 l 797 160 l 764 0 l 194 0 m 508 786 l 553 997 l 728 997 l 683 786 l 508 786 z "},"Ę":{"ha":846,"x_min":71,"x_max":967,"o":"m 444 -356 q 397 -342 415 -356 q 379 -296 379 -328 q 383 -265 379 -282 l 399 -194 q 410 -153 404 -171 q 426 -122 417 -136 q 451 -98 436 -108 q 488 -76 465 -87 l 646 0 l 71 0 l 217 688 l 435 688 l 401 535 l 747 535 l 715 385 l 369 385 l 328 188 l 807 188 l 768 0 l 579 -97 q 557 -114 563 -106 q 547 -142 551 -122 l 538 -185 q 536 -197 536 -189 q 557 -214 536 -214 l 722 -214 l 692 -356 l 444 -356 m 231 757 l 269 940 l 967 940 l 928 757 l 231 757 z "},"ę":{"ha":858,"x_min":83,"x_max":917,"o":"m 440 -356 q 393 -342 411 -356 q 375 -296 375 -328 q 379 -265 375 -282 l 394 -194 q 406 -153 400 -171 q 422 -122 413 -136 q 447 -98 432 -108 q 483 -76 461 -87 l 642 0 l 194 0 q 109 20 135 0 q 83 83 83 40 q 90 138 83 103 l 181 565 q 231 669 196 636 q 343 703 267 703 l 818 703 q 894 683 871 703 q 917 622 917 663 q 911 571 917 597 l 853 294 l 385 294 l 408 411 l 692 411 l 713 506 q 714 524 714 513 q 708 539 714 535 q 685 543 701 543 l 406 543 q 374 535 382 543 q 360 504 365 528 l 294 201 q 292 190 293 194 q 292 181 292 185 q 299 164 292 168 q 324 160 306 160 l 797 160 l 764 0 l 575 -97 q 553 -114 558 -106 q 543 -142 547 -122 l 533 -185 q 532 -197 532 -189 q 553 -214 532 -214 l 718 -214 l 688 -356 l 440 -356 z "},"Ě":{"ha":846,"x_min":71,"x_max":1021,"o":"m 71 0 m 71 0 l 217 688 l 435 688 l 401 535 l 747 535 l 715 385 l 369 385 l 328 188 l 807 188 l 768 0 l 71 0 m 231 757 l 269 940 l 967 940 l 928 757 l 231 757 m 551 1028 q 513 1090 536 1051 q 465 1169 490 1128 q 417 1249 440 1211 q 379 1311 394 1288 l 518 1311 l 651 1088 l 885 1311 l 1021 1311 l 717 1028 l 551 1028 z "},"ě":{"ha":858,"x_min":83,"x_max":978,"o":"m 83 0 m 194 0 q 109 20 135 0 q 83 83 83 40 q 90 138 83 103 l 181 565 q 231 669 196 636 q 343 703 267 703 l 818 703 q 894 683 871 703 q 917 622 917 663 q 911 571 917 597 l 853 294 l 385 294 l 408 411 l 692 411 l 713 506 q 714 524 714 513 q 708 539 714 535 q 685 543 701 543 l 406 543 q 374 535 382 543 q 360 504 365 528 l 294 201 q 292 190 293 194 q 292 181 292 185 q 299 164 292 168 q 324 160 306 160 l 797 160 l 764 0 l 194 0 m 508 790 q 470 852 493 814 q 422 932 447 890 q 374 1012 397 974 q 336 1074 351 1050 l 475 1074 l 608 850 l 842 1074 l 978 1074 l 674 790 l 508 790 z "},"Ğ":{"ha":896,"x_min":97,"x_max":1011,"o":"m 97 0 m 231 0 q 128 25 160 0 q 97 101 97 50 q 106 164 97 128 l 235 776 q 296 900 253 860 q 429 940 339 940 l 1010 940 l 971 753 l 482 753 q 444 743 454 753 q 426 701 433 733 l 325 222 q 322 204 322 208 q 331 185 322 190 q 360 181 339 181 l 661 181 l 707 394 l 521 394 l 553 546 l 936 546 l 821 0 l 231 0 m 1011 1311 q 975 1194 997 1247 q 913 1103 953 1142 q 814 1044 874 1065 q 665 1024 754 1024 q 551 1036 597 1024 q 478 1072 506 1049 q 438 1127 450 1094 q 426 1201 426 1160 q 430 1253 426 1226 q 440 1311 433 1281 l 526 1311 q 519 1272 522 1290 q 517 1236 517 1253 q 553 1147 517 1178 q 685 1115 589 1115 q 786 1128 744 1115 q 855 1167 828 1142 q 898 1229 882 1193 q 925 1311 914 1265 l 1011 1311 z "},"ğ":{"ha":851,"x_min":22,"x_max":939,"o":"m 22 0 m 22 -294 l 58 -126 l 528 -126 q 560 -118 551 -126 q 575 -86 569 -110 l 707 535 l 404 535 q 372 526 381 535 q 358 496 363 518 l 294 196 q 293 181 293 189 q 325 158 293 158 l 558 158 l 525 0 l 192 0 q 108 20 133 0 q 82 83 82 40 q 89 138 82 103 l 179 565 q 230 669 194 636 q 340 703 265 703 l 938 703 l 754 -157 q 703 -261 739 -228 q 592 -294 668 -294 l 22 -294 m 939 1074 q 903 957 925 1010 q 841 866 881 904 q 742 807 801 828 q 593 786 682 786 q 479 799 525 786 q 406 834 433 811 q 366 890 378 857 q 354 964 354 922 q 358 1016 354 989 q 368 1074 361 1043 l 454 1074 q 447 1034 450 1053 q 444 999 444 1015 q 481 909 444 940 q 613 878 517 878 q 714 891 672 878 q 783 930 756 904 q 826 992 810 956 q 853 1074 842 1028 l 939 1074 z "},"Ġ":{"ha":896,"x_min":97,"x_max":1010,"o":"m 97 0 m 231 0 q 128 25 160 0 q 97 101 97 50 q 106 164 97 128 l 235 776 q 296 900 253 860 q 429 940 339 940 l 1010 940 l 971 753 l 482 753 q 444 743 454 753 q 426 701 433 733 l 325 222 q 322 204 322 208 q 331 185 322 190 q 360 181 339 181 l 661 181 l 707 394 l 521 394 l 553 546 l 936 546 l 821 0 l 231 0 m 576 1024 l 621 1235 l 796 1235 l 751 1024 l 576 1024 z "},"ġ":{"ha":851,"x_min":22,"x_max":938,"o":"m 22 0 m 22 -294 l 58 -126 l 528 -126 q 560 -118 551 -126 q 575 -86 569 -110 l 707 535 l 404 535 q 372 526 381 535 q 358 496 363 518 l 294 196 q 293 181 293 189 q 325 158 293 158 l 558 158 l 525 0 l 192 0 q 108 20 133 0 q 82 83 82 40 q 89 138 82 103 l 179 565 q 230 669 194 636 q 340 703 265 703 l 938 703 l 754 -157 q 703 -261 739 -228 q 592 -294 668 -294 l 22 -294 m 504 786 l 549 997 l 724 997 l 679 786 l 504 786 z "},"Ģ":{"ha":896,"x_min":97,"x_max":1010,"o":"m 97 0 m 231 0 q 128 25 160 0 q 97 101 97 50 q 106 164 97 128 l 235 776 q 296 900 253 860 q 429 940 339 940 l 1010 940 l 971 753 l 482 753 q 444 743 454 753 q 426 701 433 733 l 325 222 q 322 204 322 208 q 331 185 322 190 q 360 181 339 181 l 661 181 l 707 394 l 521 394 l 553 546 l 936 546 l 821 0 l 231 0 m 265 -356 l 379 -83 l 536 -83 l 400 -356 l 265 -356 z "},"ģ":{"ha":851,"x_min":22,"x_max":938,"o":"m 22 0 m 22 -294 l 58 -126 l 528 -126 q 560 -118 551 -126 q 575 -86 569 -110 l 707 535 l 404 535 q 372 526 381 535 q 358 496 363 518 l 294 196 q 293 181 293 189 q 325 158 293 158 l 558 158 l 525 0 l 192 0 q 108 20 133 0 q 82 83 82 40 q 89 138 82 103 l 179 565 q 230 669 194 636 q 340 703 265 703 l 938 703 l 754 -157 q 703 -261 739 -228 q 592 -294 668 -294 l 22 -294 m 778 1029 l 664 757 l 507 757 l 643 1029 l 778 1029 z "},"Ħ":{"ha":946,"x_min":76,"x_max":1065,"o":"m 867 0 l 656 0 l 738 389 l 369 389 l 288 0 l 76 0 l 275 940 l 486 940 l 460 814 l 828 814 l 854 940 l 1065 940 l 867 0 m 775 565 l 801 690 l 433 690 l 407 565 l 775 565 z "},"ħ":{"ha":904,"x_min":75,"x_max":956,"o":"m 435 783 l 401 626 q 462 685 429 667 q 539 703 494 703 l 847 703 q 930 683 904 703 q 956 618 956 664 q 950 565 956 592 l 831 0 l 638 0 l 742 496 q 744 513 744 510 q 710 535 744 535 l 419 535 q 389 527 399 535 q 374 496 379 519 l 269 0 l 75 0 l 240 783 l 183 783 l 210 907 l 267 907 l 286 997 l 481 997 l 461 907 l 850 907 l 824 783 l 435 783 z "},"Ī":{"ha":375,"x_min":81,"x_max":774,"o":"m 81 0 m 81 0 l 279 940 l 490 940 l 292 0 l 81 0 m 107 1118 l 133 1242 l 774 1242 l 747 1118 l 107 1118 z "},"ī":{"ha":569,"x_min":153,"x_max":819,"o":"m 153 0 m 188 0 l 336 703 l 531 703 l 382 0 l 188 0 m 153 881 l 179 1004 l 819 1004 l 793 881 l 153 881 z "},"Ĭ":{"ha":375,"x_min":81,"x_max":754,"o":"m 81 0 m 81 0 l 279 940 l 490 940 l 292 0 l 81 0 m 754 1311 q 718 1194 740 1247 q 656 1103 696 1142 q 557 1044 617 1065 q 408 1024 497 1024 q 294 1036 340 1024 q 221 1072 249 1049 q 181 1127 193 1094 q 169 1201 169 1160 q 173 1253 169 1226 q 183 1311 176 1281 l 269 1311 q 263 1272 265 1290 q 260 1236 260 1253 q 296 1147 260 1178 q 428 1115 332 1115 q 529 1128 488 1115 q 598 1167 571 1142 q 641 1229 625 1193 q 668 1311 657 1265 l 754 1311 z "},"ĭ":{"ha":510,"x_min":157,"x_max":769,"o":"m 157 0 m 157 0 l 306 703 l 500 703 l 351 0 l 157 0 m 769 1074 q 733 957 756 1010 q 672 866 711 904 q 572 807 632 828 q 424 786 513 786 q 310 799 356 786 q 236 834 264 811 q 197 890 208 857 q 185 964 185 922 q 188 1016 185 989 q 199 1074 192 1043 l 285 1074 q 278 1034 281 1053 q 275 999 275 1015 q 311 909 275 940 q 443 878 347 878 q 544 891 503 878 q 613 930 586 904 q 656 992 640 956 q 683 1074 672 1028 l 769 1074 z "},"Į":{"ha":375,"x_min":-96,"x_max":490,"o":"m -31 -356 q -78 -342 -60 -356 q -96 -296 -96 -328 q -92 -265 -96 -282 l -76 -194 q -65 -153 -71 -171 q -49 -122 -58 -136 q -26 -98 -40 -108 q 11 -76 -11 -87 l 169 0 l 81 0 l 279 940 l 490 940 l 292 0 l 103 -97 q 81 -114 86 -106 q 71 -142 75 -122 l 61 -185 q 60 -197 60 -189 q 81 -214 60 -214 l 246 -214 l 215 -356 l -31 -356 z "},"į":{"ha":351,"x_min":-115,"x_max":485,"o":"m -50 -356 q -97 -342 -79 -356 q -115 -296 -115 -328 q -111 -265 -115 -282 l -96 -194 q -84 -153 -90 -171 q -68 -122 -78 -136 q -44 -98 -58 -108 q -7 -76 -29 -87 l 150 0 l 78 0 l 226 703 l 421 703 l 272 0 l 83 -97 q 61 -114 67 -106 q 51 -142 56 -122 l 42 -185 q 40 -197 40 -189 q 61 -214 40 -214 l 226 -214 l 196 -356 l -50 -356 m 244 786 l 289 997 l 485 997 l 440 786 l 244 786 z "},"İ":{"ha":375,"x_min":81,"x_max":536,"o":"m 81 0 m 81 0 l 279 940 l 490 940 l 292 0 l 81 0 m 317 1024 l 361 1235 l 536 1235 l 492 1024 l 317 1024 z "},"ı":{"ha":351,"x_min":78,"x_max":421,"o":"m 78 0 l 226 703 l 421 703 l 272 0 l 78 0 z "},"Ĳ":{"ha":1132,"x_min":81,"x_max":1253,"o":"m 81 0 m 81 0 l 279 940 l 490 940 l 292 0 l 81 0 m 414 0 l 454 190 l 833 190 q 876 201 865 190 q 893 240 886 211 l 1003 757 l 839 757 l 878 940 l 1253 940 l 1089 164 q 1028 40 1071 81 q 896 0 985 0 l 414 0 z "},"ĳ":{"ha":722,"x_min":78,"x_max":850,"o":"m 78 0 m 78 0 l 226 703 l 421 703 l 272 0 l 78 0 m 244 786 l 289 997 l 485 997 l 440 786 l 244 786 m 186 -294 l 222 -126 l 381 -126 q 412 -118 403 -126 q 425 -90 421 -110 l 593 703 l 788 703 l 604 -157 q 553 -261 589 -228 q 443 -294 518 -294 l 186 -294 m 610 786 l 654 997 l 850 997 l 806 786 l 610 786 z "},"Ķ":{"ha":981,"x_min":76,"x_max":1090,"o":"m 76 0 m 694 0 l 765 335 q 769 368 769 356 q 758 394 769 388 q 715 400 746 400 l 407 400 l 426 496 l 860 940 l 1090 940 l 706 556 l 856 556 q 996 432 996 556 q 988 364 996 401 l 911 0 l 694 0 m 76 0 l 275 940 l 486 940 l 288 0 l 76 0 m 308 -356 l 422 -83 l 579 -83 l 443 -356 l 308 -356 z "},"ķ":{"ha":897,"x_min":74,"x_max":960,"o":"m 74 0 m 74 0 l 285 997 l 481 997 l 269 0 l 74 0 m 635 0 l 683 233 q 685 247 685 240 q 686 258 686 253 q 676 282 686 275 q 643 289 667 289 l 365 289 l 381 360 l 746 703 l 960 703 l 651 421 l 786 421 q 892 324 892 421 q 886 272 892 299 l 829 0 l 635 0 m 267 -356 l 381 -83 l 538 -83 l 401 -356 l 267 -356 z "},"Ĺ":{"ha":749,"x_min":75,"x_max":746,"o":"m 75 0 m 706 0 l 75 0 l 274 940 l 485 940 l 326 190 l 746 190 l 706 0 m 258 1028 l 526 1311 l 683 1311 l 382 1028 l 258 1028 z "},"ĺ":{"ha":344,"x_min":75,"x_max":674,"o":"m 75 0 m 75 0 l 286 997 l 481 997 l 269 0 l 75 0 m 249 1028 l 517 1311 l 674 1311 l 372 1028 l 249 1028 z "},"Ļ":{"ha":749,"x_min":75,"x_max":746,"o":"m 75 0 m 706 0 l 75 0 l 274 940 l 485 940 l 326 190 l 746 190 l 706 0 m 192 -356 l 306 -83 l 463 -83 l 326 -356 l 192 -356 z "},"ļ":{"ha":344,"x_min":-29,"x_max":481,"o":"m 0 0 m 75 0 l 286 997 l 481 997 l 269 0 l 75 0 m -29 -356 l 85 -83 l 242 -83 l 106 -356 l -29 -356 z "},"Ľ":{"ha":749,"x_min":75,"x_max":818,"o":"m 75 0 m 706 0 l 75 0 l 274 940 l 485 940 l 326 190 l 746 190 l 706 0 m 507 651 l 640 997 l 818 997 l 663 651 l 507 651 z "},"ľ":{"ha":543,"x_min":75,"x_max":754,"o":"m 75 0 m 75 0 l 286 997 l 481 997 l 269 0 l 75 0 m 443 651 l 576 997 l 754 997 l 599 651 l 443 651 z "},"Ŀ":{"ha":749,"x_min":75,"x_max":746,"o":"m 75 0 m 706 0 l 75 0 l 274 940 l 485 940 l 326 190 l 746 190 l 706 0 m 493 421 l 538 632 l 713 632 l 668 421 l 493 421 z "},"ŀ":{"ha":489,"x_min":75,"x_max":617,"o":"m 75 0 m 75 0 l 286 997 l 481 997 l 269 0 l 75 0 m 397 399 l 442 610 l 617 610 l 572 399 l 397 399 z "},"Ł":{"ha":767,"x_min":93,"x_max":764,"o":"m 93 0 l 210 550 l 125 532 l 150 647 l 233 665 l 292 940 l 503 940 l 456 714 l 686 765 l 661 650 l 431 599 l 344 192 l 764 192 l 724 0 l 93 0 z "},"ł":{"ha":390,"x_min":96,"x_max":551,"o":"m 96 0 l 228 621 l 139 597 l 165 719 l 253 743 l 307 997 l 504 997 l 463 799 l 551 822 l 526 700 l 436 676 l 293 0 l 96 0 z "},"Ń":{"ha":976,"x_min":75,"x_max":1096,"o":"m 75 0 m 757 0 l 401 617 l 271 0 l 75 0 l 274 940 l 472 940 l 781 379 l 899 940 l 1096 940 l 897 0 l 757 0 m 564 1028 l 832 1311 l 989 1311 l 688 1028 l 564 1028 z "},"ń":{"ha":901,"x_min":71,"x_max":951,"o":"m 71 0 m 633 0 l 738 496 q 740 513 740 510 q 706 535 740 535 l 415 535 q 385 527 394 535 q 369 496 375 519 l 265 0 l 71 0 l 219 703 l 407 703 l 390 626 q 528 703 440 703 l 843 703 q 926 683 900 703 q 951 618 951 664 q 946 565 951 592 l 826 0 l 633 0 m 476 790 l 744 1074 l 901 1074 l 600 790 l 476 790 z "},"Ņ":{"ha":976,"x_min":75,"x_max":1096,"o":"m 75 0 m 757 0 l 401 617 l 271 0 l 75 0 l 274 940 l 472 940 l 781 379 l 899 940 l 1096 940 l 897 0 l 757 0 m 306 -356 l 419 -83 l 576 -83 l 440 -356 l 306 -356 z "},"ņ":{"ha":901,"x_min":71,"x_max":951,"o":"m 71 0 m 633 0 l 738 496 q 740 513 740 510 q 706 535 740 535 l 415 535 q 385 527 394 535 q 369 496 375 519 l 265 0 l 71 0 l 219 703 l 407 703 l 390 626 q 528 703 440 703 l 843 703 q 926 683 900 703 q 951 618 951 664 q 946 565 951 592 l 826 0 l 633 0 m 254 -356 l 368 -83 l 525 -83 l 389 -356 l 254 -356 z "},"Ň":{"ha":976,"x_min":75,"x_max":1096,"o":"m 75 0 m 757 0 l 401 617 l 271 0 l 75 0 l 274 940 l 472 940 l 781 379 l 899 940 l 1096 940 l 897 0 l 757 0 m 617 1028 q 578 1090 601 1051 q 531 1169 556 1128 q 483 1249 506 1211 q 444 1311 460 1288 l 583 1311 l 717 1088 l 950 1311 l 1086 1311 l 782 1028 l 617 1028 z "},"ň":{"ha":901,"x_min":71,"x_max":1007,"o":"m 71 0 m 633 0 l 738 496 q 740 513 740 510 q 706 535 740 535 l 415 535 q 385 527 394 535 q 369 496 375 519 l 265 0 l 71 0 l 219 703 l 407 703 l 390 626 q 528 703 440 703 l 843 703 q 926 683 900 703 q 951 618 951 664 q 946 565 951 592 l 826 0 l 633 0 m 538 790 q 499 852 522 814 q 451 932 476 890 q 403 1012 426 974 q 365 1074 381 1050 l 504 1074 l 638 850 l 871 1074 l 1007 1074 l 703 790 l 538 790 z "},"Ŋ":{"ha":976,"x_min":75,"x_max":1096,"o":"m 431 -356 l 467 -187 l 626 -187 q 657 -179 649 -187 q 669 -151 665 -171 l 717 68 l 401 617 l 271 0 l 75 0 l 274 940 l 472 940 l 781 379 l 899 940 l 1096 940 l 850 -218 q 799 -322 835 -289 q 689 -356 764 -356 l 431 -356 z "},"ŋ":{"ha":901,"x_min":71,"x_max":951,"o":"m 360 -356 l 396 -187 l 556 -187 q 586 -179 578 -187 q 599 -151 594 -171 l 738 496 q 740 513 740 510 q 706 535 740 535 l 415 535 q 385 527 394 535 q 369 496 375 519 l 265 0 l 71 0 l 219 703 l 407 703 l 390 626 q 528 703 440 703 l 843 703 q 926 683 900 703 q 951 618 951 664 q 946 565 951 592 l 779 -218 q 728 -322 764 -289 q 618 -356 693 -356 l 360 -356 z "},"Ō":{"ha":928,"x_min":97,"x_max":1046,"o":"m 97 0 m 231 0 q 128 25 160 0 q 97 101 97 50 q 106 164 97 128 l 235 776 q 296 900 253 860 q 429 940 339 940 l 897 940 q 999 915 968 940 q 1029 838 1029 890 q 1027 808 1029 824 q 1022 776 1025 793 l 893 164 q 831 40 875 81 q 699 0 788 0 l 231 0 m 796 703 q 798 715 797 710 q 799 725 799 721 q 750 757 799 757 l 488 757 q 448 746 460 757 q 429 703 436 735 l 329 235 q 326 217 326 221 q 367 188 326 188 l 629 188 q 676 199 663 188 q 696 235 690 210 l 796 703 m 379 1118 l 406 1242 l 1046 1242 l 1019 1118 l 379 1118 z "},"ō":{"ha":879,"x_min":90,"x_max":972,"o":"m 90 0 m 200 0 q 116 20 142 0 q 90 83 90 40 q 97 138 90 103 l 188 565 q 238 669 203 636 q 349 703 274 703 l 826 703 q 913 683 888 703 q 938 619 938 663 q 931 565 938 600 l 840 138 q 790 33 825 67 q 678 0 754 0 l 200 0 m 721 496 q 724 513 724 510 q 686 535 724 535 l 411 535 q 380 527 389 535 q 367 496 371 519 l 307 210 q 305 200 306 204 q 304 192 304 196 q 335 172 304 172 l 610 172 q 646 181 635 172 q 661 210 657 189 l 721 496 m 306 881 l 332 1004 l 972 1004 l 946 881 l 306 881 z "},"Ŏ":{"ha":928,"x_min":97,"x_max":1029,"o":"m 97 0 m 231 0 q 128 25 160 0 q 97 101 97 50 q 106 164 97 128 l 235 776 q 296 900 253 860 q 429 940 339 940 l 897 940 q 999 915 968 940 q 1029 838 1029 890 q 1027 808 1029 824 q 1022 776 1025 793 l 893 164 q 831 40 875 81 q 699 0 788 0 l 231 0 m 796 703 q 798 715 797 710 q 799 725 799 721 q 750 757 799 757 l 488 757 q 448 746 460 757 q 429 703 436 735 l 329 235 q 326 217 326 221 q 367 188 326 188 l 629 188 q 676 199 663 188 q 696 235 690 210 l 796 703 m 1026 1311 q 990 1194 1013 1247 q 928 1103 968 1142 q 829 1044 889 1065 q 681 1024 769 1024 q 567 1036 613 1024 q 493 1072 521 1049 q 453 1127 465 1094 q 442 1201 442 1160 q 445 1253 442 1226 q 456 1311 449 1281 l 542 1311 q 535 1272 538 1290 q 532 1236 532 1253 q 568 1147 532 1178 q 700 1115 604 1115 q 801 1128 760 1115 q 870 1167 843 1142 q 913 1229 897 1193 q 940 1311 929 1265 l 1026 1311 z "},"ŏ":{"ha":879,"x_min":90,"x_max":953,"o":"m 90 0 m 200 0 q 116 20 142 0 q 90 83 90 40 q 97 138 90 103 l 188 565 q 238 669 203 636 q 349 703 274 703 l 826 703 q 913 683 888 703 q 938 619 938 663 q 931 565 938 600 l 840 138 q 790 33 825 67 q 678 0 754 0 l 200 0 m 721 496 q 724 513 724 510 q 686 535 724 535 l 411 535 q 380 527 389 535 q 367 496 371 519 l 307 210 q 305 200 306 204 q 304 192 304 196 q 335 172 304 172 l 610 172 q 646 181 635 172 q 661 210 657 189 l 721 496 m 953 1074 q 917 957 939 1010 q 855 866 894 904 q 756 807 815 828 q 607 786 696 786 q 493 799 539 786 q 419 834 447 811 q 380 890 392 857 q 368 964 368 922 q 372 1016 368 989 q 382 1074 375 1043 l 468 1074 q 461 1034 464 1053 q 458 999 458 1015 q 494 909 458 940 q 626 878 531 878 q 728 891 686 878 q 797 930 769 904 q 840 992 824 956 q 867 1074 856 1028 l 953 1074 z "},"Ő":{"ha":928,"x_min":97,"x_max":1118,"o":"m 97 0 m 231 0 q 128 25 160 0 q 97 101 97 50 q 106 164 97 128 l 235 776 q 296 900 253 860 q 429 940 339 940 l 897 940 q 999 915 968 940 q 1029 838 1029 890 q 1027 808 1029 824 q 1022 776 1025 793 l 893 164 q 831 40 875 81 q 699 0 788 0 l 231 0 m 796 703 q 798 715 797 710 q 799 725 799 721 q 750 757 799 757 l 488 757 q 448 746 460 757 q 429 703 436 735 l 329 235 q 326 217 326 221 q 367 188 326 188 l 629 188 q 676 199 663 188 q 696 235 690 210 l 796 703 m 693 1028 l 961 1311 l 1118 1311 l 817 1028 l 693 1028 m 388 1028 l 656 1311 l 813 1311 l 511 1028 l 388 1028 z "},"ő":{"ha":879,"x_min":90,"x_max":1043,"o":"m 90 0 m 200 0 q 116 20 142 0 q 90 83 90 40 q 97 138 90 103 l 188 565 q 238 669 203 636 q 349 703 274 703 l 826 703 q 913 683 888 703 q 938 619 938 663 q 931 565 938 600 l 840 138 q 790 33 825 67 q 678 0 754 0 l 200 0 m 721 496 q 724 513 724 510 q 686 535 724 535 l 411 535 q 380 527 389 535 q 367 496 371 519 l 307 210 q 305 200 306 204 q 304 192 304 196 q 335 172 304 172 l 610 172 q 646 181 635 172 q 661 210 657 189 l 721 496 m 618 790 l 886 1074 l 1043 1074 l 742 790 l 618 790 m 313 790 l 581 1074 l 738 1074 l 436 790 l 313 790 z "},"Œ":{"ha":1340,"x_min":97,"x_max":1463,"o":"m 231 0 q 128 25 160 0 q 97 101 97 50 q 106 164 97 128 l 235 776 q 296 900 253 860 q 429 940 339 940 l 1463 940 l 1424 757 l 486 757 q 447 747 458 757 q 431 710 436 738 l 331 236 q 328 224 328 229 q 328 214 328 218 q 336 193 328 199 q 365 188 344 188 l 631 188 l 738 688 l 954 688 l 921 535 l 1243 535 l 1211 385 l 889 385 l 847 188 l 1303 188 l 1264 0 l 231 0 z "},"œ":{"ha":1382,"x_min":90,"x_max":1435,"o":"m 200 0 q 116 20 142 0 q 90 83 90 40 q 97 138 90 103 l 188 565 q 238 669 203 636 q 349 703 274 703 l 1338 703 q 1413 683 1390 703 q 1435 622 1435 663 q 1429 571 1435 597 l 1371 294 l 929 294 l 953 411 l 1210 411 l 1231 506 q 1232 524 1232 513 q 1204 543 1232 543 l 913 543 l 831 160 l 1315 160 l 1282 0 l 200 0 m 717 543 l 414 543 q 383 535 390 543 q 369 504 375 528 l 304 197 q 302 188 303 192 q 301 179 301 183 q 332 160 301 160 l 635 160 l 717 543 z "},"Ŕ":{"ha":921,"x_min":76,"x_max":1008,"o":"m 76 0 m 638 0 l 701 307 q 703 319 703 314 q 704 328 704 324 q 665 350 704 350 l 361 350 l 288 0 l 76 0 l 222 688 l 433 688 l 394 506 l 683 506 q 724 515 714 506 q 742 554 735 525 l 775 707 q 777 719 776 714 q 778 729 778 725 q 768 751 778 746 q 735 757 758 757 l 236 757 l 275 940 l 872 940 q 976 915 944 940 q 1008 836 1008 889 q 1006 810 1008 824 q 1001 781 1004 796 l 958 576 q 903 474 943 504 q 814 439 863 444 q 889 419 858 436 q 919 357 919 401 q 919 342 919 350 q 917 326 919 335 l 849 0 l 638 0 m 536 1028 l 804 1311 l 961 1311 l 660 1028 l 536 1028 z "},"ŕ":{"ha":626,"x_min":71,"x_max":764,"o":"m 71 0 m 71 0 l 219 703 l 408 703 l 392 626 q 451 685 418 667 q 529 703 483 703 l 733 703 l 697 535 l 417 535 q 385 527 396 535 q 369 496 375 519 l 265 0 l 71 0 m 339 790 l 607 1074 l 764 1074 l 463 790 l 339 790 z "},"Ŗ":{"ha":921,"x_min":76,"x_max":1008,"o":"m 76 0 m 638 0 l 701 307 q 703 319 703 314 q 704 328 704 324 q 665 350 704 350 l 361 350 l 288 0 l 76 0 l 222 688 l 433 688 l 394 506 l 683 506 q 724 515 714 506 q 742 554 735 525 l 775 707 q 777 719 776 714 q 778 729 778 725 q 768 751 778 746 q 735 757 758 757 l 236 757 l 275 940 l 872 940 q 976 915 944 940 q 1008 836 1008 889 q 1006 810 1008 824 q 1001 781 1004 796 l 958 576 q 903 474 943 504 q 814 439 863 444 q 889 419 858 436 q 919 357 919 401 q 919 342 919 350 q 917 326 919 335 l 849 0 l 638 0 m 264 -356 l 378 -83 l 535 -83 l 399 -356 l 264 -356 z "},"ŗ":{"ha":626,"x_min":-42,"x_max":733,"o":"m 0 0 m 71 0 l 219 703 l 408 703 l 392 626 q 451 685 418 667 q 529 703 483 703 l 733 703 l 697 535 l 417 535 q 385 527 396 535 q 369 496 375 519 l 265 0 l 71 0 m -42 -356 l 72 -83 l 229 -83 l 93 -356 l -42 -356 z "},"Ř":{"ha":921,"x_min":76,"x_max":1036,"o":"m 76 0 m 638 0 l 701 307 q 703 319 703 314 q 704 328 704 324 q 665 350 704 350 l 361 350 l 288 0 l 76 0 l 222 688 l 433 688 l 394 506 l 683 506 q 724 515 714 506 q 742 554 735 525 l 775 707 q 777 719 776 714 q 778 729 778 725 q 768 751 778 746 q 735 757 758 757 l 236 757 l 275 940 l 872 940 q 976 915 944 940 q 1008 836 1008 889 q 1006 810 1008 824 q 1001 781 1004 796 l 958 576 q 903 474 943 504 q 814 439 863 444 q 889 419 858 436 q 919 357 919 401 q 919 342 919 350 q 917 326 919 335 l 849 0 l 638 0 m 567 1028 q 528 1090 551 1051 q 481 1169 506 1128 q 433 1249 456 1211 q 394 1311 410 1288 l 533 1311 l 667 1088 l 900 1311 l 1036 1311 l 732 1028 l 567 1028 z "},"ř":{"ha":626,"x_min":71,"x_max":864,"o":"m 71 0 m 71 0 l 219 703 l 408 703 l 392 626 q 451 685 418 667 q 529 703 483 703 l 733 703 l 697 535 l 417 535 q 385 527 396 535 q 369 496 375 519 l 265 0 l 71 0 m 394 790 q 356 852 379 814 q 308 932 333 890 q 260 1012 283 974 q 222 1074 238 1050 l 361 1074 l 494 850 l 728 1074 l 864 1074 l 560 790 l 394 790 z "},"Ś":{"ha":897,"x_min":72,"x_max":1017,"o":"m 72 0 m 72 0 l 111 183 l 613 183 q 649 193 638 183 q 667 229 661 203 l 694 360 q 696 375 696 365 q 660 400 696 400 l 289 400 q 206 424 232 400 q 181 493 181 449 q 185 533 181 510 l 236 776 q 297 900 254 860 q 432 940 340 940 l 1017 940 l 979 761 l 481 761 q 449 751 458 761 q 433 717 439 742 l 407 593 q 405 583 406 588 q 404 575 404 579 q 435 554 404 554 l 811 554 q 895 529 869 554 q 921 460 921 504 q 917 421 921 442 l 863 164 q 801 40 844 81 q 668 0 758 0 l 72 0 m 525 1028 l 793 1311 l 950 1311 l 649 1028 l 525 1028 z "},"ś":{"ha":863,"x_min":72,"x_max":931,"o":"m 72 0 m 72 0 l 106 161 l 588 161 q 617 168 610 161 q 629 194 625 175 l 644 264 q 646 275 646 268 q 618 293 646 293 l 242 293 q 173 312 194 293 q 151 363 151 331 q 156 393 151 376 l 194 581 q 242 673 207 643 q 350 703 276 703 l 931 703 l 897 546 l 418 546 q 386 538 396 546 q 372 508 376 529 l 360 450 q 358 438 358 446 q 388 415 358 415 l 768 415 q 838 396 817 415 q 860 344 860 376 q 859 331 860 338 q 857 317 858 324 l 815 122 q 767 30 801 60 q 658 0 732 0 l 72 0 m 457 790 l 725 1074 l 882 1074 l 581 790 l 457 790 z "},"Ş":{"ha":897,"x_min":72,"x_max":1017,"o":"m 72 0 m 72 0 l 111 183 l 613 183 q 649 193 638 183 q 667 229 661 203 l 694 360 q 696 375 696 365 q 660 400 696 400 l 289 400 q 206 424 232 400 q 181 493 181 449 q 185 533 181 510 l 236 776 q 297 900 254 860 q 432 940 340 940 l 1017 940 l 979 761 l 481 761 q 449 751 458 761 q 433 717 439 742 l 407 593 q 405 583 406 588 q 404 575 404 579 q 435 554 404 554 l 811 554 q 895 529 869 554 q 921 460 921 504 q 917 421 921 442 l 863 164 q 801 40 844 81 q 668 0 758 0 l 72 0 m 267 -356 l 381 -83 l 538 -83 l 401 -356 l 267 -356 z "},"ş":{"ha":863,"x_min":72,"x_max":931,"o":"m 72 0 m 72 0 l 106 161 l 588 161 q 617 168 610 161 q 629 194 625 175 l 644 264 q 646 275 646 268 q 618 293 646 293 l 242 293 q 173 312 194 293 q 151 363 151 331 q 156 393 151 376 l 194 581 q 242 673 207 643 q 350 703 276 703 l 931 703 l 897 546 l 418 546 q 386 538 396 546 q 372 508 376 529 l 360 450 q 358 438 358 446 q 388 415 358 415 l 768 415 q 838 396 817 415 q 860 344 860 376 q 859 331 860 338 q 857 317 858 324 l 815 122 q 767 30 801 60 q 658 0 732 0 l 72 0 m 249 -356 l 363 -83 l 519 -83 l 383 -356 l 249 -356 z "},"Š":{"ha":897,"x_min":72,"x_max":1061,"o":"m 72 0 m 72 0 l 111 183 l 613 183 q 649 193 638 183 q 667 229 661 203 l 694 360 q 696 375 696 365 q 660 400 696 400 l 289 400 q 206 424 232 400 q 181 493 181 449 q 185 533 181 510 l 236 776 q 297 900 254 860 q 432 940 340 940 l 1017 940 l 979 761 l 481 761 q 449 751 458 761 q 433 717 439 742 l 407 593 q 405 583 406 588 q 404 575 404 579 q 435 554 404 554 l 811 554 q 895 529 869 554 q 921 460 921 504 q 917 421 921 442 l 863 164 q 801 40 844 81 q 668 0 758 0 l 72 0 m 592 1028 q 553 1090 576 1051 q 506 1169 531 1128 q 458 1249 481 1211 q 419 1311 435 1288 l 558 1311 l 692 1088 l 925 1311 l 1061 1311 l 757 1028 l 592 1028 z "},"š":{"ha":863,"x_min":72,"x_max":979,"o":"m 72 0 m 72 0 l 106 161 l 588 161 q 617 168 610 161 q 629 194 625 175 l 644 264 q 646 275 646 268 q 618 293 646 293 l 242 293 q 173 312 194 293 q 151 363 151 331 q 156 393 151 376 l 194 581 q 242 673 207 643 q 350 703 276 703 l 931 703 l 897 546 l 418 546 q 386 538 396 546 q 372 508 376 529 l 360 450 q 358 438 358 446 q 388 415 358 415 l 768 415 q 838 396 817 415 q 860 344 860 376 q 859 331 860 338 q 857 317 858 324 l 815 122 q 767 30 801 60 q 658 0 732 0 l 72 0 m 510 790 q 472 852 494 814 q 424 932 449 890 q 376 1012 399 974 q 338 1074 353 1050 l 476 1074 l 610 850 l 843 1074 l 979 1074 l 675 790 l 510 790 z "},"Ţ":{"ha":740,"x_min":165,"x_max":901,"o":"m 165 0 m 474 0 l 263 0 l 422 756 l 194 756 l 233 940 l 901 940 l 863 756 l 633 756 l 474 0 m 165 -356 l 279 -83 l 436 -83 l 300 -356 l 165 -356 z "},"ţ":{"ha":475,"x_min":56,"x_max":583,"o":"m 56 0 m 203 0 q 119 20 144 0 q 93 83 93 40 q 100 138 93 103 l 261 899 l 456 899 l 414 703 l 583 703 l 551 550 l 382 550 l 306 190 q 303 172 303 176 q 333 153 303 153 l 461 153 l 429 0 l 203 0 m 56 -356 l 169 -83 l 326 -83 l 190 -356 l 56 -356 z "},"Ť":{"ha":740,"x_min":194,"x_max":969,"o":"m 194 0 m 474 0 l 263 0 l 422 756 l 194 756 l 233 940 l 901 940 l 863 756 l 633 756 l 474 0 m 500 1028 q 462 1090 485 1051 q 414 1169 439 1128 q 366 1249 389 1211 q 328 1311 343 1288 l 467 1311 l 600 1088 l 833 1311 l 969 1311 l 665 1028 l 500 1028 z "},"ť":{"ha":685,"x_min":93,"x_max":896,"o":"m 93 0 m 203 0 q 119 20 144 0 q 93 83 93 40 q 100 138 93 103 l 261 899 l 456 899 l 414 703 l 583 703 l 551 550 l 382 550 l 306 190 q 303 172 303 176 q 333 153 303 153 l 461 153 l 429 0 l 203 0 m 585 651 l 718 997 l 896 997 l 740 651 l 585 651 z "},"Ŧ":{"ha":740,"x_min":194,"x_max":901,"o":"m 547 353 l 474 0 l 263 0 l 336 353 l 219 353 l 244 469 l 361 469 l 422 756 l 194 756 l 233 940 l 901 940 l 863 756 l 633 756 l 572 469 l 692 469 l 667 353 l 547 353 z "},"ŧ":{"ha":475,"x_min":93,"x_max":583,"o":"m 328 294 l 306 190 q 303 172 303 176 q 333 153 303 153 l 461 153 l 429 0 l 203 0 q 119 20 144 0 q 93 83 93 40 q 100 138 93 103 l 261 899 l 456 899 l 414 703 l 583 703 l 551 550 l 382 550 l 351 411 l 506 411 l 482 294 l 328 294 z "},"Ũ":{"ha":938,"x_min":101,"x_max":1061,"o":"m 101 0 m 235 0 q 132 25 163 0 q 101 103 101 50 q 103 132 101 117 q 108 164 104 147 l 272 940 l 483 940 l 335 238 q 331 213 331 221 q 340 192 331 197 q 372 188 350 188 l 650 188 q 690 197 678 188 q 710 238 703 206 l 858 940 l 1061 940 l 897 164 q 835 40 879 81 q 703 0 792 0 l 235 0 m 1003 1139 q 922 1101 968 1113 q 839 1090 875 1090 q 764 1101 797 1090 q 701 1124 731 1111 q 643 1148 671 1138 q 585 1158 615 1158 q 498 1147 543 1158 q 408 1104 453 1135 l 435 1229 q 517 1267 471 1256 q 600 1278 564 1278 q 669 1267 636 1278 q 732 1243 701 1256 q 792 1219 763 1231 q 853 1208 822 1208 q 941 1220 899 1208 q 1031 1264 983 1232 l 1003 1139 z "},"ũ":{"ha":889,"x_min":93,"x_max":965,"o":"m 93 0 m 629 0 l 644 75 q 585 17 618 35 q 508 0 553 0 l 203 0 q 120 19 147 0 q 93 85 93 39 q 100 138 93 106 l 219 703 l 414 703 l 308 207 q 306 189 306 193 q 339 167 306 167 l 618 167 q 650 175 640 167 q 665 207 660 183 l 771 703 l 965 703 l 817 0 l 629 0 m 928 901 q 847 864 893 875 q 764 853 800 853 q 689 863 722 853 q 626 887 656 874 q 568 910 596 900 q 510 921 540 921 q 423 909 468 921 q 333 867 378 897 l 360 992 q 442 1029 396 1018 q 525 1040 489 1040 q 594 1029 561 1040 q 657 1006 626 1018 q 717 982 688 993 q 778 971 747 971 q 866 983 824 971 q 956 1026 908 994 l 928 901 z "},"Ū":{"ha":938,"x_min":101,"x_max":1061,"o":"m 101 0 m 235 0 q 132 25 163 0 q 101 103 101 50 q 103 132 101 117 q 108 164 104 147 l 272 940 l 483 940 l 335 238 q 331 213 331 221 q 340 192 331 197 q 372 188 350 188 l 650 188 q 690 197 678 188 q 710 238 703 206 l 858 940 l 1061 940 l 897 164 q 835 40 879 81 q 703 0 792 0 l 235 0 m 385 1118 l 411 1242 l 1051 1242 l 1025 1118 l 385 1118 z "},"ū":{"ha":889,"x_min":93,"x_max":976,"o":"m 93 0 m 629 0 l 644 75 q 585 17 618 35 q 508 0 553 0 l 203 0 q 120 19 147 0 q 93 85 93 39 q 100 138 93 106 l 219 703 l 414 703 l 308 207 q 306 189 306 193 q 339 167 306 167 l 618 167 q 650 175 640 167 q 665 207 660 183 l 771 703 l 965 703 l 817 0 l 629 0 m 310 881 l 336 1004 l 976 1004 l 950 881 l 310 881 z "},"Ŭ":{"ha":938,"x_min":101,"x_max":1061,"o":"m 101 0 m 235 0 q 132 25 163 0 q 101 103 101 50 q 103 132 101 117 q 108 164 104 147 l 272 940 l 483 940 l 335 238 q 331 213 331 221 q 340 192 331 197 q 372 188 350 188 l 650 188 q 690 197 678 188 q 710 238 703 206 l 858 940 l 1061 940 l 897 164 q 835 40 879 81 q 703 0 792 0 l 235 0 m 1032 1311 q 996 1194 1018 1247 q 934 1103 974 1142 q 835 1044 894 1065 q 686 1024 775 1024 q 572 1036 618 1024 q 499 1072 526 1049 q 459 1127 471 1094 q 447 1201 447 1160 q 451 1253 447 1226 q 461 1311 454 1281 l 547 1311 q 540 1272 543 1290 q 538 1236 538 1253 q 574 1147 538 1178 q 706 1115 610 1115 q 807 1128 765 1115 q 876 1167 849 1142 q 919 1229 903 1193 q 946 1311 935 1265 l 1032 1311 z "},"ŭ":{"ha":889,"x_min":93,"x_max":965,"o":"m 93 0 m 629 0 l 644 75 q 585 17 618 35 q 508 0 553 0 l 203 0 q 120 19 147 0 q 93 85 93 39 q 100 138 93 106 l 219 703 l 414 703 l 308 207 q 306 189 306 193 q 339 167 306 167 l 618 167 q 650 175 640 167 q 665 207 660 183 l 771 703 l 965 703 l 817 0 l 629 0 m 957 1074 q 921 957 943 1010 q 859 866 899 904 q 760 807 819 828 q 611 786 700 786 q 497 799 543 786 q 424 834 451 811 q 384 890 396 857 q 372 964 372 922 q 376 1016 372 989 q 386 1074 379 1043 l 472 1074 q 465 1034 468 1053 q 463 999 463 1015 q 499 909 463 940 q 631 878 535 878 q 732 891 690 878 q 801 930 774 904 q 844 992 828 956 q 871 1074 860 1028 l 957 1074 z "},"Ů":{"ha":938,"x_min":101,"x_max":1061,"o":"m 101 0 m 235 0 q 132 25 163 0 q 101 103 101 50 q 103 132 101 117 q 108 164 104 147 l 272 940 l 483 940 l 335 238 q 331 213 331 221 q 340 192 331 197 q 372 188 350 188 l 650 188 q 690 197 678 188 q 710 238 703 206 l 858 940 l 1061 940 l 897 164 q 835 40 879 81 q 703 0 792 0 l 235 0 m 597 996 q 545 1008 561 996 q 529 1046 529 1019 q 533 1081 529 1061 l 564 1226 q 596 1291 574 1271 q 664 1311 618 1311 l 826 1311 q 880 1299 864 1311 q 896 1260 896 1288 q 892 1226 896 1244 l 861 1081 q 829 1016 851 1036 q 760 996 807 996 l 597 996 m 818 1219 q 819 1232 819 1224 q 794 1249 819 1249 l 667 1249 q 643 1242 650 1249 q 633 1219 636 1236 l 606 1093 q 604 1081 604 1089 q 610 1066 604 1069 q 628 1063 615 1063 l 756 1063 q 781 1068 775 1063 q 790 1093 786 1074 l 818 1219 z "},"ů":{"ha":889,"x_min":93,"x_max":965,"o":"m 93 0 m 629 0 l 644 75 q 585 17 618 35 q 508 0 553 0 l 203 0 q 120 19 147 0 q 93 85 93 39 q 100 138 93 106 l 219 703 l 414 703 l 308 207 q 306 189 306 193 q 339 167 306 167 l 618 167 q 650 175 640 167 q 665 207 660 183 l 771 703 l 965 703 l 817 0 l 629 0 m 524 758 q 472 770 488 758 q 456 808 456 782 q 460 843 456 824 l 490 989 q 522 1053 500 1033 q 590 1074 544 1074 l 753 1074 q 806 1062 790 1074 q 822 1022 822 1050 q 818 989 822 1007 l 788 843 q 756 778 778 799 q 686 758 733 758 l 524 758 m 744 982 q 746 994 746 986 q 721 1011 746 1011 l 593 1011 q 569 1005 576 1011 q 560 982 563 999 l 532 856 q 531 843 531 851 q 536 828 531 832 q 554 825 542 825 l 682 825 q 707 831 701 825 q 717 856 713 836 l 744 982 z "},"Ű":{"ha":938,"x_min":101,"x_max":1122,"o":"m 101 0 m 235 0 q 132 25 163 0 q 101 103 101 50 q 103 132 101 117 q 108 164 104 147 l 272 940 l 483 940 l 335 238 q 331 213 331 221 q 340 192 331 197 q 372 188 350 188 l 650 188 q 690 197 678 188 q 710 238 703 206 l 858 940 l 1061 940 l 897 164 q 835 40 879 81 q 703 0 792 0 l 235 0 m 697 1028 l 965 1311 l 1122 1311 l 821 1028 l 697 1028 m 392 1028 l 660 1311 l 817 1311 l 515 1028 l 392 1028 z "},"ű":{"ha":889,"x_min":93,"x_max":1049,"o":"m 93 0 m 629 0 l 644 75 q 585 17 618 35 q 508 0 553 0 l 203 0 q 120 19 147 0 q 93 85 93 39 q 100 138 93 106 l 219 703 l 414 703 l 308 207 q 306 189 306 193 q 339 167 306 167 l 618 167 q 650 175 640 167 q 665 207 660 183 l 771 703 l 965 703 l 817 0 l 629 0 m 624 790 l 892 1074 l 1049 1074 l 747 790 l 624 790 m 318 790 l 586 1074 l 743 1074 l 442 790 l 318 790 z "},"Ų":{"ha":938,"x_min":101,"x_max":1061,"o":"m 281 -356 q 233 -342 251 -356 q 215 -296 215 -328 q 219 -265 215 -282 l 235 -194 q 247 -153 240 -171 q 263 -122 253 -136 q 287 -98 272 -108 q 324 -76 301 -87 l 482 0 l 235 0 q 132 25 163 0 q 101 103 101 50 q 103 132 101 117 q 108 164 104 147 l 272 940 l 483 940 l 335 238 q 331 213 331 221 q 340 192 331 197 q 372 188 350 188 l 650 188 q 690 197 678 188 q 710 238 703 206 l 858 940 l 1061 940 l 897 164 q 835 40 879 81 q 703 0 792 0 l 604 0 l 415 -97 q 393 -114 399 -106 q 383 -142 388 -122 l 374 -185 q 372 -197 372 -189 q 393 -214 372 -214 l 558 -214 l 528 -356 l 281 -356 z "},"ų":{"ha":889,"x_min":93,"x_max":965,"o":"m 493 -356 q 446 -342 464 -356 q 428 -296 428 -328 q 432 -265 428 -282 l 447 -194 q 459 -153 453 -171 q 475 -122 465 -136 q 499 -98 485 -108 q 536 -76 514 -87 l 694 0 l 629 0 l 644 75 q 585 17 618 35 q 508 0 553 0 l 203 0 q 120 19 147 0 q 93 85 93 39 q 100 138 93 106 l 219 703 l 414 703 l 308 207 q 306 189 306 193 q 339 167 306 167 l 618 167 q 650 175 640 167 q 665 207 660 183 l 771 703 l 965 703 l 817 0 l 628 -97 q 606 -114 611 -106 q 596 -142 600 -122 l 586 -185 q 585 -197 585 -189 q 606 -214 585 -214 l 771 -214 l 740 -356 l 493 -356 z "},"Ŵ":{"ha":1386,"x_min":221,"x_max":1561,"o":"m 221 0 m 869 0 l 835 671 l 493 0 l 257 0 l 221 940 l 438 940 l 453 251 l 793 940 l 1004 940 l 1033 253 l 1354 940 l 1561 940 l 1107 0 l 869 0 m 1092 1028 l 958 1251 l 724 1028 l 589 1028 l 892 1311 l 1057 1311 l 1231 1028 l 1092 1028 z "},"ŵ":{"ha":1251,"x_min":168,"x_max":1381,"o":"m 168 0 m 768 0 l 725 488 l 458 0 l 217 0 l 168 703 l 382 703 l 400 200 l 664 703 l 893 703 l 931 201 l 1175 703 l 1381 703 l 1014 0 l 768 0 m 974 790 l 840 1014 l 606 790 l 471 790 l 774 1074 l 939 1074 l 1113 790 l 974 790 z "},"Ŷ":{"ha":857,"x_min":217,"x_max":1036,"o":"m 217 0 m 322 0 l 404 388 l 217 940 l 438 940 l 553 569 l 825 940 l 1036 940 l 615 388 l 533 0 l 322 0 m 826 1028 l 693 1251 l 458 1028 l 324 1028 l 626 1311 l 792 1311 l 965 1028 l 826 1028 z "},"ŷ":{"ha":847,"x_min":21,"x_max":935,"o":"m 21 0 m 21 -294 l 57 -126 l 524 -126 q 556 -118 547 -126 q 571 -86 565 -110 l 590 0 l 190 0 q 106 20 132 0 q 81 83 81 40 q 88 138 81 103 l 207 703 l 401 703 l 294 199 q 292 189 293 193 q 292 181 292 185 q 325 158 292 158 l 624 158 l 739 703 l 935 703 l 751 -157 q 700 -261 736 -228 q 588 -294 664 -294 l 21 -294 m 772 790 l 639 1014 l 404 790 l 269 790 l 572 1074 l 738 1074 l 911 790 l 772 790 z "},"Ÿ":{"ha":857,"x_min":217,"x_max":1036,"o":"m 217 0 m 322 0 l 404 388 l 217 940 l 438 940 l 553 569 l 825 940 l 1036 940 l 615 388 l 533 0 l 322 0 m 757 1024 l 801 1235 l 976 1235 l 932 1024 l 757 1024 m 358 1024 l 403 1235 l 578 1235 l 533 1024 l 358 1024 z "},"Ź":{"ha":836,"x_min":68,"x_max":967,"o":"m 68 0 m 68 0 l 104 171 l 674 756 l 238 756 l 276 940 l 967 940 l 933 778 l 372 188 l 807 188 l 768 0 l 68 0 m 494 1028 l 763 1311 l 919 1311 l 618 1028 l 494 1028 z "},"ź":{"ha":793,"x_min":65,"x_max":875,"o":"m 65 0 m 65 0 l 97 154 l 581 539 l 181 539 l 215 703 l 875 703 l 846 564 l 368 167 l 761 167 l 726 0 l 65 0 m 422 790 l 690 1074 l 847 1074 l 546 790 l 422 790 z "},"Ż":{"ha":836,"x_min":68,"x_max":967,"o":"m 68 0 m 68 0 l 104 171 l 674 756 l 238 756 l 276 940 l 967 940 l 933 778 l 372 188 l 807 188 l 768 0 l 68 0 m 554 1024 l 599 1235 l 774 1235 l 729 1024 l 554 1024 z "},"ż":{"ha":793,"x_min":65,"x_max":875,"o":"m 65 0 m 65 0 l 97 154 l 581 539 l 181 539 l 215 703 l 875 703 l 846 564 l 368 167 l 761 167 l 726 0 l 65 0 m 475 786 l 519 997 l 694 997 l 650 786 l 475 786 z "},"Ž":{"ha":836,"x_min":68,"x_max":1017,"o":"m 68 0 m 68 0 l 104 171 l 674 756 l 238 756 l 276 940 l 967 940 l 933 778 l 372 188 l 807 188 l 768 0 l 68 0 m 547 1028 q 509 1090 532 1051 q 461 1169 486 1128 q 413 1249 436 1211 q 375 1311 390 1288 l 514 1311 l 647 1088 l 881 1311 l 1017 1311 l 713 1028 l 547 1028 z "},"ž":{"ha":793,"x_min":65,"x_max":953,"o":"m 65 0 m 65 0 l 97 154 l 581 539 l 181 539 l 215 703 l 875 703 l 846 564 l 368 167 l 761 167 l 726 0 l 65 0 m 483 790 q 445 852 468 814 q 397 932 422 890 q 349 1012 372 974 q 311 1074 326 1050 l 450 1074 l 583 850 l 817 1074 l 953 1074 l 649 790 l 483 790 z "},"ƒ":{"ha":629,"x_min":-24,"x_max":808,"o":"m -24 -233 l 3 -103 l 36 -103 q 125 -77 93 -103 q 181 13 157 -51 l 372 524 l 272 524 l 299 647 l 418 647 l 453 735 q 502 830 475 790 q 566 894 529 869 q 652 929 603 918 q 771 940 701 940 l 808 940 l 781 810 l 732 810 q 614 728 644 810 l 585 647 l 711 647 l 685 524 l 539 524 l 344 0 q 292 -110 321 -65 q 226 -181 264 -154 q 136 -221 188 -208 q 14 -233 85 -233 l -24 -233 z "},"Ș":{"ha":897,"x_min":72,"x_max":1017,"o":"m 72 0 m 72 0 l 111 183 l 613 183 q 649 193 638 183 q 667 229 661 203 l 694 360 q 696 375 696 365 q 660 400 696 400 l 289 400 q 206 424 232 400 q 181 493 181 449 q 185 533 181 510 l 236 776 q 297 900 254 860 q 432 940 340 940 l 1017 940 l 979 761 l 481 761 q 449 751 458 761 q 433 717 439 742 l 407 593 q 405 583 406 588 q 404 575 404 579 q 435 554 404 554 l 811 554 q 895 529 869 554 q 921 460 921 504 q 917 421 921 442 l 863 164 q 801 40 844 81 q 668 0 758 0 l 72 0 m 267 -356 l 381 -83 l 538 -83 l 401 -356 l 267 -356 z "},"ș":{"ha":863,"x_min":72,"x_max":931,"o":"m 72 0 m 72 0 l 106 161 l 588 161 q 617 168 610 161 q 629 194 625 175 l 644 264 q 646 275 646 268 q 618 293 646 293 l 242 293 q 173 312 194 293 q 151 363 151 331 q 156 393 151 376 l 194 581 q 242 673 207 643 q 350 703 276 703 l 931 703 l 897 546 l 418 546 q 386 538 396 546 q 372 508 376 529 l 360 450 q 358 438 358 446 q 388 415 358 415 l 768 415 q 838 396 817 415 q 860 344 860 376 q 859 331 860 338 q 857 317 858 324 l 815 122 q 767 30 801 60 q 658 0 732 0 l 72 0 m 249 -356 l 363 -83 l 519 -83 l 383 -356 l 249 -356 z "},"Ț":{"ha":740,"x_min":165,"x_max":901,"o":"m 165 0 m 474 0 l 263 0 l 422 756 l 194 756 l 233 940 l 901 940 l 863 756 l 633 756 l 474 0 m 165 -356 l 279 -83 l 436 -83 l 300 -356 l 165 -356 z "},"ț":{"ha":475,"x_min":56,"x_max":583,"o":"m 56 0 m 203 0 q 119 20 144 0 q 93 83 93 40 q 100 138 93 103 l 261 899 l 456 899 l 414 703 l 583 703 l 551 550 l 382 550 l 306 190 q 303 172 303 176 q 333 153 303 153 l 461 153 l 429 0 l 203 0 m 56 -356 l 169 -83 l 326 -83 l 190 -356 l 56 -356 z "},"ˆ":{"ha":794,"x_min":243,"x_max":885,"o":"m 746 790 l 613 1014 l 378 790 l 243 790 l 546 1074 l 711 1074 l 885 790 l 746 790 z "},"ˇ":{"ha":794,"x_min":304,"x_max":946,"o":"m 476 790 q 438 852 461 814 q 390 932 415 890 q 342 1012 365 974 q 304 1074 319 1050 l 443 1074 l 576 850 l 810 1074 l 946 1074 l 642 790 l 476 790 z "},"ˉ":{"ha":793,"x_min":263,"x_max":929,"o":"m 263 881 m 263 881 l 289 1004 l 929 1004 l 903 881 l 263 881 z "},"˘":{"ha":724,"x_min":290,"x_max":875,"o":"m 875 1074 q 839 957 861 1010 q 777 866 817 904 q 678 807 738 828 q 529 786 618 786 q 415 799 461 786 q 342 834 369 811 q 302 890 314 857 q 290 964 290 922 q 294 1016 290 989 q 304 1074 297 1043 l 390 1074 q 383 1034 386 1053 q 381 999 381 1015 q 417 909 381 940 q 549 878 453 878 q 650 891 608 878 q 719 930 692 904 q 762 992 746 956 q 789 1074 778 1028 l 875 1074 z "},"˙":{"ha":344,"x_min":244,"x_max":464,"o":"m 244 786 l 289 997 l 464 997 l 419 786 l 244 786 z "},"˚":{"ha":482,"x_min":251,"x_max":618,"o":"m 319 758 q 267 770 283 758 q 251 808 251 782 q 256 843 251 824 l 286 989 q 318 1053 296 1033 q 386 1074 340 1074 l 549 1074 q 602 1062 586 1074 q 618 1022 618 1050 q 614 989 618 1007 l 583 843 q 551 778 574 799 q 482 758 529 758 l 319 758 m 540 982 q 542 994 542 986 q 517 1011 542 1011 l 389 1011 q 365 1005 372 1011 q 356 982 358 999 l 328 856 q 326 843 326 851 q 332 828 326 832 q 350 825 338 825 l 478 825 q 503 831 497 825 q 513 856 508 836 l 540 982 z "},"˛":{"ha":463,"x_min":-4,"x_max":383,"o":"m 60 -356 q 13 -342 31 -356 q -4 -297 -4 -329 q 0 -265 -4 -285 l 14 -194 q 24 -153 18 -171 q 41 -122 31 -136 q 66 -98 51 -108 q 103 -76 81 -87 l 261 0 l 383 0 l 194 -97 q 172 -114 178 -106 q 163 -142 167 -122 l 153 -185 q 151 -197 151 -189 q 172 -214 151 -214 l 338 -214 l 307 -356 l 60 -356 z "},"˜":{"ha":740,"x_min":260,"x_max":882,"o":"m 854 901 q 773 864 819 875 q 690 853 726 853 q 615 863 649 853 q 552 887 582 874 q 494 910 522 900 q 436 921 467 921 q 349 909 394 921 q 260 867 304 897 l 286 992 q 369 1029 322 1018 q 451 1040 415 1040 q 520 1029 488 1040 q 583 1006 553 1018 q 644 982 614 993 q 704 971 674 971 q 792 983 750 971 q 882 1026 835 994 l 854 901 z "},"˝":{"ha":824,"x_min":243,"x_max":974,"o":"m 549 790 l 817 1074 l 974 1074 l 672 790 l 549 790 m 243 790 l 511 1074 l 668 1074 l 367 790 l 243 790 z "},";":{"ha":365,"x_min":10,"x_max":425,"o":"m 10 0 m 203 494 l 247 704 l 425 704 l 381 494 l 203 494 m 10 -136 l 143 210 l 321 210 l 165 -136 l 10 -136 z "},"Δ":{"ha":883,"x_min":22,"x_max":860,"o":"m 22 0 l 531 940 l 769 940 l 860 0 l 22 0 m 593 703 l 315 192 l 643 192 l 593 703 z "},"Ω":{"ha":956,"x_min":83,"x_max":1049,"o":"m 515 0 l 551 171 l 703 331 q 739 381 724 353 q 764 453 754 408 l 815 699 q 819 726 819 715 q 775 757 819 757 l 496 757 q 455 744 468 757 q 435 699 442 732 l 383 453 q 378 422 379 436 q 376 396 376 407 q 381 360 376 375 q 392 331 385 344 l 475 171 l 439 0 l 83 0 l 119 174 l 308 174 l 204 318 q 178 363 186 342 q 171 410 171 383 q 185 508 171 447 l 242 776 q 303 900 260 860 q 438 940 347 940 l 917 940 q 1018 915 988 940 q 1049 838 1049 890 q 1047 809 1049 824 q 1042 776 1044 794 l 985 508 q 968 442 976 469 q 949 394 960 415 q 923 356 939 374 q 885 318 907 339 l 719 174 l 908 174 l 872 0 l 515 0 z "},"μ":{"ha":813,"x_min":11,"x_max":885,"o":"m 11 -294 l 224 703 l 417 703 l 304 171 l 546 171 q 577 181 568 171 q 592 215 586 192 l 696 703 l 885 703 l 765 138 q 715 33 750 67 q 603 0 679 0 l 268 0 l 204 -294 l 11 -294 z "},"π":{"ha":869,"x_min":78,"x_max":865,"o":"m 653 0 q 569 20 594 0 q 543 83 543 40 q 545 109 543 96 q 550 138 547 122 l 638 551 l 369 551 l 253 0 l 78 0 l 226 703 l 844 703 l 735 183 q 732 171 732 176 q 732 161 732 165 q 740 143 732 147 q 765 139 747 139 l 865 139 l 836 0 l 653 0 z "},"Ẁ":{"ha":1386,"x_min":221,"x_max":1561,"o":"m 221 0 m 869 0 l 835 671 l 493 0 l 257 0 l 221 940 l 438 940 l 453 251 l 793 940 l 1004 940 l 1033 253 l 1354 940 l 1561 940 l 1107 0 l 869 0 m 926 1028 l 747 1311 l 904 1311 l 1050 1028 l 926 1028 z "},"ẁ":{"ha":1251,"x_min":168,"x_max":1381,"o":"m 168 0 m 768 0 l 725 488 l 458 0 l 217 0 l 168 703 l 382 703 l 400 200 l 664 703 l 893 703 l 931 201 l 1175 703 l 1381 703 l 1014 0 l 768 0 m 808 790 l 629 1074 l 786 1074 l 932 790 l 808 790 z "},"Ẃ":{"ha":1386,"x_min":221,"x_max":1561,"o":"m 221 0 m 869 0 l 835 671 l 493 0 l 257 0 l 221 940 l 438 940 l 453 251 l 793 940 l 1004 940 l 1033 253 l 1354 940 l 1561 940 l 1107 0 l 869 0 m 769 1028 l 1038 1311 l 1194 1311 l 893 1028 l 769 1028 z "},"ẃ":{"ha":1251,"x_min":168,"x_max":1381,"o":"m 168 0 m 768 0 l 725 488 l 458 0 l 217 0 l 168 703 l 382 703 l 400 200 l 664 703 l 893 703 l 931 201 l 1175 703 l 1381 703 l 1014 0 l 768 0 m 651 790 l 919 1074 l 1076 1074 l 775 790 l 651 790 z "},"Ẅ":{"ha":1386,"x_min":221,"x_max":1561,"o":"m 221 0 m 869 0 l 835 671 l 493 0 l 257 0 l 221 940 l 438 940 l 453 251 l 793 940 l 1004 940 l 1033 253 l 1354 940 l 1561 940 l 1107 0 l 869 0 m 1021 1024 l 1065 1235 l 1240 1235 l 1196 1024 l 1021 1024 m 622 1024 l 667 1235 l 842 1235 l 797 1024 l 622 1024 z "},"ẅ":{"ha":1251,"x_min":168,"x_max":1381,"o":"m 168 0 m 768 0 l 725 488 l 458 0 l 217 0 l 168 703 l 382 703 l 400 200 l 664 703 l 893 703 l 931 201 l 1175 703 l 1381 703 l 1014 0 l 768 0 m 904 786 l 949 997 l 1124 997 l 1079 786 l 904 786 m 506 786 l 550 997 l 725 997 l 681 786 l 506 786 z "},"Ỳ":{"ha":857,"x_min":217,"x_max":1036,"o":"m 217 0 m 322 0 l 404 388 l 217 940 l 438 940 l 553 569 l 825 940 l 1036 940 l 615 388 l 533 0 l 322 0 m 661 1028 l 482 1311 l 639 1311 l 785 1028 l 661 1028 z "},"ỳ":{"ha":847,"x_min":21,"x_max":935,"o":"m 21 0 m 21 -294 l 57 -126 l 524 -126 q 556 -118 547 -126 q 571 -86 565 -110 l 590 0 l 190 0 q 106 20 132 0 q 81 83 81 40 q 88 138 81 103 l 207 703 l 401 703 l 294 199 q 292 189 293 193 q 292 181 292 185 q 325 158 292 158 l 624 158 l 739 703 l 935 703 l 751 -157 q 700 -261 736 -228 q 588 -294 664 -294 l 21 -294 m 607 790 l 428 1074 l 585 1074 l 731 790 l 607 790 z "},"–":{"ha":965,"x_min":129,"x_max":1035,"o":"m 129 411 l 158 543 l 1035 543 l 1006 411 l 129 411 z "},"—":{"ha":1597,"x_min":129,"x_max":1668,"o":"m 129 411 l 158 543 l 1668 543 l 1639 411 l 129 411 z "},"‘":{"ha":360,"x_min":289,"x_max":465,"o":"m 297 651 l 289 997 l 465 997 l 453 651 l 297 651 z "},"’":{"ha":360,"x_min":181,"x_max":492,"o":"m 181 651 l 314 997 l 492 997 l 336 651 l 181 651 z "},"‚":{"ha":360,"x_min":14,"x_max":325,"o":"m 14 -136 l 147 210 l 325 210 l 169 -136 l 14 -136 z "},"“":{"ha":719,"x_min":289,"x_max":825,"o":"m 289 651 m 297 651 l 289 997 l 465 997 l 453 651 l 297 651 m 657 651 l 649 997 l 825 997 l 813 651 l 657 651 z "},"”":{"ha":719,"x_min":181,"x_max":851,"o":"m 181 651 m 181 651 l 314 997 l 492 997 l 336 651 l 181 651 m 540 651 l 674 997 l 851 997 l 696 651 l 540 651 z "},"„":{"ha":719,"x_min":14,"x_max":685,"o":"m 14 0 m 14 -136 l 147 210 l 325 210 l 169 -136 l 14 -136 m 374 -136 l 507 210 l 685 210 l 529 -136 l 374 -136 z "},"†":{"ha":725,"x_min":219,"x_max":811,"o":"m 311 -1 l 456 675 l 219 675 l 239 769 l 475 769 l 511 940 l 622 940 l 586 769 l 811 769 l 792 675 l 567 675 l 422 -1 l 311 -1 z "},"‡":{"ha":726,"x_min":113,"x_max":810,"o":"m 458 171 l 422 0 l 311 0 l 347 171 l 113 171 l 132 264 l 367 264 l 454 674 l 219 674 l 239 769 l 474 769 l 510 940 l 621 940 l 585 769 l 810 769 l 790 674 l 565 674 l 478 264 l 703 264 l 683 171 l 458 171 z "},"•":{"ha":436,"x_min":156,"x_max":475,"o":"m 218 317 q 170 328 185 317 q 156 364 156 340 q 160 393 156 376 l 189 531 q 217 588 197 571 q 279 606 238 606 l 414 606 q 461 594 447 606 q 475 560 475 583 q 475 546 475 553 q 472 531 475 539 l 443 393 q 415 335 435 354 q 353 317 394 317 l 218 317 z "},"…":{"ha":1660,"x_min":78,"x_max":1628,"o":"m 78 0 m 78 0 l 122 210 l 300 210 l 256 0 l 78 0 m 742 0 l 786 210 l 964 210 l 919 0 l 742 0 m 1406 0 l 1450 210 l 1628 210 l 1583 0 l 1406 0 z "},"‰":{"ha":1493,"x_min":181,"x_max":1511,"o":"m 181 0 m 249 485 q 197 497 213 485 q 181 535 181 510 q 185 567 181 547 l 250 872 q 280 934 258 914 q 349 954 301 954 l 572 954 q 624 942 608 954 q 640 901 640 929 q 640 888 640 894 q 638 872 639 881 l 572 567 q 540 505 563 525 q 472 485 518 485 l 249 485 m 504 821 l 504 829 q 485 844 504 844 l 386 844 q 361 822 365 844 l 318 619 q 317 611 317 617 q 335 599 317 599 l 433 599 q 461 619 457 599 l 504 821 m 190 0 l 956 940 l 1067 940 l 301 0 l 190 0 m 682 -14 q 630 -1 646 -14 q 614 36 614 11 q 618 68 614 49 l 683 374 q 713 435 692 415 q 782 456 735 456 l 1006 456 q 1058 443 1042 456 q 1074 403 1074 431 q 1073 389 1074 396 q 1071 374 1072 382 l 1006 68 q 974 6 996 26 q 906 -14 951 -14 l 682 -14 m 938 322 l 938 331 q 918 346 938 346 l 819 346 q 794 324 799 346 l 751 121 q 750 113 750 118 q 768 100 750 100 l 867 100 q 894 121 890 100 l 938 322 m 1119 -14 q 1067 -1 1083 -14 q 1051 36 1051 11 q 1056 68 1051 49 l 1121 374 q 1151 435 1129 415 q 1219 456 1172 456 l 1443 456 q 1495 443 1479 456 q 1511 403 1511 431 q 1510 389 1511 396 q 1508 374 1510 382 l 1443 68 q 1411 6 1433 26 q 1343 -14 1389 -14 l 1119 -14 m 1375 322 l 1375 331 q 1356 346 1375 346 l 1257 346 q 1232 324 1236 346 l 1189 121 q 1188 113 1188 118 q 1206 100 1188 100 l 1304 100 q 1332 121 1328 100 l 1375 322 z "},"‹":{"ha":371,"x_min":117,"x_max":485,"o":"m 117 357 l 153 524 l 485 757 l 453 606 l 204 438 l 381 264 l 349 117 l 117 357 z "},"›":{"ha":371,"x_min":65,"x_max":433,"o":"m 65 117 l 99 268 l 346 435 l 171 608 l 201 757 l 433 515 l 399 349 l 65 117 z "},"⁄":{"ha":268,"x_min":-204,"x_max":672,"o":"m -204 0 l 561 940 l 672 940 l -93 0 l -204 0 z "},"⁰":{"ha":493,"x_min":168,"x_max":628,"o":"m 168 485 m 236 485 q 184 497 200 485 q 168 535 168 510 q 172 567 168 547 l 238 872 q 267 934 246 914 q 336 954 289 954 l 560 954 q 612 942 596 954 q 628 901 628 929 q 627 888 628 894 q 625 872 626 881 l 560 567 q 528 505 550 525 q 460 485 506 485 l 236 485 m 492 821 l 492 829 q 472 844 492 844 l 374 844 q 349 822 353 844 l 306 619 q 304 611 304 617 q 322 599 304 599 l 421 599 q 449 619 444 599 l 492 821 z "},"⁴":{"ha":474,"x_min":161,"x_max":576,"o":"m 161 485 m 364 485 l 383 571 l 161 571 l 181 668 l 408 954 l 576 954 l 515 668 l 574 668 l 554 571 l 496 571 l 476 485 l 364 485 m 442 850 l 292 668 l 403 668 l 442 850 z "},"⁵":{"ha":493,"x_min":171,"x_max":626,"o":"m 171 485 m 239 485 q 187 497 203 485 q 171 536 171 510 q 175 564 171 547 l 192 638 l 311 638 l 304 606 q 303 597 303 601 q 319 585 303 585 l 418 585 q 435 590 431 585 q 443 606 440 594 l 456 668 q 457 676 457 671 q 442 688 457 688 l 201 688 l 258 954 l 626 954 l 604 849 l 358 849 l 343 776 l 535 776 q 589 729 589 776 q 589 720 589 725 q 588 710 589 715 l 557 567 q 526 505 547 525 q 458 485 504 485 l 239 485 z "},"⁶":{"ha":488,"x_min":168,"x_max":621,"o":"m 168 485 m 236 485 q 184 497 200 485 q 168 535 168 510 q 172 567 168 547 l 238 872 q 267 934 246 914 q 336 954 288 954 l 551 954 q 621 901 621 954 q 620 888 621 894 q 618 875 619 882 l 604 810 l 488 810 l 493 836 q 494 846 494 840 q 476 858 494 858 l 374 858 q 356 853 361 858 q 347 836 350 849 l 332 763 l 528 763 q 583 717 583 763 q 581 696 583 710 l 553 567 q 522 505 543 525 q 454 485 500 485 l 236 485 m 460 664 l 460 671 q 444 682 460 682 l 315 682 l 300 611 q 299 599 299 606 q 315 586 299 586 l 422 586 q 440 592 435 586 q 449 611 446 597 l 460 664 z "},"⁷":{"ha":424,"x_min":168,"x_max":581,"o":"m 168 485 m 168 485 l 428 849 l 217 849 l 239 954 l 581 954 l 563 868 l 301 485 l 168 485 z "},"⁸":{"ha":489,"x_min":167,"x_max":619,"o":"m 167 485 m 235 485 q 183 497 199 485 q 167 536 167 510 q 171 564 167 547 l 196 676 q 219 714 201 703 q 264 728 236 725 q 219 769 219 732 q 221 786 219 781 l 240 875 q 272 935 249 915 q 340 954 296 954 l 550 954 q 619 901 619 954 q 619 888 619 894 q 617 875 618 882 l 597 786 q 574 744 590 757 q 533 728 558 731 q 566 717 553 725 q 579 689 579 708 q 578 676 579 681 l 553 564 q 522 504 543 524 q 456 485 500 485 l 235 485 m 492 838 q 493 847 493 840 q 475 858 493 858 l 376 858 q 350 838 356 858 l 338 778 q 336 771 336 775 q 353 760 336 760 l 454 760 q 479 778 475 760 l 492 838 m 457 669 l 457 675 q 439 688 457 688 l 338 688 q 314 669 318 688 l 300 606 q 299 597 299 603 q 317 585 299 585 l 418 585 q 443 606 439 585 l 457 669 z "},"⁹":{"ha":492,"x_min":169,"x_max":625,"o":"m 169 485 m 238 485 q 185 497 201 485 q 169 536 169 510 q 174 564 169 547 l 189 635 l 307 635 l 301 607 q 300 597 300 603 q 321 585 300 585 l 422 585 q 440 589 435 585 q 447 607 444 593 l 461 674 l 264 674 q 208 719 208 674 q 209 728 208 724 q 211 740 210 733 l 240 872 q 270 934 250 914 q 338 954 290 954 l 557 954 q 610 942 594 954 q 625 903 625 929 q 624 888 625 896 q 622 872 624 881 l 557 567 q 526 505 547 525 q 457 485 504 485 l 238 485 m 494 829 q 496 842 496 835 q 479 854 496 854 l 371 854 q 353 849 360 854 q 344 829 347 844 l 332 772 q 331 765 331 769 q 347 753 331 753 l 478 753 l 494 829 z "},"₀":{"ha":493,"x_min":63,"x_max":522,"o":"m 131 -14 q 78 -1 94 -14 q 63 36 63 11 q 67 68 63 49 l 132 374 q 162 435 140 415 q 231 456 183 456 l 454 456 q 506 443 490 456 q 522 403 522 431 q 522 389 522 396 q 519 374 521 382 l 454 68 q 422 6 444 26 q 354 -14 400 -14 l 131 -14 m 386 322 l 386 331 q 367 346 386 346 l 268 346 q 243 324 247 346 l 200 121 q 199 113 199 118 q 217 100 199 100 l 315 100 q 343 121 339 100 l 386 322 z "},"₁":{"ha":265,"x_min":83,"x_max":306,"o":"m 83 -14 l 161 350 l 107 350 l 129 456 l 306 456 l 206 -14 l 83 -14 z "},"₂":{"ha":493,"x_min":53,"x_max":519,"o":"m 53 -14 l 92 169 q 125 240 103 218 q 197 261 147 261 l 351 261 q 376 282 371 261 l 388 338 q 389 349 389 342 q 372 360 389 360 l 271 360 q 243 338 249 360 l 238 311 l 121 311 l 135 376 q 167 436 143 417 q 235 456 190 456 l 451 456 q 503 443 488 456 q 519 403 519 431 q 519 389 519 396 q 517 374 518 382 l 490 249 q 460 191 482 210 q 399 172 439 172 l 235 172 q 210 149 215 172 l 197 89 l 456 89 l 433 -14 l 53 -14 z "},"₃":{"ha":481,"x_min":53,"x_max":506,"o":"m 121 -14 q 69 -1 85 -14 q 53 38 53 11 q 57 65 53 49 l 74 139 l 193 139 l 186 107 q 185 99 185 104 q 203 86 185 86 l 304 86 q 329 107 325 86 l 343 171 l 343 176 q 325 188 343 188 l 238 188 l 254 263 l 342 263 q 365 281 364 263 l 378 339 q 379 349 379 342 q 361 360 379 360 l 263 360 q 236 339 242 360 l 231 311 l 113 311 l 126 376 q 158 436 135 417 q 226 456 182 456 l 436 456 q 506 403 506 456 q 505 390 506 396 q 503 376 504 383 l 483 288 q 460 245 476 258 q 419 229 444 232 q 452 218 439 226 q 465 190 465 210 q 464 178 465 182 l 439 65 q 408 6 429 25 q 342 -14 386 -14 l 121 -14 z "},"₄":{"ha":474,"x_min":56,"x_max":471,"o":"m 258 -14 l 278 72 l 56 72 l 75 169 l 303 456 l 471 456 l 410 169 l 468 169 l 449 72 l 390 72 l 371 -14 l 258 -14 m 336 351 l 186 169 l 297 169 l 336 351 z "},"₅":{"ha":493,"x_min":65,"x_max":521,"o":"m 133 -14 q 81 -1 97 -14 q 65 38 65 11 q 69 65 65 49 l 86 139 l 206 139 l 199 107 q 197 99 197 103 q 214 86 197 86 l 313 86 q 330 91 325 86 q 338 107 335 96 l 350 169 q 351 178 351 172 q 336 189 351 189 l 96 189 l 153 456 l 521 456 l 499 350 l 253 350 l 238 278 l 429 278 q 483 231 483 278 q 483 222 483 226 q 482 211 483 217 l 451 68 q 420 6 442 26 q 353 -14 399 -14 l 133 -14 z "},"₆":{"ha":488,"x_min":63,"x_max":515,"o":"m 131 -14 q 78 -1 94 -14 q 63 36 63 11 q 67 68 63 49 l 132 374 q 161 435 140 415 q 231 456 182 456 l 446 456 q 515 403 515 456 q 515 390 515 396 q 513 376 514 383 l 499 311 l 382 311 l 388 338 q 389 347 389 342 q 371 360 389 360 l 268 360 q 250 355 256 360 q 242 338 244 350 l 226 264 l 422 264 q 478 218 478 264 q 475 197 478 211 l 447 68 q 416 6 438 26 q 349 -14 394 -14 l 131 -14 m 354 165 l 354 172 q 339 183 354 183 l 210 183 l 194 113 q 193 100 193 107 q 210 88 193 88 l 317 88 q 335 93 329 88 q 343 113 340 99 l 354 165 z "},"₇":{"ha":424,"x_min":63,"x_max":475,"o":"m 63 -14 l 322 350 l 111 350 l 133 456 l 475 456 l 457 369 l 196 -14 l 63 -14 z "},"₈":{"ha":489,"x_min":61,"x_max":514,"o":"m 129 -14 q 77 -1 93 -14 q 61 38 61 11 q 65 65 61 49 l 90 178 q 113 215 96 204 q 158 229 131 226 q 114 271 114 233 q 115 288 114 282 l 135 376 q 167 436 143 417 q 235 456 190 456 l 444 456 q 514 403 514 456 q 513 390 514 396 q 511 376 513 383 l 492 288 q 469 245 485 258 q 428 229 453 232 q 460 218 447 226 q 474 190 474 210 q 472 178 474 182 l 447 65 q 416 6 438 25 q 350 -14 394 -14 l 129 -14 m 386 339 q 388 349 388 342 q 369 360 388 360 l 271 360 q 244 339 250 360 l 232 279 q 231 272 231 276 q 247 261 231 261 l 349 261 q 374 279 369 261 l 386 339 m 351 171 l 351 176 q 333 189 351 189 l 232 189 q 208 171 213 189 l 194 107 q 193 99 193 104 q 211 86 193 86 l 313 86 q 338 107 333 86 l 351 171 z "},"₉":{"ha":492,"x_min":64,"x_max":519,"o":"m 132 -14 q 80 -1 96 -14 q 64 38 64 11 q 68 65 64 49 l 83 136 l 201 136 l 196 108 q 194 99 194 104 q 215 86 194 86 l 317 86 q 334 90 329 86 q 342 108 339 94 l 356 175 l 158 175 q 103 221 103 175 q 103 230 103 225 q 106 242 104 235 l 135 374 q 165 435 144 415 q 232 456 185 456 l 451 456 q 504 443 489 456 q 519 404 519 431 q 519 390 519 397 q 517 374 518 382 l 451 68 q 420 6 442 26 q 351 -14 399 -14 l 132 -14 m 389 331 q 390 343 390 336 q 374 356 390 356 l 265 356 q 248 351 254 356 q 239 331 242 346 l 226 274 q 225 267 225 271 q 242 254 225 254 l 372 254 l 389 331 z "},"€":{"ha":808,"x_min":100,"x_max":956,"o":"m 246 0 q 144 24 175 0 q 114 101 114 49 q 122 164 114 128 l 161 347 l 100 347 l 135 438 l 179 438 l 196 514 l 135 514 l 171 604 l 215 604 l 251 776 q 312 900 269 860 q 444 940 354 940 l 956 940 l 861 760 l 494 760 q 456 749 467 760 q 439 710 446 738 l 417 604 l 764 604 l 717 514 l 397 514 l 381 438 l 675 438 l 628 347 l 363 347 l 338 232 q 335 219 335 225 q 335 210 335 214 q 343 189 335 194 q 372 183 351 183 l 782 183 l 743 0 l 246 0 z "},"℗":{"ha":950,"x_min":92,"x_max":1051,"o":"m 263 0 q 133 28 174 0 q 92 124 92 57 q 100 196 92 154 l 217 744 q 247 835 228 799 q 296 896 267 872 q 366 930 325 919 q 461 940 407 940 l 883 940 q 1011 913 971 940 q 1051 818 1051 885 q 1043 744 1051 786 l 926 196 q 897 105 915 142 q 849 44 878 68 q 779 10 819 21 q 685 0 739 0 l 263 0 m 924 758 q 926 772 925 765 q 926 786 926 779 q 868 836 926 836 l 431 836 q 372 818 393 836 q 343 758 351 800 l 219 181 q 215 151 215 164 q 275 103 215 103 l 713 103 q 769 120 749 103 q 800 181 790 138 l 924 758 m 500 374 l 481 285 l 375 285 l 424 515 l 529 515 l 518 461 l 610 461 q 627 466 622 461 q 635 483 632 471 l 650 553 q 651 558 650 556 q 651 563 651 560 q 635 576 651 576 l 438 576 l 456 663 l 713 663 q 754 653 742 663 q 767 622 767 643 q 766 610 767 617 q 764 597 765 604 l 731 439 q 706 390 724 406 q 651 374 689 374 l 500 374 z "},"™":{"ha":1079,"x_min":219,"x_max":1193,"o":"m 256 447 l 336 828 l 219 828 l 243 940 l 603 940 l 579 828 l 465 828 l 385 447 l 256 447 m 975 447 l 1029 703 l 863 447 l 790 447 l 733 700 l 679 447 l 567 447 l 671 940 l 800 940 l 865 625 l 1061 940 l 1193 940 l 1089 447 l 975 447 z "},"Ω":{"ha":956,"x_min":83,"x_max":1049,"o":"m 83 0 m 515 0 l 551 171 l 703 331 q 739 381 724 353 q 764 453 754 408 l 815 699 q 819 726 819 715 q 775 757 819 757 l 496 757 q 455 744 468 757 q 435 699 442 732 l 383 453 q 378 422 379 436 q 376 396 376 407 q 381 360 376 375 q 392 331 385 344 l 475 171 l 439 0 l 83 0 l 119 174 l 308 174 l 204 318 q 178 363 186 342 q 171 410 171 383 q 185 508 171 447 l 242 776 q 303 900 260 860 q 438 940 347 940 l 917 940 q 1018 915 988 940 q 1049 838 1049 890 q 1047 809 1049 824 q 1042 776 1044 794 l 985 508 q 968 442 976 469 q 949 394 960 415 q 923 356 939 374 q 885 318 907 339 l 719 174 l 908 174 l 872 0 l 515 0 z "},"⅓":{"ha":950,"x_min":71,"x_max":965,"o":"m 71 0 m 240 485 l 318 849 l 264 849 l 286 954 l 463 954 l 363 485 l 240 485 m 71 0 l 836 940 l 947 940 l 182 0 l 71 0 m 581 -14 q 528 -1 544 -14 q 513 38 513 11 q 517 65 513 49 l 533 139 l 653 139 l 646 107 q 644 99 644 104 q 663 86 644 86 l 764 86 q 789 107 785 86 l 803 171 l 803 176 q 785 188 803 188 l 697 188 l 714 263 l 801 263 q 825 281 824 263 l 838 339 q 839 349 839 342 q 821 360 839 360 l 722 360 q 696 339 701 360 l 690 311 l 572 311 l 586 376 q 618 436 594 417 q 686 456 642 456 l 896 456 q 965 403 965 456 q 965 390 965 396 q 963 376 964 383 l 943 288 q 920 245 936 258 q 879 229 904 232 q 912 218 899 226 q 925 190 925 210 q 924 178 925 182 l 899 65 q 867 6 889 25 q 801 -14 846 -14 l 581 -14 z "},"⅔":{"ha":1053,"x_min":168,"x_max":1078,"o":"m 168 0 m 168 485 l 207 668 q 240 738 218 717 q 313 760 263 760 l 467 760 q 492 781 486 760 l 503 836 q 504 847 504 840 q 488 858 504 858 l 386 858 q 358 836 364 858 l 353 810 l 236 810 l 250 875 q 282 935 258 915 q 350 954 306 954 l 567 954 q 619 942 603 954 q 635 901 635 929 q 634 888 635 894 q 632 872 633 881 l 606 747 q 576 690 597 708 q 514 671 554 671 l 350 671 q 325 647 331 671 l 313 588 l 571 588 l 549 485 l 168 485 m 201 0 l 967 940 l 1078 940 l 313 0 l 201 0 m 683 -14 q 631 -1 647 -14 q 615 38 615 11 q 619 65 615 49 l 636 139 l 756 139 l 749 107 q 747 99 747 104 q 765 86 747 86 l 867 86 q 892 107 888 86 l 906 171 l 906 176 q 888 188 906 188 l 800 188 l 817 263 l 904 263 q 928 281 926 263 l 940 339 q 942 349 942 342 q 924 360 942 360 l 825 360 q 799 339 804 360 l 793 311 l 675 311 l 689 376 q 721 436 697 417 q 789 456 744 456 l 999 456 q 1068 403 1068 456 q 1067 390 1068 396 q 1065 376 1067 383 l 1046 288 q 1023 245 1039 258 q 982 229 1007 232 q 1015 218 1001 226 q 1028 190 1028 210 q 1026 178 1028 182 l 1001 65 q 970 6 992 25 q 904 -14 949 -14 l 683 -14 z "},"⅛":{"ha":944,"x_min":71,"x_max":960,"o":"m 71 0 m 240 485 l 318 849 l 264 849 l 286 954 l 463 954 l 363 485 l 240 485 m 71 0 l 836 940 l 947 940 l 182 0 l 71 0 m 575 -14 q 523 -1 539 -14 q 507 38 507 11 q 511 65 507 49 l 536 178 q 559 215 542 204 q 604 229 576 226 q 560 271 560 233 q 561 288 560 282 l 581 376 q 613 436 589 417 q 681 456 636 456 l 890 456 q 960 403 960 456 q 959 390 960 396 q 957 376 958 383 l 938 288 q 915 245 931 258 q 874 229 899 232 q 906 218 893 226 q 919 190 919 210 q 918 178 919 182 l 893 65 q 862 6 883 25 q 796 -14 840 -14 l 575 -14 m 832 339 q 833 349 833 342 q 815 360 833 360 l 717 360 q 690 339 696 360 l 678 279 q 676 272 676 276 q 693 261 676 261 l 794 261 q 819 279 815 261 l 832 339 m 797 171 l 797 176 q 779 189 797 189 l 678 189 q 654 171 658 189 l 640 107 q 639 99 639 104 q 657 86 639 86 l 758 86 q 783 107 779 86 l 797 171 z "},"⅜":{"ha":1046,"x_min":179,"x_max":1063,"o":"m 179 0 m 247 485 q 195 497 211 485 q 179 536 179 510 q 183 564 179 547 l 200 638 l 319 638 l 313 606 q 311 597 311 603 q 329 585 311 585 l 431 585 q 456 606 451 585 l 469 669 l 469 675 q 451 686 469 686 l 364 686 l 381 761 l 468 761 q 492 779 490 761 l 504 838 q 506 847 506 840 q 488 858 506 858 l 389 858 q 363 838 368 858 l 357 810 l 239 810 l 253 875 q 285 935 261 915 q 353 954 308 954 l 563 954 q 632 901 632 954 q 631 888 632 894 q 629 875 631 882 l 610 786 q 587 744 603 757 q 546 728 571 731 q 578 717 565 725 q 592 689 592 708 q 590 676 592 681 l 565 564 q 534 504 556 524 q 468 485 513 485 l 247 485 m 186 0 l 951 940 l 1063 940 l 297 0 l 186 0 m 676 -14 q 624 -1 640 -14 q 608 38 608 11 q 613 65 608 49 l 638 178 q 660 215 643 204 q 706 229 678 226 q 661 271 661 233 q 663 288 661 282 l 682 376 q 714 436 690 417 q 782 456 738 456 l 992 456 q 1061 403 1061 456 q 1060 390 1061 396 q 1058 376 1060 383 l 1039 288 q 1016 245 1032 258 q 975 229 1000 232 q 1008 218 994 226 q 1021 190 1021 210 q 1019 178 1021 182 l 994 65 q 963 6 985 25 q 897 -14 942 -14 l 676 -14 m 933 339 q 935 349 935 342 q 917 360 935 360 l 818 360 q 792 339 797 360 l 779 279 q 778 272 778 276 q 794 261 778 261 l 896 261 q 921 279 917 261 l 933 339 m 899 171 l 899 176 q 881 189 899 189 l 779 189 q 756 171 760 189 l 742 107 q 740 99 740 104 q 758 86 740 86 l 860 86 q 885 107 881 86 l 899 171 z "},"⅝":{"ha":1046,"x_min":179,"x_max":1063,"o":"m 179 0 m 247 485 q 195 497 211 485 q 179 536 179 510 q 183 564 179 547 l 200 638 l 319 638 l 313 606 q 311 597 311 601 q 328 585 311 585 l 426 585 q 444 590 439 585 q 451 606 449 594 l 464 668 q 465 676 465 671 q 450 688 465 688 l 210 688 l 267 954 l 635 954 l 613 849 l 367 849 l 351 776 l 543 776 q 597 729 597 776 q 597 720 597 725 q 596 710 597 715 l 565 567 q 534 505 556 525 q 467 485 513 485 l 247 485 m 186 0 l 951 940 l 1063 940 l 297 0 l 186 0 m 676 -14 q 624 -1 640 -14 q 608 38 608 11 q 613 65 608 49 l 638 178 q 660 215 643 204 q 706 229 678 226 q 661 271 661 233 q 663 288 661 282 l 682 376 q 714 436 690 417 q 782 456 738 456 l 992 456 q 1061 403 1061 456 q 1060 390 1061 396 q 1058 376 1060 383 l 1039 288 q 1016 245 1032 258 q 975 229 1000 232 q 1008 218 994 226 q 1021 190 1021 210 q 1019 178 1021 182 l 994 65 q 963 6 985 25 q 897 -14 942 -14 l 676 -14 m 933 339 q 935 349 935 342 q 917 360 935 360 l 818 360 q 792 339 797 360 l 779 279 q 778 272 778 276 q 794 261 778 261 l 896 261 q 921 279 917 261 l 933 339 m 899 171 l 899 176 q 881 189 899 189 l 779 189 q 756 171 760 189 l 742 107 q 740 99 740 104 q 758 86 740 86 l 860 86 q 885 107 881 86 l 899 171 z "},"⅞":{"ha":944,"x_min":71,"x_max":960,"o":"m 71 0 m 200 485 l 460 849 l 249 849 l 271 954 l 613 954 l 594 868 l 333 485 l 200 485 m 71 0 l 836 940 l 947 940 l 182 0 l 71 0 m 575 -14 q 523 -1 539 -14 q 507 38 507 11 q 511 65 507 49 l 536 178 q 559 215 542 204 q 604 229 576 226 q 560 271 560 233 q 561 288 560 282 l 581 376 q 613 436 589 417 q 681 456 636 456 l 890 456 q 960 403 960 456 q 959 390 960 396 q 957 376 958 383 l 938 288 q 915 245 931 258 q 874 229 899 232 q 906 218 893 226 q 919 190 919 210 q 918 178 919 182 l 893 65 q 862 6 883 25 q 796 -14 840 -14 l 575 -14 m 832 339 q 833 349 833 342 q 815 360 833 360 l 717 360 q 690 339 696 360 l 678 279 q 676 272 676 276 q 693 261 676 261 l 794 261 q 819 279 815 261 l 832 339 m 797 171 l 797 176 q 779 189 797 189 l 678 189 q 654 171 658 189 l 640 107 q 639 99 639 104 q 657 86 639 86 l 758 86 q 783 107 779 86 l 797 171 z "},"∂":{"ha":665,"x_min":94,"x_max":743,"o":"m 468 938 q 531 944 503 944 q 614 930 575 944 q 681 885 653 915 q 726 808 710 856 q 743 697 743 761 q 740 633 743 667 q 728 561 736 599 q 667 340 704 446 q 576 154 629 235 q 453 25 524 74 q 293 -24 383 -24 q 146 30 197 -24 q 94 182 94 83 q 97 227 94 204 q 106 276 100 250 q 153 415 122 354 q 227 517 185 475 q 320 581 269 558 q 425 603 371 603 q 478 597 451 603 q 528 574 506 590 q 567 532 551 558 q 586 467 582 506 q 614 565 603 515 q 625 656 625 615 q 589 773 625 731 q 486 815 553 815 q 442 811 467 815 l 468 938 m 539 326 q 510 440 539 404 q 406 476 481 476 q 291 424 340 476 q 222 275 242 372 q 215 218 215 240 q 243 133 215 161 q 319 104 271 104 q 445 158 392 104 q 539 326 499 213 z "},"∆":{"ha":883,"x_min":22,"x_max":860,"o":"m 22 0 m 22 0 l 531 940 l 769 940 l 860 0 l 22 0 m 593 703 l 315 192 l 643 192 l 593 703 z "},"∏":{"ha":674,"x_min":-1,"x_max":797,"o":"m 399 -324 l 643 829 l 371 829 l 126 -324 l -1 -324 l 265 940 l 797 940 l 529 -324 l 399 -324 z "},"∑":{"ha":608,"x_min":0,"x_max":744,"o":"m 0 -237 l 19 -149 l 399 350 l 232 850 l 250 940 l 744 940 l 717 810 l 396 810 l 536 350 l 201 -108 l 522 -108 l 494 -237 l 0 -237 z "},"−":{"ha":879,"x_min":161,"x_max":921,"o":"m 161 415 l 190 554 l 921 554 l 892 415 l 161 415 z "},"√":{"ha":683,"x_min":117,"x_max":850,"o":"m 238 0 l 196 406 l 117 406 l 142 525 l 340 525 l 354 193 l 696 940 l 850 940 l 394 0 l 238 0 z "},"∞":{"ha":871,"x_min":128,"x_max":942,"o":"m 515 381 q 416 278 475 314 q 278 242 357 242 q 169 281 211 242 q 128 400 128 321 q 136 472 128 432 q 172 574 149 531 q 228 646 196 617 q 299 690 261 675 q 376 704 336 704 q 497 667 456 704 q 554 563 538 631 q 656 667 599 631 q 792 704 713 704 q 899 664 857 704 q 942 542 942 624 q 919 410 942 467 q 859 317 896 354 q 778 260 822 279 q 693 242 735 242 q 572 278 614 242 q 515 381 529 314 m 488 468 q 450 560 476 526 q 372 593 424 593 q 272 547 311 593 q 233 429 233 501 q 321 349 233 349 q 417 383 375 349 q 488 468 460 417 m 579 468 q 615 382 586 415 q 697 349 643 349 q 795 389 754 349 q 836 508 836 429 q 814 571 836 549 q 749 593 792 593 q 656 560 697 593 q 579 468 615 526 z "},"∫":{"ha":493,"x_min":-24,"x_max":664,"o":"m -24 -237 l 3 -110 l 49 -110 q 115 -88 89 -110 q 153 -19 142 -67 l 322 778 q 619 997 368 997 l 664 997 l 636 868 l 592 868 q 489 778 507 868 l 319 -19 q 21 -237 272 -237 l -24 -237 z "},"≈":{"ha":875,"x_min":131,"x_max":950,"o":"m 131 233 m 858 286 q 813 262 838 272 q 760 245 788 251 q 706 236 733 239 q 657 233 679 233 q 570 245 610 233 q 494 272 531 257 q 422 298 458 286 q 344 310 385 310 q 243 296 296 310 q 131 249 190 282 l 158 382 q 205 406 179 396 q 257 424 231 417 q 310 433 283 431 q 358 436 336 436 q 443 424 404 436 q 519 397 482 411 q 593 370 556 382 q 674 358 631 358 q 775 372 722 358 q 888 419 828 386 l 858 286 m 921 590 q 875 566 900 576 q 823 549 850 556 q 769 540 796 543 q 719 538 742 538 q 633 549 672 538 q 557 576 593 561 q 484 602 521 590 q 407 614 447 614 q 306 600 358 614 q 193 553 253 586 l 221 686 q 267 710 242 700 q 319 728 293 721 q 372 738 346 735 q 421 740 399 740 q 506 728 467 740 q 581 701 544 715 q 656 674 618 686 q 736 663 693 663 q 838 676 785 663 q 950 724 890 690 l 921 590 z "},"≠":{"ha":878,"x_min":100,"x_max":976,"o":"m 690 589 l 521 381 l 882 381 l 856 260 l 421 260 l 211 0 l 100 0 l 310 260 l 131 260 l 157 381 l 410 381 l 579 589 l 201 589 l 226 711 l 678 711 l 865 940 l 976 940 l 789 711 l 951 711 l 926 589 l 690 589 z "},"≤":{"ha":878,"x_min":64,"x_max":974,"o":"m 64 0 m 164 415 l 183 504 l 974 815 l 946 683 l 371 460 l 851 236 l 824 106 l 164 415 m 64 -51 l 93 88 l 824 88 l 794 -51 l 64 -51 z "},"≥":{"ha":878,"x_min":64,"x_max":908,"o":"m 64 0 m 99 106 l 126 236 l 701 460 l 221 683 l 249 815 l 908 504 l 889 415 l 99 106 m 64 -51 l 93 88 l 824 88 l 794 -51 l 64 -51 z "},"⋅":{"ha":332,"x_min":149,"x_max":371,"o":"m 149 339 m 149 339 l 193 549 l 371 549 l 326 339 l 149 339 z "},"◊":{"ha":743,"x_min":144,"x_max":792,"o":"m 293 0 l 144 469 l 492 940 l 656 940 l 792 469 l 457 0 l 293 0 m 614 469 l 535 760 l 328 469 l 411 181 l 614 469 z "},"ﬁ":{"ha":833,"x_min":74,"x_max":967,"o":"m 74 0 m 74 0 l 250 836 q 309 961 269 925 q 417 997 349 997 l 658 997 l 626 846 l 481 846 q 439 810 446 846 l 417 703 l 590 703 l 558 550 l 385 550 l 268 0 l 74 0 m 560 0 l 708 703 l 903 703 l 754 0 l 560 0 m 726 786 l 771 997 l 967 997 l 922 786 l 726 786 z "},"ﬂ":{"ha":826,"x_min":74,"x_max":963,"o":"m 74 0 m 74 0 l 250 836 q 309 961 269 925 q 417 997 349 997 l 658 997 l 626 846 l 481 846 q 439 810 446 846 l 417 703 l 590 703 l 558 550 l 385 550 l 268 0 l 74 0 m 557 0 l 768 997 l 963 997 l 751 0 l 557 0 z "}}}
